<ttFont>
    <TTGlyph name="A" xMin="-9" yMin="-9" xMax="661" yMax="675">
      <contour>
        <pt x="148" y="75" on="1"/>
        <pt x="148" y="57" on="0"/>
        <pt x="173" y="48" on="1"/>
        <pt x="229" y="30" on="1"/>
        <pt x="223" y="-9" on="1"/>
        <pt x="158" y="0" on="0"/>
        <pt x="68" y="0" on="0"/>
        <pt x="-1" y="-9" on="1"/>
        <pt x="-9" y="30" on="1"/>
        <pt x="36" y="39" on="0"/>
        <pt x="60" y="63" on="0"/>
        <pt x="77" y="111" on="1"/>
        <pt x="273" y="645" on="1"/>
        <pt x="320" y="654" on="0"/>
        <pt x="362" y="675" on="1"/>
        <pt x="580" y="111" on="1"/>
        <pt x="598" y="64" on="0"/>
        <pt x="622" y="39" on="0"/>
        <pt x="661" y="30" on="1"/>
        <pt x="654" y="-9" on="1"/>
        <pt x="585" y="0" on="0"/>
        <pt x="454" y="0" on="0"/>
        <pt x="379" y="-9" on="1"/>
        <pt x="373" y="30" on="1"/>
        <pt x="406" y="40" on="0"/>
        <pt x="453" y="58" on="0"/>
        <pt x="453" y="75" on="1"/>
        <pt x="453" y="82" on="0"/>
        <pt x="450" y="89" on="1"/>
        <pt x="399" y="228" on="1"/>
        <pt x="197" y="228" on="1"/>
        <pt x="150" y="89" on="1"/>
        <pt x="148" y="84" on="0"/>
      </contour>
      <contour>
        <pt x="286" y="485" on="1"/>
        <pt x="219" y="292" on="1"/>
        <pt x="376" y="292" on="1"/>
        <pt x="309" y="478" on="1"/>
        <pt x="298" y="520" on="1"/>
        <pt x="291" y="523" on="1"/>
      </contour>
    </TTGlyph>
    <TTGlyph name="AE" xMin="-22" yMin="-9" xMax="810" yMax="657">
      <contour>
        <pt x="441" y="650" on="1"/>
        <pt x="692" y="650" on="1"/>
        <pt x="742" y="650" on="0"/>
        <pt x="779" y="656" on="1"/>
        <pt x="779" y="499" on="1"/>
        <pt x="727" y="490" on="1"/>
        <pt x="713" y="567" on="0"/>
        <pt x="695" y="588" on="1"/>
        <pt x="525" y="588" on="1"/>
        <pt x="525" y="368" on="1"/>
        <pt x="625" y="368" on="1"/>
        <pt x="650" y="368" on="0"/>
        <pt x="658" y="383" on="1"/>
        <pt x="664" y="394" on="0"/>
        <pt x="672" y="428" on="1"/>
        <pt x="675" y="439" on="1"/>
        <pt x="718" y="433" on="1"/>
        <pt x="710" y="380" on="0"/>
        <pt x="710" y="290" on="0"/>
        <pt x="718" y="234" on="1"/>
        <pt x="675" y="228" on="1"/>
        <pt x="667" y="272" on="0"/>
        <pt x="651" y="305" on="0"/>
        <pt x="625" y="305" on="1"/>
        <pt x="525" y="305" on="1"/>
        <pt x="525" y="63" on="1"/>
        <pt x="705" y="63" on="1"/>
        <pt x="718" y="74" on="0"/>
        <pt x="753" y="153" on="0"/>
        <pt x="760" y="178" on="1"/>
        <pt x="810" y="170" on="1"/>
        <pt x="809" y="140" on="0"/>
        <pt x="796" y="20" on="0"/>
        <pt x="790" y="0" on="1"/>
        <pt x="441" y="0" on="1"/>
        <pt x="403" y="0" on="0"/>
        <pt x="331" y="-9" on="1"/>
        <pt x="324" y="30" on="1"/>
        <pt x="362" y="38" on="0"/>
        <pt x="396" y="57" on="0"/>
        <pt x="396" y="79" on="1"/>
        <pt x="396" y="305" on="1"/>
        <pt x="248" y="305" on="1"/>
        <pt x="149" y="89" on="1"/>
        <pt x="141" y="72" on="0"/>
        <pt x="141" y="52" on="0"/>
        <pt x="149" y="48" on="1"/>
        <pt x="163" y="40" on="0"/>
        <pt x="194" y="32" on="1"/>
        <pt x="204" y="30" on="1"/>
        <pt x="198" y="-8" on="1"/>
        <pt x="135" y="0" on="0"/>
        <pt x="33" y="0" on="0"/>
        <pt x="-15" y="-8" on="1"/>
        <pt x="-22" y="30" on="1"/>
        <pt x="14" y="38" on="0"/>
        <pt x="50" y="65" on="0"/>
        <pt x="72" y="111" on="1"/>
        <pt x="328" y="657" on="1"/>
        <pt x="383" y="650" on="0"/>
      </contour>
      <contour>
        <pt x="396" y="588" on="1"/>
        <pt x="377" y="588" on="1"/>
        <pt x="277" y="368" on="1"/>
        <pt x="396" y="368" on="1"/>
      </contour>
    </TTGlyph>
    <TTGlyph name="AEacute" xMin="-22" yMin="-9" xMax="810" yMax="847">
      <contour>
        <pt x="441" y="650" on="1"/>
        <pt x="692" y="650" on="1"/>
        <pt x="742" y="650" on="0"/>
        <pt x="779" y="656" on="1"/>
        <pt x="779" y="499" on="1"/>
        <pt x="727" y="490" on="1"/>
        <pt x="713" y="567" on="0"/>
        <pt x="695" y="588" on="1"/>
        <pt x="525" y="588" on="1"/>
        <pt x="525" y="368" on="1"/>
        <pt x="625" y="368" on="1"/>
        <pt x="650" y="368" on="0"/>
        <pt x="658" y="383" on="1"/>
        <pt x="664" y="394" on="0"/>
        <pt x="672" y="428" on="1"/>
        <pt x="675" y="439" on="1"/>
        <pt x="718" y="433" on="1"/>
        <pt x="710" y="380" on="0"/>
        <pt x="710" y="290" on="0"/>
        <pt x="718" y="234" on="1"/>
        <pt x="675" y="228" on="1"/>
        <pt x="667" y="272" on="0"/>
        <pt x="651" y="305" on="0"/>
        <pt x="625" y="305" on="1"/>
        <pt x="525" y="305" on="1"/>
        <pt x="525" y="63" on="1"/>
        <pt x="705" y="63" on="1"/>
        <pt x="718" y="74" on="0"/>
        <pt x="753" y="153" on="0"/>
        <pt x="760" y="178" on="1"/>
        <pt x="810" y="170" on="1"/>
        <pt x="809" y="140" on="0"/>
        <pt x="796" y="20" on="0"/>
        <pt x="790" y="0" on="1"/>
        <pt x="441" y="0" on="1"/>
        <pt x="403" y="0" on="0"/>
        <pt x="331" y="-9" on="1"/>
        <pt x="324" y="30" on="1"/>
        <pt x="362" y="38" on="0"/>
        <pt x="396" y="57" on="0"/>
        <pt x="396" y="79" on="1"/>
        <pt x="396" y="305" on="1"/>
        <pt x="248" y="305" on="1"/>
        <pt x="149" y="89" on="1"/>
        <pt x="141" y="72" on="0"/>
        <pt x="141" y="52" on="0"/>
        <pt x="149" y="48" on="1"/>
        <pt x="163" y="40" on="0"/>
        <pt x="194" y="32" on="1"/>
        <pt x="204" y="30" on="1"/>
        <pt x="198" y="-8" on="1"/>
        <pt x="135" y="0" on="0"/>
        <pt x="33" y="0" on="0"/>
        <pt x="-15" y="-8" on="1"/>
        <pt x="-22" y="30" on="1"/>
        <pt x="14" y="38" on="0"/>
        <pt x="50" y="65" on="0"/>
        <pt x="72" y="111" on="1"/>
        <pt x="328" y="657" on="1"/>
        <pt x="383" y="650" on="0"/>
      </contour>
      <contour>
        <pt x="670" y="828" on="1"/>
        <pt x="675" y="799" on="1"/>
        <pt x="485" y="680" on="1"/>
        <pt x="447" y="718" on="1"/>
        <pt x="461" y="736" on="0"/>
        <pt x="555" y="841" on="0"/>
        <pt x="566" y="847" on="1"/>
        <pt x="614" y="844" on="0"/>
      </contour>
      <contour>
        <pt x="396" y="588" on="1"/>
        <pt x="377" y="588" on="1"/>
        <pt x="277" y="368" on="1"/>
        <pt x="396" y="368" on="1"/>
      </contour>
    </TTGlyph>
    <TTGlyph name="Aacute" xMin="-10" yMin="-9" xMax="660" yMax="847">
      <contour>
        <pt x="147" y="75" on="1"/>
        <pt x="147" y="57" on="0"/>
        <pt x="172" y="48" on="1"/>
        <pt x="228" y="30" on="1"/>
        <pt x="222" y="-9" on="1"/>
        <pt x="158" y="0" on="0"/>
        <pt x="67" y="0" on="0"/>
        <pt x="-2" y="-9" on="1"/>
        <pt x="-10" y="30" on="1"/>
        <pt x="35" y="39" on="0"/>
        <pt x="59" y="63" on="0"/>
        <pt x="76" y="111" on="1"/>
        <pt x="272" y="645" on="1"/>
        <pt x="319" y="654" on="0"/>
        <pt x="361" y="675" on="1"/>
        <pt x="579" y="111" on="1"/>
        <pt x="597" y="64" on="0"/>
        <pt x="621" y="39" on="0"/>
        <pt x="660" y="30" on="1"/>
        <pt x="653" y="-9" on="1"/>
        <pt x="584" y="0" on="0"/>
        <pt x="453" y="0" on="0"/>
        <pt x="378" y="-9" on="1"/>
        <pt x="372" y="30" on="1"/>
        <pt x="405" y="40" on="0"/>
        <pt x="452" y="58" on="0"/>
        <pt x="452" y="75" on="1"/>
        <pt x="452" y="82" on="0"/>
        <pt x="449" y="89" on="1"/>
        <pt x="398" y="228" on="1"/>
        <pt x="196" y="228" on="1"/>
        <pt x="149" y="89" on="1"/>
        <pt x="147" y="84" on="0"/>
      </contour>
      <contour>
        <pt x="438" y="828" on="1"/>
        <pt x="443" y="799" on="1"/>
        <pt x="253" y="680" on="1"/>
        <pt x="215" y="718" on="1"/>
        <pt x="229" y="736" on="0"/>
        <pt x="323" y="841" on="0"/>
        <pt x="334" y="847" on="1"/>
        <pt x="382" y="844" on="0"/>
      </contour>
      <contour>
        <pt x="285" y="485" on="1"/>
        <pt x="218" y="292" on="1"/>
        <pt x="375" y="292" on="1"/>
        <pt x="308" y="478" on="1"/>
        <pt x="297" y="520" on="1"/>
        <pt x="290" y="523" on="1"/>
      </contour>
    </TTGlyph>
    <TTGlyph name="Abreve" xMin="-9" yMin="-9" xMax="661" yMax="845">
      <contour>
        <pt x="148" y="75" on="1"/>
        <pt x="148" y="57" on="0"/>
        <pt x="173" y="48" on="1"/>
        <pt x="229" y="30" on="1"/>
        <pt x="223" y="-9" on="1"/>
        <pt x="158" y="0" on="0"/>
        <pt x="68" y="0" on="0"/>
        <pt x="-1" y="-9" on="1"/>
        <pt x="-9" y="30" on="1"/>
        <pt x="36" y="39" on="0"/>
        <pt x="60" y="63" on="0"/>
        <pt x="77" y="111" on="1"/>
        <pt x="273" y="645" on="1"/>
        <pt x="320" y="654" on="0"/>
        <pt x="362" y="675" on="1"/>
        <pt x="580" y="111" on="1"/>
        <pt x="598" y="64" on="0"/>
        <pt x="622" y="39" on="0"/>
        <pt x="661" y="30" on="1"/>
        <pt x="654" y="-9" on="1"/>
        <pt x="585" y="0" on="0"/>
        <pt x="454" y="0" on="0"/>
        <pt x="379" y="-9" on="1"/>
        <pt x="373" y="30" on="1"/>
        <pt x="406" y="40" on="0"/>
        <pt x="453" y="58" on="0"/>
        <pt x="453" y="75" on="1"/>
        <pt x="453" y="82" on="0"/>
        <pt x="450" y="89" on="1"/>
        <pt x="399" y="228" on="1"/>
        <pt x="197" y="228" on="1"/>
        <pt x="150" y="89" on="1"/>
        <pt x="148" y="84" on="0"/>
      </contour>
      <contour>
        <pt x="442" y="773" on="0"/>
        <pt x="368" y="692" on="0"/>
        <pt x="247" y="692" on="0"/>
        <pt x="178" y="771" on="0"/>
        <pt x="178" y="835" on="1"/>
        <pt x="212" y="845" on="1"/>
        <pt x="227" y="779" on="0"/>
        <pt x="393" y="779" on="0"/>
        <pt x="408" y="845" on="1"/>
        <pt x="442" y="835" on="1"/>
      </contour>
      <contour>
        <pt x="286" y="485" on="1"/>
        <pt x="219" y="292" on="1"/>
        <pt x="376" y="292" on="1"/>
        <pt x="309" y="478" on="1"/>
        <pt x="298" y="520" on="1"/>
        <pt x="291" y="523" on="1"/>
      </contour>
    </TTGlyph>
    <TTGlyph name="Acircumflex" xMin="-10" yMin="-9" xMax="660" yMax="852">
      <contour>
        <pt x="147" y="75" on="1"/>
        <pt x="147" y="57" on="0"/>
        <pt x="172" y="48" on="1"/>
        <pt x="228" y="30" on="1"/>
        <pt x="222" y="-9" on="1"/>
        <pt x="158" y="0" on="0"/>
        <pt x="67" y="0" on="0"/>
        <pt x="-2" y="-9" on="1"/>
        <pt x="-10" y="30" on="1"/>
        <pt x="35" y="39" on="0"/>
        <pt x="59" y="63" on="0"/>
        <pt x="76" y="111" on="1"/>
        <pt x="272" y="645" on="1"/>
        <pt x="319" y="654" on="0"/>
        <pt x="361" y="675" on="1"/>
        <pt x="579" y="111" on="1"/>
        <pt x="597" y="64" on="0"/>
        <pt x="621" y="39" on="0"/>
        <pt x="660" y="30" on="1"/>
        <pt x="653" y="-9" on="1"/>
        <pt x="584" y="0" on="0"/>
        <pt x="453" y="0" on="0"/>
        <pt x="378" y="-9" on="1"/>
        <pt x="372" y="30" on="1"/>
        <pt x="405" y="40" on="0"/>
        <pt x="452" y="58" on="0"/>
        <pt x="452" y="75" on="1"/>
        <pt x="452" y="82" on="0"/>
        <pt x="449" y="89" on="1"/>
        <pt x="398" y="228" on="1"/>
        <pt x="196" y="228" on="1"/>
        <pt x="149" y="89" on="1"/>
        <pt x="147" y="84" on="0"/>
      </contour>
      <contour>
        <pt x="250" y="847" on="1"/>
        <pt x="270" y="852" on="0"/>
        <pt x="337" y="852" on="0"/>
        <pt x="356" y="847" on="1"/>
        <pt x="368" y="839" on="0"/>
        <pt x="445" y="734" on="0"/>
        <pt x="454" y="719" on="1"/>
        <pt x="411" y="688" on="1"/>
        <pt x="303" y="777" on="1"/>
        <pt x="195" y="688" on="1"/>
        <pt x="151" y="719" on="1"/>
        <pt x="158" y="732" on="0"/>
        <pt x="238" y="838" on="0"/>
      </contour>
      <contour>
        <pt x="285" y="485" on="1"/>
        <pt x="218" y="292" on="1"/>
        <pt x="375" y="292" on="1"/>
        <pt x="308" y="478" on="1"/>
        <pt x="297" y="520" on="1"/>
        <pt x="290" y="523" on="1"/>
      </contour>
    </TTGlyph>
    <TTGlyph name="Adieresis" xMin="-10" yMin="-9" xMax="660" yMax="822">
      <contour>
        <pt x="147" y="75" on="1"/>
        <pt x="147" y="57" on="0"/>
        <pt x="172" y="48" on="1"/>
        <pt x="228" y="30" on="1"/>
        <pt x="222" y="-9" on="1"/>
        <pt x="158" y="0" on="0"/>
        <pt x="67" y="0" on="0"/>
        <pt x="-2" y="-9" on="1"/>
        <pt x="-10" y="30" on="1"/>
        <pt x="35" y="39" on="0"/>
        <pt x="59" y="63" on="0"/>
        <pt x="76" y="111" on="1"/>
        <pt x="272" y="645" on="1"/>
        <pt x="319" y="654" on="0"/>
        <pt x="361" y="675" on="1"/>
        <pt x="579" y="111" on="1"/>
        <pt x="597" y="64" on="0"/>
        <pt x="621" y="39" on="0"/>
        <pt x="660" y="30" on="1"/>
        <pt x="653" y="-9" on="1"/>
        <pt x="584" y="0" on="0"/>
        <pt x="453" y="0" on="0"/>
        <pt x="378" y="-9" on="1"/>
        <pt x="372" y="30" on="1"/>
        <pt x="405" y="40" on="0"/>
        <pt x="452" y="58" on="0"/>
        <pt x="452" y="75" on="1"/>
        <pt x="452" y="82" on="0"/>
        <pt x="449" y="89" on="1"/>
        <pt x="398" y="228" on="1"/>
        <pt x="196" y="228" on="1"/>
        <pt x="149" y="89" on="1"/>
        <pt x="147" y="84" on="0"/>
      </contour>
      <contour>
        <pt x="285" y="485" on="1"/>
        <pt x="218" y="292" on="1"/>
        <pt x="375" y="292" on="1"/>
        <pt x="308" y="478" on="1"/>
        <pt x="297" y="520" on="1"/>
        <pt x="290" y="523" on="1"/>
      </contour>
      <contour>
        <pt x="116" y="725" on="0"/>
        <pt x="116" y="785" on="0"/>
        <pt x="157" y="822" on="0"/>
        <pt x="225" y="822" on="0"/>
        <pt x="267" y="785" on="0"/>
        <pt x="267" y="725" on="0"/>
        <pt x="225" y="688" on="0"/>
        <pt x="158" y="688" on="0"/>
      </contour>
      <contour>
        <pt x="339" y="725" on="0"/>
        <pt x="339" y="785" on="0"/>
        <pt x="380" y="822" on="0"/>
        <pt x="448" y="822" on="0"/>
        <pt x="490" y="785" on="0"/>
        <pt x="490" y="725" on="0"/>
        <pt x="448" y="688" on="0"/>
        <pt x="381" y="688" on="0"/>
      </contour>
    </TTGlyph>
    <TTGlyph name="Agrave" xMin="-10" yMin="-9" xMax="660" yMax="847">
      <contour>
        <pt x="147" y="75" on="1"/>
        <pt x="147" y="57" on="0"/>
        <pt x="172" y="48" on="1"/>
        <pt x="228" y="30" on="1"/>
        <pt x="222" y="-9" on="1"/>
        <pt x="158" y="0" on="0"/>
        <pt x="67" y="0" on="0"/>
        <pt x="-2" y="-9" on="1"/>
        <pt x="-10" y="30" on="1"/>
        <pt x="35" y="39" on="0"/>
        <pt x="59" y="63" on="0"/>
        <pt x="76" y="111" on="1"/>
        <pt x="272" y="645" on="1"/>
        <pt x="319" y="654" on="0"/>
        <pt x="361" y="675" on="1"/>
        <pt x="579" y="111" on="1"/>
        <pt x="597" y="64" on="0"/>
        <pt x="621" y="39" on="0"/>
        <pt x="660" y="30" on="1"/>
        <pt x="653" y="-9" on="1"/>
        <pt x="584" y="0" on="0"/>
        <pt x="453" y="0" on="0"/>
        <pt x="378" y="-9" on="1"/>
        <pt x="372" y="30" on="1"/>
        <pt x="405" y="40" on="0"/>
        <pt x="452" y="58" on="0"/>
        <pt x="452" y="75" on="1"/>
        <pt x="452" y="82" on="0"/>
        <pt x="449" y="89" on="1"/>
        <pt x="398" y="228" on="1"/>
        <pt x="196" y="228" on="1"/>
        <pt x="149" y="89" on="1"/>
        <pt x="147" y="84" on="0"/>
      </contour>
      <contour>
        <pt x="149" y="799" on="1"/>
        <pt x="154" y="828" on="1"/>
        <pt x="210" y="844" on="0"/>
        <pt x="258" y="847" on="1"/>
        <pt x="269" y="841" on="0"/>
        <pt x="363" y="736" on="0"/>
        <pt x="377" y="718" on="1"/>
        <pt x="339" y="680" on="1"/>
      </contour>
      <contour>
        <pt x="285" y="485" on="1"/>
        <pt x="218" y="292" on="1"/>
        <pt x="375" y="292" on="1"/>
        <pt x="308" y="478" on="1"/>
        <pt x="297" y="520" on="1"/>
        <pt x="290" y="523" on="1"/>
      </contour>
    </TTGlyph>
    <TTGlyph name="Amacron" xMin="-9" yMin="-9" xMax="661" yMax="781">
      <contour>
        <pt x="148" y="75" on="1"/>
        <pt x="148" y="57" on="0"/>
        <pt x="173" y="48" on="1"/>
        <pt x="229" y="30" on="1"/>
        <pt x="223" y="-9" on="1"/>
        <pt x="158" y="0" on="0"/>
        <pt x="68" y="0" on="0"/>
        <pt x="-1" y="-9" on="1"/>
        <pt x="-9" y="30" on="1"/>
        <pt x="36" y="39" on="0"/>
        <pt x="60" y="63" on="0"/>
        <pt x="77" y="111" on="1"/>
        <pt x="273" y="645" on="1"/>
        <pt x="320" y="654" on="0"/>
        <pt x="362" y="675" on="1"/>
        <pt x="580" y="111" on="1"/>
        <pt x="598" y="64" on="0"/>
        <pt x="622" y="39" on="0"/>
        <pt x="661" y="30" on="1"/>
        <pt x="654" y="-9" on="1"/>
        <pt x="585" y="0" on="0"/>
        <pt x="454" y="0" on="0"/>
        <pt x="379" y="-9" on="1"/>
        <pt x="373" y="30" on="1"/>
        <pt x="406" y="40" on="0"/>
        <pt x="453" y="58" on="0"/>
        <pt x="453" y="75" on="1"/>
        <pt x="453" y="82" on="0"/>
        <pt x="450" y="89" on="1"/>
        <pt x="399" y="228" on="1"/>
        <pt x="197" y="228" on="1"/>
        <pt x="150" y="89" on="1"/>
        <pt x="148" y="84" on="0"/>
      </contour>
      <contour>
        <pt x="166" y="705" on="1"/>
        <pt x="180" y="781" on="1"/>
        <pt x="443" y="781" on="1"/>
        <pt x="429" y="705" on="1"/>
      </contour>
      <contour>
        <pt x="286" y="485" on="1"/>
        <pt x="219" y="292" on="1"/>
        <pt x="376" y="292" on="1"/>
        <pt x="309" y="478" on="1"/>
        <pt x="298" y="520" on="1"/>
        <pt x="291" y="523" on="1"/>
      </contour>
    </TTGlyph>
    <TTGlyph name="Aogonek" xMin="-9" yMin="-245" xMax="661" yMax="675">
      <contour>
        <pt x="507" y="-143" on="1"/>
        <pt x="507" y="-162" on="0"/>
        <pt x="527" y="-190" on="0"/>
        <pt x="575" y="-190" on="0"/>
        <pt x="606" y="-171" on="1"/>
        <pt x="626" y="-204" on="1"/>
        <pt x="568" y="-245" on="0"/>
        <pt x="471" y="-245" on="0"/>
        <pt x="417" y="-195" on="0"/>
        <pt x="417" y="-151" on="1"/>
        <pt x="417" y="-129" on="0"/>
        <pt x="433" y="-93" on="0"/>
        <pt x="456" y="-72" on="1"/>
        <pt x="484" y="-44" on="0"/>
        <pt x="544" y="0" on="1"/>
        <pt x="533" y="0" on="1"/>
        <pt x="454" y="0" on="0"/>
        <pt x="379" y="-9" on="1"/>
        <pt x="373" y="30" on="1"/>
        <pt x="406" y="40" on="0"/>
        <pt x="453" y="58" on="0"/>
        <pt x="453" y="75" on="1"/>
        <pt x="453" y="82" on="0"/>
        <pt x="450" y="89" on="1"/>
        <pt x="399" y="228" on="1"/>
        <pt x="197" y="228" on="1"/>
        <pt x="150" y="89" on="1"/>
        <pt x="148" y="84" on="0"/>
        <pt x="148" y="75" on="1"/>
        <pt x="148" y="57" on="0"/>
        <pt x="173" y="48" on="1"/>
        <pt x="229" y="30" on="1"/>
        <pt x="223" y="-9" on="1"/>
        <pt x="158" y="0" on="0"/>
        <pt x="68" y="0" on="0"/>
        <pt x="-1" y="-9" on="1"/>
        <pt x="-9" y="30" on="1"/>
        <pt x="36" y="39" on="0"/>
        <pt x="60" y="63" on="0"/>
        <pt x="77" y="111" on="1"/>
        <pt x="273" y="645" on="1"/>
        <pt x="320" y="654" on="0"/>
        <pt x="362" y="675" on="1"/>
        <pt x="580" y="111" on="1"/>
        <pt x="598" y="64" on="0"/>
        <pt x="622" y="39" on="0"/>
        <pt x="661" y="30" on="1"/>
        <pt x="654" y="-9" on="1"/>
        <pt x="603" y="-3" on="0"/>
        <pt x="583" y="-2" on="1"/>
        <pt x="507" y="-80" on="0"/>
      </contour>
      <contour>
        <pt x="286" y="485" on="1"/>
        <pt x="219" y="292" on="1"/>
        <pt x="376" y="292" on="1"/>
        <pt x="309" y="478" on="1"/>
        <pt x="298" y="520" on="1"/>
        <pt x="291" y="523" on="1"/>
      </contour>
    </TTGlyph>
    <TTGlyph name="Aring" xMin="-10" yMin="-9" xMax="660" yMax="856">
      <contour>
        <pt x="147" y="75" on="1"/>
        <pt x="147" y="57" on="0"/>
        <pt x="172" y="48" on="1"/>
        <pt x="228" y="30" on="1"/>
        <pt x="222" y="-9" on="1"/>
        <pt x="158" y="0" on="0"/>
        <pt x="67" y="0" on="0"/>
        <pt x="-2" y="-9" on="1"/>
        <pt x="-10" y="30" on="1"/>
        <pt x="35" y="39" on="0"/>
        <pt x="59" y="63" on="0"/>
        <pt x="76" y="111" on="1"/>
        <pt x="272" y="645" on="1"/>
        <pt x="319" y="654" on="0"/>
        <pt x="361" y="675" on="1"/>
        <pt x="579" y="111" on="1"/>
        <pt x="597" y="64" on="0"/>
        <pt x="621" y="39" on="0"/>
        <pt x="660" y="30" on="1"/>
        <pt x="653" y="-9" on="1"/>
        <pt x="584" y="0" on="0"/>
        <pt x="453" y="0" on="0"/>
        <pt x="378" y="-9" on="1"/>
        <pt x="372" y="30" on="1"/>
        <pt x="405" y="40" on="0"/>
        <pt x="452" y="58" on="0"/>
        <pt x="452" y="75" on="1"/>
        <pt x="452" y="82" on="0"/>
        <pt x="449" y="89" on="1"/>
        <pt x="398" y="228" on="1"/>
        <pt x="196" y="228" on="1"/>
        <pt x="149" y="89" on="1"/>
        <pt x="147" y="84" on="0"/>
      </contour>
      <contour>
        <pt x="209" y="729" on="0"/>
        <pt x="209" y="803" on="0"/>
        <pt x="269" y="856" on="0"/>
        <pt x="351" y="856" on="0"/>
        <pt x="412" y="803" on="0"/>
        <pt x="412" y="729" on="0"/>
        <pt x="351" y="676" on="0"/>
        <pt x="269" y="676" on="0"/>
      </contour>
      <contour>
        <pt x="285" y="485" on="1"/>
        <pt x="218" y="292" on="1"/>
        <pt x="375" y="292" on="1"/>
        <pt x="308" y="478" on="1"/>
        <pt x="297" y="520" on="1"/>
        <pt x="290" y="523" on="1"/>
      </contour>
      <contour>
        <pt x="269" y="785" on="0"/>
        <pt x="269" y="747" on="0"/>
        <pt x="293" y="721" on="0"/>
        <pt x="327" y="721" on="0"/>
        <pt x="352" y="747" on="0"/>
        <pt x="352" y="785" on="0"/>
        <pt x="327" y="811" on="0"/>
        <pt x="293" y="811" on="0"/>
      </contour>
    </TTGlyph>
    <TTGlyph name="Aringacute" xMin="-10" yMin="-9" xMax="660" yMax="1031">
      <contour>
        <pt x="147" y="75" on="1"/>
        <pt x="147" y="57" on="0"/>
        <pt x="172" y="48" on="1"/>
        <pt x="228" y="30" on="1"/>
        <pt x="222" y="-9" on="1"/>
        <pt x="158" y="0" on="0"/>
        <pt x="67" y="0" on="0"/>
        <pt x="-2" y="-9" on="1"/>
        <pt x="-10" y="30" on="1"/>
        <pt x="35" y="39" on="0"/>
        <pt x="59" y="63" on="0"/>
        <pt x="76" y="111" on="1"/>
        <pt x="272" y="645" on="1"/>
        <pt x="319" y="654" on="0"/>
        <pt x="361" y="675" on="1"/>
        <pt x="579" y="111" on="1"/>
        <pt x="597" y="64" on="0"/>
        <pt x="621" y="39" on="0"/>
        <pt x="660" y="30" on="1"/>
        <pt x="653" y="-9" on="1"/>
        <pt x="584" y="0" on="0"/>
        <pt x="453" y="0" on="0"/>
        <pt x="378" y="-9" on="1"/>
        <pt x="372" y="30" on="1"/>
        <pt x="405" y="40" on="0"/>
        <pt x="452" y="58" on="0"/>
        <pt x="452" y="75" on="1"/>
        <pt x="452" y="82" on="0"/>
        <pt x="449" y="89" on="1"/>
        <pt x="398" y="228" on="1"/>
        <pt x="196" y="228" on="1"/>
        <pt x="149" y="89" on="1"/>
        <pt x="147" y="84" on="0"/>
      </contour>
      <contour>
        <pt x="209" y="729" on="0"/>
        <pt x="209" y="803" on="0"/>
        <pt x="269" y="856" on="0"/>
        <pt x="351" y="856" on="0"/>
        <pt x="412" y="803" on="0"/>
        <pt x="412" y="729" on="0"/>
        <pt x="351" y="676" on="0"/>
        <pt x="269" y="676" on="0"/>
      </contour>
      <contour>
        <pt x="445" y="1012" on="1"/>
        <pt x="450" y="983" on="1"/>
        <pt x="260" y="864" on="1"/>
        <pt x="222" y="902" on="1"/>
        <pt x="236" y="920" on="0"/>
        <pt x="330" y="1025" on="0"/>
        <pt x="341" y="1031" on="1"/>
        <pt x="389" y="1028" on="0"/>
      </contour>
      <contour>
        <pt x="285" y="485" on="1"/>
        <pt x="218" y="292" on="1"/>
        <pt x="375" y="292" on="1"/>
        <pt x="308" y="478" on="1"/>
        <pt x="297" y="520" on="1"/>
        <pt x="290" y="523" on="1"/>
      </contour>
      <contour>
        <pt x="269" y="785" on="0"/>
        <pt x="269" y="747" on="0"/>
        <pt x="293" y="721" on="0"/>
        <pt x="327" y="721" on="0"/>
        <pt x="352" y="747" on="0"/>
        <pt x="352" y="785" on="0"/>
        <pt x="327" y="811" on="0"/>
        <pt x="293" y="811" on="0"/>
      </contour>
    </TTGlyph>
    <TTGlyph name="Atilde" xMin="-10" yMin="-9" xMax="660" yMax="825">
      <contour>
        <pt x="147" y="75" on="1"/>
        <pt x="147" y="57" on="0"/>
        <pt x="172" y="48" on="1"/>
        <pt x="228" y="30" on="1"/>
        <pt x="222" y="-9" on="1"/>
        <pt x="158" y="0" on="0"/>
        <pt x="67" y="0" on="0"/>
        <pt x="-2" y="-9" on="1"/>
        <pt x="-10" y="30" on="1"/>
        <pt x="35" y="39" on="0"/>
        <pt x="59" y="63" on="0"/>
        <pt x="76" y="111" on="1"/>
        <pt x="272" y="645" on="1"/>
        <pt x="319" y="654" on="0"/>
        <pt x="361" y="675" on="1"/>
        <pt x="579" y="111" on="1"/>
        <pt x="597" y="64" on="0"/>
        <pt x="621" y="39" on="0"/>
        <pt x="660" y="30" on="1"/>
        <pt x="653" y="-9" on="1"/>
        <pt x="584" y="0" on="0"/>
        <pt x="453" y="0" on="0"/>
        <pt x="378" y="-9" on="1"/>
        <pt x="372" y="30" on="1"/>
        <pt x="405" y="40" on="0"/>
        <pt x="452" y="58" on="0"/>
        <pt x="452" y="75" on="1"/>
        <pt x="452" y="82" on="0"/>
        <pt x="449" y="89" on="1"/>
        <pt x="398" y="228" on="1"/>
        <pt x="196" y="228" on="1"/>
        <pt x="149" y="89" on="1"/>
        <pt x="147" y="84" on="0"/>
      </contour>
      <contour>
        <pt x="348" y="687" on="0"/>
        <pt x="258" y="729" on="0"/>
        <pt x="207" y="729" on="0"/>
        <pt x="170" y="683" on="1"/>
        <pt x="139" y="702" on="1"/>
        <pt x="151" y="724" on="0"/>
        <pt x="210" y="808" on="0"/>
        <pt x="224" y="821" on="1"/>
        <pt x="247" y="825" on="1"/>
        <pt x="259" y="823" on="0"/>
        <pt x="349" y="777" on="0"/>
        <pt x="399" y="777" on="0"/>
        <pt x="434" y="817" on="1"/>
        <pt x="466" y="795" on="1"/>
        <pt x="454" y="774" on="0"/>
        <pt x="396" y="700" on="0"/>
        <pt x="383" y="689" on="1"/>
        <pt x="360" y="685" on="1"/>
      </contour>
      <contour>
        <pt x="285" y="485" on="1"/>
        <pt x="218" y="292" on="1"/>
        <pt x="375" y="292" on="1"/>
        <pt x="308" y="478" on="1"/>
        <pt x="297" y="520" on="1"/>
        <pt x="290" y="523" on="1"/>
      </contour>
    </TTGlyph>
    <TTGlyph name="B" xMin="48" yMin="-8" xMax="582" yMax="658">
      <contour>
        <pt x="94" y="650" on="1"/>
        <pt x="289" y="658" on="1"/>
        <pt x="536" y="658" on="0"/>
        <pt x="536" y="510" on="1"/>
        <pt x="536" y="445" on="0"/>
        <pt x="454" y="380" on="0"/>
        <pt x="399" y="369" on="1"/>
        <pt x="399" y="362" on="1"/>
        <pt x="472" y="358" on="0"/>
        <pt x="582" y="273" on="0"/>
        <pt x="582" y="95" on="0"/>
        <pt x="432" y="-8" on="0"/>
        <pt x="319" y="-8" on="1"/>
        <pt x="180" y="0" on="1"/>
        <pt x="130" y="0" on="0"/>
        <pt x="56" y="-8" on="1"/>
        <pt x="48" y="30" on="1"/>
        <pt x="86" y="38" on="0"/>
        <pt x="120" y="57" on="0"/>
        <pt x="120" y="79" on="1"/>
        <pt x="120" y="568" on="1"/>
        <pt x="120" y="590" on="0"/>
        <pt x="108" y="596" on="1"/>
        <pt x="89" y="607" on="0"/>
        <pt x="58" y="614" on="1"/>
        <pt x="48" y="617" on="1"/>
        <pt x="56" y="653" on="1"/>
        <pt x="66" y="650" on="0"/>
      </contour>
      <contour>
        <pt x="249" y="319" on="1"/>
        <pt x="249" y="91" on="1"/>
        <pt x="249" y="65" on="0"/>
        <pt x="291" y="42" on="0"/>
        <pt x="316" y="42" on="1"/>
        <pt x="368" y="42" on="0"/>
        <pt x="441" y="112" on="0"/>
        <pt x="441" y="180" on="1"/>
        <pt x="441" y="319" on="0"/>
        <pt x="311" y="319" on="1"/>
      </contour>
      <contour>
        <pt x="249" y="376" on="1"/>
        <pt x="287" y="376" on="1"/>
        <pt x="340" y="376" on="0"/>
        <pt x="401" y="440" on="0"/>
        <pt x="401" y="499" on="1"/>
        <pt x="401" y="609" on="0"/>
        <pt x="289" y="609" on="1"/>
        <pt x="268" y="609" on="0"/>
        <pt x="249" y="602" on="1"/>
      </contour>
    </TTGlyph>
    <TTGlyph name="C" xMin="40" yMin="-16" xMax="643" yMax="666">
      <contour>
        <pt x="403" y="-16" on="1"/>
        <pt x="243" y="-16" on="0"/>
        <pt x="40" y="155" on="0"/>
        <pt x="40" y="299" on="1"/>
        <pt x="40" y="461" on="0"/>
        <pt x="242" y="666" on="0"/>
        <pt x="411" y="666" on="1"/>
        <pt x="465" y="666" on="0"/>
        <pt x="540" y="654" on="0"/>
        <pt x="566" y="650" on="0"/>
        <pt x="636" y="635" on="0"/>
        <pt x="643" y="634" on="1"/>
        <pt x="633" y="522" on="0"/>
        <pt x="616" y="458" on="1"/>
        <pt x="562" y="448" on="1"/>
        <pt x="548" y="555" on="0"/>
        <pt x="528" y="584" on="1"/>
        <pt x="487" y="610" on="0"/>
        <pt x="299" y="610" on="0"/>
        <pt x="191" y="458" on="0"/>
        <pt x="191" y="213" on="0"/>
        <pt x="314" y="40" on="0"/>
        <pt x="413" y="40" on="1"/>
        <pt x="485" y="40" on="0"/>
        <pt x="562" y="113" on="0"/>
        <pt x="584" y="196" on="1"/>
        <pt x="638" y="191" on="1"/>
        <pt x="637" y="124" on="0"/>
        <pt x="617" y="17" on="1"/>
        <pt x="518" y="-16" on="0"/>
      </contour>
    </TTGlyph>
    <TTGlyph name="Cacute" xMin="40" yMin="-16" xMax="643" yMax="847">
      <contour>
        <pt x="403" y="-16" on="1"/>
        <pt x="243" y="-16" on="0"/>
        <pt x="40" y="155" on="0"/>
        <pt x="40" y="299" on="1"/>
        <pt x="40" y="461" on="0"/>
        <pt x="242" y="666" on="0"/>
        <pt x="411" y="666" on="1"/>
        <pt x="465" y="666" on="0"/>
        <pt x="540" y="654" on="0"/>
        <pt x="566" y="650" on="0"/>
        <pt x="636" y="635" on="0"/>
        <pt x="643" y="634" on="1"/>
        <pt x="633" y="522" on="0"/>
        <pt x="616" y="458" on="1"/>
        <pt x="562" y="448" on="1"/>
        <pt x="548" y="555" on="0"/>
        <pt x="528" y="584" on="1"/>
        <pt x="487" y="610" on="0"/>
        <pt x="299" y="610" on="0"/>
        <pt x="191" y="458" on="0"/>
        <pt x="191" y="213" on="0"/>
        <pt x="314" y="40" on="0"/>
        <pt x="413" y="40" on="1"/>
        <pt x="485" y="40" on="0"/>
        <pt x="562" y="113" on="0"/>
        <pt x="584" y="196" on="1"/>
        <pt x="638" y="191" on="1"/>
        <pt x="637" y="124" on="0"/>
        <pt x="617" y="17" on="1"/>
        <pt x="518" y="-16" on="0"/>
      </contour>
      <contour>
        <pt x="546" y="828" on="1"/>
        <pt x="551" y="799" on="1"/>
        <pt x="361" y="680" on="1"/>
        <pt x="323" y="718" on="1"/>
        <pt x="337" y="736" on="0"/>
        <pt x="431" y="841" on="0"/>
        <pt x="442" y="847" on="1"/>
        <pt x="490" y="844" on="0"/>
      </contour>
    </TTGlyph>
    <TTGlyph name="Ccaron" xMin="40" yMin="-16" xMax="643" yMax="856">
      <contour>
        <pt x="403" y="-16" on="1"/>
        <pt x="243" y="-16" on="0"/>
        <pt x="40" y="155" on="0"/>
        <pt x="40" y="299" on="1"/>
        <pt x="40" y="461" on="0"/>
        <pt x="242" y="666" on="0"/>
        <pt x="411" y="666" on="1"/>
        <pt x="465" y="666" on="0"/>
        <pt x="540" y="654" on="0"/>
        <pt x="566" y="650" on="0"/>
        <pt x="636" y="635" on="0"/>
        <pt x="643" y="634" on="1"/>
        <pt x="633" y="522" on="0"/>
        <pt x="616" y="458" on="1"/>
        <pt x="562" y="448" on="1"/>
        <pt x="548" y="555" on="0"/>
        <pt x="528" y="584" on="1"/>
        <pt x="487" y="610" on="0"/>
        <pt x="299" y="610" on="0"/>
        <pt x="191" y="458" on="0"/>
        <pt x="191" y="213" on="0"/>
        <pt x="314" y="40" on="0"/>
        <pt x="413" y="40" on="1"/>
        <pt x="485" y="40" on="0"/>
        <pt x="562" y="113" on="0"/>
        <pt x="584" y="196" on="1"/>
        <pt x="638" y="191" on="1"/>
        <pt x="637" y="124" on="0"/>
        <pt x="617" y="17" on="1"/>
        <pt x="518" y="-16" on="0"/>
      </contour>
      <contour>
        <pt x="463" y="697" on="1"/>
        <pt x="443" y="692" on="0"/>
        <pt x="376" y="692" on="0"/>
        <pt x="357" y="697" on="1"/>
        <pt x="345" y="705" on="0"/>
        <pt x="268" y="810" on="0"/>
        <pt x="259" y="825" on="1"/>
        <pt x="302" y="856" on="1"/>
        <pt x="410" y="767" on="1"/>
        <pt x="518" y="856" on="1"/>
        <pt x="562" y="825" on="1"/>
        <pt x="555" y="812" on="0"/>
        <pt x="475" y="706" on="0"/>
      </contour>
    </TTGlyph>
    <TTGlyph name="Ccedilla" xMin="40" yMin="-245" xMax="643" yMax="666">
      <contour>
        <pt x="40" y="299" on="1"/>
        <pt x="40" y="461" on="0"/>
        <pt x="242" y="666" on="0"/>
        <pt x="411" y="666" on="1"/>
        <pt x="465" y="666" on="0"/>
        <pt x="540" y="654" on="0"/>
        <pt x="566" y="650" on="0"/>
        <pt x="636" y="635" on="0"/>
        <pt x="643" y="634" on="1"/>
        <pt x="633" y="522" on="0"/>
        <pt x="616" y="458" on="1"/>
        <pt x="562" y="448" on="1"/>
        <pt x="548" y="555" on="0"/>
        <pt x="528" y="584" on="1"/>
        <pt x="487" y="610" on="0"/>
        <pt x="299" y="610" on="0"/>
        <pt x="191" y="458" on="0"/>
        <pt x="191" y="213" on="0"/>
        <pt x="314" y="40" on="0"/>
        <pt x="413" y="40" on="1"/>
        <pt x="485" y="40" on="0"/>
        <pt x="562" y="113" on="0"/>
        <pt x="584" y="196" on="1"/>
        <pt x="638" y="191" on="1"/>
        <pt x="637" y="124" on="0"/>
        <pt x="617" y="17" on="1"/>
        <pt x="532" y="-12" on="0"/>
        <pt x="425" y="-15" on="1"/>
        <pt x="408" y="-71" on="1"/>
        <pt x="440" y="-71" on="0"/>
        <pt x="485" y="-116" on="0"/>
        <pt x="485" y="-194" on="0"/>
        <pt x="424" y="-245" on="0"/>
        <pt x="328" y="-245" on="0"/>
        <pt x="272" y="-207" on="1"/>
        <pt x="291" y="-170" on="1"/>
        <pt x="337" y="-193" on="0"/>
        <pt x="369" y="-193" on="1"/>
        <pt x="407" y="-193" on="0"/>
        <pt x="407" y="-158" on="1"/>
        <pt x="407" y="-135" on="0"/>
        <pt x="373" y="-115" on="0"/>
        <pt x="347" y="-115" on="0"/>
        <pt x="336" y="-118" on="1"/>
        <pt x="318" y="-92" on="1"/>
        <pt x="362" y="-14" on="1"/>
        <pt x="218" y="-3" on="0"/>
        <pt x="40" y="165" on="0"/>
      </contour>
    </TTGlyph>
    <TTGlyph name="Ccircumflex" xMin="40" yMin="-16" xMax="643" yMax="852">
      <contour>
        <pt x="403" y="-16" on="1"/>
        <pt x="243" y="-16" on="0"/>
        <pt x="40" y="155" on="0"/>
        <pt x="40" y="299" on="1"/>
        <pt x="40" y="461" on="0"/>
        <pt x="242" y="666" on="0"/>
        <pt x="411" y="666" on="1"/>
        <pt x="465" y="666" on="0"/>
        <pt x="540" y="654" on="0"/>
        <pt x="566" y="650" on="0"/>
        <pt x="636" y="635" on="0"/>
        <pt x="643" y="634" on="1"/>
        <pt x="633" y="522" on="0"/>
        <pt x="616" y="458" on="1"/>
        <pt x="562" y="448" on="1"/>
        <pt x="548" y="555" on="0"/>
        <pt x="528" y="584" on="1"/>
        <pt x="487" y="610" on="0"/>
        <pt x="299" y="610" on="0"/>
        <pt x="191" y="458" on="0"/>
        <pt x="191" y="213" on="0"/>
        <pt x="314" y="40" on="0"/>
        <pt x="413" y="40" on="1"/>
        <pt x="485" y="40" on="0"/>
        <pt x="562" y="113" on="0"/>
        <pt x="584" y="196" on="1"/>
        <pt x="638" y="191" on="1"/>
        <pt x="637" y="124" on="0"/>
        <pt x="617" y="17" on="1"/>
        <pt x="518" y="-16" on="0"/>
      </contour>
      <contour>
        <pt x="358" y="847" on="1"/>
        <pt x="378" y="852" on="0"/>
        <pt x="445" y="852" on="0"/>
        <pt x="464" y="847" on="1"/>
        <pt x="476" y="839" on="0"/>
        <pt x="553" y="734" on="0"/>
        <pt x="562" y="719" on="1"/>
        <pt x="519" y="688" on="1"/>
        <pt x="411" y="777" on="1"/>
        <pt x="303" y="688" on="1"/>
        <pt x="259" y="719" on="1"/>
        <pt x="266" y="732" on="0"/>
        <pt x="346" y="838" on="0"/>
      </contour>
    </TTGlyph>
    <TTGlyph name="Cdot" xMin="40" yMin="-16" xMax="643" yMax="838">
      <contour>
        <pt x="403" y="-16" on="1"/>
        <pt x="243" y="-16" on="0"/>
        <pt x="40" y="155" on="0"/>
        <pt x="40" y="299" on="1"/>
        <pt x="40" y="461" on="0"/>
        <pt x="242" y="666" on="0"/>
        <pt x="411" y="666" on="1"/>
        <pt x="465" y="666" on="0"/>
        <pt x="540" y="654" on="0"/>
        <pt x="566" y="650" on="0"/>
        <pt x="636" y="635" on="0"/>
        <pt x="643" y="634" on="1"/>
        <pt x="633" y="522" on="0"/>
        <pt x="616" y="458" on="1"/>
        <pt x="562" y="448" on="1"/>
        <pt x="548" y="555" on="0"/>
        <pt x="528" y="584" on="1"/>
        <pt x="487" y="610" on="0"/>
        <pt x="299" y="610" on="0"/>
        <pt x="191" y="458" on="0"/>
        <pt x="191" y="213" on="0"/>
        <pt x="314" y="40" on="0"/>
        <pt x="413" y="40" on="1"/>
        <pt x="485" y="40" on="0"/>
        <pt x="562" y="113" on="0"/>
        <pt x="584" y="196" on="1"/>
        <pt x="638" y="191" on="1"/>
        <pt x="637" y="124" on="0"/>
        <pt x="617" y="17" on="1"/>
        <pt x="518" y="-16" on="0"/>
      </contour>
      <contour>
        <pt x="328" y="733" on="0"/>
        <pt x="328" y="797" on="0"/>
        <pt x="374" y="838" on="0"/>
        <pt x="448" y="838" on="0"/>
        <pt x="495" y="797" on="0"/>
        <pt x="495" y="733" on="0"/>
        <pt x="448" y="692" on="0"/>
        <pt x="374" y="692" on="0"/>
      </contour>
    </TTGlyph>
    <TTGlyph name="D" xMin="48" yMin="-9" xMax="728" yMax="660">
      <contour>
        <pt x="249" y="98" on="1"/>
        <pt x="249" y="46" on="0"/>
        <pt x="470" y="46" on="0"/>
        <pt x="587" y="198" on="0"/>
        <pt x="587" y="469" on="0"/>
        <pt x="457" y="605" on="0"/>
        <pt x="320" y="605" on="1"/>
        <pt x="274" y="605" on="0"/>
        <pt x="249" y="596" on="1"/>
      </contour>
      <contour>
        <pt x="99" y="653" on="1"/>
        <pt x="339" y="660" on="1"/>
        <pt x="517" y="660" on="0"/>
        <pt x="620" y="590" on="1"/>
        <pt x="728" y="517" on="0"/>
        <pt x="728" y="189" on="0"/>
        <pt x="536" y="-8" on="0"/>
        <pt x="367" y="-8" on="1"/>
        <pt x="321" y="-8" on="0"/>
        <pt x="195" y="0" on="0"/>
        <pt x="145" y="0" on="0"/>
        <pt x="57" y="-9" on="1"/>
        <pt x="49" y="30" on="1"/>
        <pt x="86" y="38" on="0"/>
        <pt x="120" y="57" on="0"/>
        <pt x="120" y="79" on="1"/>
        <pt x="120" y="569" on="1"/>
        <pt x="120" y="581" on="0"/>
        <pt x="115" y="590" on="0"/>
        <pt x="106" y="596" on="1"/>
        <pt x="88" y="607" on="0"/>
        <pt x="58" y="614" on="1"/>
        <pt x="48" y="617" on="1"/>
        <pt x="56" y="654" on="1"/>
        <pt x="73" y="653" on="0"/>
      </contour>
    </TTGlyph>
    <TTGlyph name="Dcaron" xMin="48" yMin="-9" xMax="728" yMax="856">
      <contour>
        <pt x="249" y="98" on="1"/>
        <pt x="249" y="46" on="0"/>
        <pt x="470" y="46" on="0"/>
        <pt x="587" y="198" on="0"/>
        <pt x="587" y="469" on="0"/>
        <pt x="457" y="605" on="0"/>
        <pt x="320" y="605" on="1"/>
        <pt x="274" y="605" on="0"/>
        <pt x="249" y="596" on="1"/>
      </contour>
      <contour>
        <pt x="99" y="653" on="1"/>
        <pt x="339" y="660" on="1"/>
        <pt x="517" y="660" on="0"/>
        <pt x="620" y="590" on="1"/>
        <pt x="728" y="517" on="0"/>
        <pt x="728" y="189" on="0"/>
        <pt x="536" y="-8" on="0"/>
        <pt x="367" y="-8" on="1"/>
        <pt x="321" y="-8" on="0"/>
        <pt x="195" y="0" on="0"/>
        <pt x="145" y="0" on="0"/>
        <pt x="57" y="-9" on="1"/>
        <pt x="49" y="30" on="1"/>
        <pt x="86" y="38" on="0"/>
        <pt x="120" y="57" on="0"/>
        <pt x="120" y="79" on="1"/>
        <pt x="120" y="569" on="1"/>
        <pt x="120" y="581" on="0"/>
        <pt x="115" y="590" on="0"/>
        <pt x="106" y="596" on="1"/>
        <pt x="88" y="607" on="0"/>
        <pt x="58" y="614" on="1"/>
        <pt x="48" y="617" on="1"/>
        <pt x="56" y="654" on="1"/>
        <pt x="73" y="653" on="0"/>
      </contour>
      <contour>
        <pt x="362" y="697" on="1"/>
        <pt x="342" y="692" on="0"/>
        <pt x="275" y="692" on="0"/>
        <pt x="256" y="697" on="1"/>
        <pt x="244" y="705" on="0"/>
        <pt x="167" y="810" on="0"/>
        <pt x="158" y="825" on="1"/>
        <pt x="201" y="856" on="1"/>
        <pt x="309" y="767" on="1"/>
        <pt x="417" y="856" on="1"/>
        <pt x="461" y="825" on="1"/>
        <pt x="454" y="812" on="0"/>
        <pt x="374" y="706" on="0"/>
      </contour>
    </TTGlyph>
    <TTGlyph name="Dcroat" xMin="46" yMin="-9" xMax="733" yMax="660">
      <contour>
        <pt x="104" y="653" on="1"/>
        <pt x="344" y="660" on="1"/>
        <pt x="522" y="660" on="0"/>
        <pt x="624" y="590" on="1"/>
        <pt x="733" y="517" on="0"/>
        <pt x="733" y="189" on="0"/>
        <pt x="541" y="-8" on="0"/>
        <pt x="372" y="-8" on="1"/>
        <pt x="326" y="-8" on="0"/>
        <pt x="200" y="0" on="0"/>
        <pt x="150" y="0" on="0"/>
        <pt x="62" y="-9" on="1"/>
        <pt x="54" y="30" on="1"/>
        <pt x="91" y="38" on="0"/>
        <pt x="125" y="57" on="0"/>
        <pt x="125" y="79" on="1"/>
        <pt x="125" y="313" on="1"/>
        <pt x="46" y="313" on="1"/>
        <pt x="56" y="365" on="1"/>
        <pt x="125" y="365" on="1"/>
        <pt x="125" y="569" on="1"/>
        <pt x="125" y="581" on="0"/>
        <pt x="120" y="590" on="0"/>
        <pt x="110" y="596" on="1"/>
        <pt x="93" y="607" on="0"/>
        <pt x="63" y="614" on="1"/>
        <pt x="53" y="617" on="1"/>
        <pt x="61" y="654" on="1"/>
        <pt x="78" y="653" on="0"/>
      </contour>
      <contour>
        <pt x="254" y="98" on="1"/>
        <pt x="254" y="46" on="0"/>
        <pt x="475" y="46" on="0"/>
        <pt x="592" y="198" on="0"/>
        <pt x="592" y="469" on="0"/>
        <pt x="462" y="605" on="0"/>
        <pt x="325" y="605" on="1"/>
        <pt x="279" y="605" on="0"/>
        <pt x="254" y="596" on="1"/>
        <pt x="254" y="365" on="1"/>
        <pt x="407" y="365" on="1"/>
        <pt x="397" y="313" on="1"/>
        <pt x="254" y="313" on="1"/>
      </contour>
    </TTGlyph>
    <TTGlyph name="E" xMin="45" yMin="-9" xMax="550" yMax="660">
      <contour>
        <pt x="518" y="656" on="1"/>
        <pt x="520" y="569" on="1"/>
        <pt x="520" y="534" on="0"/>
        <pt x="517" y="499" on="1"/>
        <pt x="471" y="491" on="1"/>
        <pt x="457" y="568" on="0"/>
        <pt x="439" y="589" on="1"/>
        <pt x="249" y="589" on="1"/>
        <pt x="249" y="369" on="1"/>
        <pt x="364" y="369" on="1"/>
        <pt x="389" y="369" on="0"/>
        <pt x="397" y="384" on="1"/>
        <pt x="403" y="395" on="0"/>
        <pt x="412" y="430" on="1"/>
        <pt x="414" y="440" on="1"/>
        <pt x="457" y="435" on="1"/>
        <pt x="449" y="382" on="0"/>
        <pt x="449" y="291" on="0"/>
        <pt x="457" y="241" on="1"/>
        <pt x="414" y="237" on="1"/>
        <pt x="405" y="276" on="0"/>
        <pt x="390" y="307" on="0"/>
        <pt x="364" y="307" on="1"/>
        <pt x="249" y="307" on="1"/>
        <pt x="249" y="62" on="1"/>
        <pt x="449" y="62" on="1"/>
        <pt x="462" y="73" on="0"/>
        <pt x="497" y="154" on="0"/>
        <pt x="504" y="179" on="1"/>
        <pt x="550" y="171" on="1"/>
        <pt x="549" y="142" on="0"/>
        <pt x="535" y="21" on="0"/>
        <pt x="529" y="0" on="1"/>
        <pt x="180" y="0" on="1"/>
        <pt x="139" y="0" on="0"/>
        <pt x="53" y="-9" on="1"/>
        <pt x="45" y="30" on="1"/>
        <pt x="110" y="43" on="0"/>
        <pt x="118" y="60" on="1"/>
        <pt x="120" y="65" on="0"/>
        <pt x="120" y="79" on="1"/>
        <pt x="120" y="573" on="1"/>
        <pt x="120" y="596" on="0"/>
        <pt x="104" y="603" on="1"/>
        <pt x="85" y="612" on="0"/>
        <pt x="56" y="618" on="1"/>
        <pt x="45" y="621" on="1"/>
        <pt x="54" y="660" on="1"/>
        <pt x="150" y="650" on="0"/>
        <pt x="180" y="650" on="1"/>
        <pt x="426" y="650" on="1"/>
        <pt x="474" y="650" on="0"/>
      </contour>
    </TTGlyph>
    <TTGlyph name="Eacute" xMin="35" yMin="-9" xMax="540" yMax="847">
      <contour>
        <pt x="508" y="656" on="1"/>
        <pt x="510" y="569" on="1"/>
        <pt x="510" y="534" on="0"/>
        <pt x="507" y="499" on="1"/>
        <pt x="461" y="491" on="1"/>
        <pt x="447" y="568" on="0"/>
        <pt x="429" y="589" on="1"/>
        <pt x="239" y="589" on="1"/>
        <pt x="239" y="369" on="1"/>
        <pt x="354" y="369" on="1"/>
        <pt x="379" y="369" on="0"/>
        <pt x="387" y="384" on="1"/>
        <pt x="393" y="395" on="0"/>
        <pt x="402" y="430" on="1"/>
        <pt x="404" y="440" on="1"/>
        <pt x="447" y="435" on="1"/>
        <pt x="439" y="382" on="0"/>
        <pt x="439" y="291" on="0"/>
        <pt x="447" y="241" on="1"/>
        <pt x="404" y="237" on="1"/>
        <pt x="395" y="276" on="0"/>
        <pt x="380" y="307" on="0"/>
        <pt x="354" y="307" on="1"/>
        <pt x="239" y="307" on="1"/>
        <pt x="239" y="62" on="1"/>
        <pt x="439" y="62" on="1"/>
        <pt x="452" y="73" on="0"/>
        <pt x="487" y="154" on="0"/>
        <pt x="494" y="179" on="1"/>
        <pt x="540" y="171" on="1"/>
        <pt x="539" y="142" on="0"/>
        <pt x="525" y="21" on="0"/>
        <pt x="519" y="0" on="1"/>
        <pt x="170" y="0" on="1"/>
        <pt x="129" y="0" on="0"/>
        <pt x="43" y="-9" on="1"/>
        <pt x="35" y="30" on="1"/>
        <pt x="100" y="43" on="0"/>
        <pt x="108" y="60" on="1"/>
        <pt x="110" y="65" on="0"/>
        <pt x="110" y="79" on="1"/>
        <pt x="110" y="573" on="1"/>
        <pt x="110" y="596" on="0"/>
        <pt x="94" y="603" on="1"/>
        <pt x="75" y="612" on="0"/>
        <pt x="46" y="618" on="1"/>
        <pt x="35" y="621" on="1"/>
        <pt x="44" y="660" on="1"/>
        <pt x="140" y="650" on="0"/>
        <pt x="170" y="650" on="1"/>
        <pt x="416" y="650" on="1"/>
        <pt x="464" y="650" on="0"/>
      </contour>
      <contour>
        <pt x="429" y="828" on="1"/>
        <pt x="434" y="799" on="1"/>
        <pt x="244" y="680" on="1"/>
        <pt x="206" y="718" on="1"/>
        <pt x="220" y="736" on="0"/>
        <pt x="314" y="841" on="0"/>
        <pt x="325" y="847" on="1"/>
        <pt x="373" y="844" on="0"/>
      </contour>
    </TTGlyph>
    <TTGlyph name="Ebreve" xMin="45" yMin="-9" xMax="550" yMax="845">
      <contour>
        <pt x="518" y="656" on="1"/>
        <pt x="520" y="569" on="1"/>
        <pt x="520" y="534" on="0"/>
        <pt x="517" y="499" on="1"/>
        <pt x="471" y="491" on="1"/>
        <pt x="457" y="568" on="0"/>
        <pt x="439" y="589" on="1"/>
        <pt x="249" y="589" on="1"/>
        <pt x="249" y="369" on="1"/>
        <pt x="364" y="369" on="1"/>
        <pt x="389" y="369" on="0"/>
        <pt x="397" y="384" on="1"/>
        <pt x="403" y="395" on="0"/>
        <pt x="412" y="430" on="1"/>
        <pt x="414" y="440" on="1"/>
        <pt x="457" y="435" on="1"/>
        <pt x="449" y="382" on="0"/>
        <pt x="449" y="291" on="0"/>
        <pt x="457" y="241" on="1"/>
        <pt x="414" y="237" on="1"/>
        <pt x="405" y="276" on="0"/>
        <pt x="390" y="307" on="0"/>
        <pt x="364" y="307" on="1"/>
        <pt x="249" y="307" on="1"/>
        <pt x="249" y="62" on="1"/>
        <pt x="449" y="62" on="1"/>
        <pt x="462" y="73" on="0"/>
        <pt x="497" y="154" on="0"/>
        <pt x="504" y="179" on="1"/>
        <pt x="550" y="171" on="1"/>
        <pt x="549" y="142" on="0"/>
        <pt x="535" y="21" on="0"/>
        <pt x="529" y="0" on="1"/>
        <pt x="180" y="0" on="1"/>
        <pt x="139" y="0" on="0"/>
        <pt x="53" y="-9" on="1"/>
        <pt x="45" y="30" on="1"/>
        <pt x="110" y="43" on="0"/>
        <pt x="118" y="60" on="1"/>
        <pt x="120" y="65" on="0"/>
        <pt x="120" y="79" on="1"/>
        <pt x="120" y="573" on="1"/>
        <pt x="120" y="596" on="0"/>
        <pt x="104" y="603" on="1"/>
        <pt x="85" y="612" on="0"/>
        <pt x="56" y="618" on="1"/>
        <pt x="45" y="621" on="1"/>
        <pt x="54" y="660" on="1"/>
        <pt x="150" y="650" on="0"/>
        <pt x="180" y="650" on="1"/>
        <pt x="426" y="650" on="1"/>
        <pt x="474" y="650" on="0"/>
      </contour>
      <contour>
        <pt x="442" y="773" on="0"/>
        <pt x="368" y="692" on="0"/>
        <pt x="247" y="692" on="0"/>
        <pt x="178" y="771" on="0"/>
        <pt x="178" y="835" on="1"/>
        <pt x="212" y="845" on="1"/>
        <pt x="227" y="779" on="0"/>
        <pt x="393" y="779" on="0"/>
        <pt x="408" y="845" on="1"/>
        <pt x="442" y="835" on="1"/>
      </contour>
    </TTGlyph>
    <TTGlyph name="Ecaron" xMin="45" yMin="-9" xMax="550" yMax="856">
      <contour>
        <pt x="518" y="656" on="1"/>
        <pt x="520" y="569" on="1"/>
        <pt x="520" y="534" on="0"/>
        <pt x="517" y="499" on="1"/>
        <pt x="471" y="491" on="1"/>
        <pt x="457" y="568" on="0"/>
        <pt x="439" y="589" on="1"/>
        <pt x="249" y="589" on="1"/>
        <pt x="249" y="369" on="1"/>
        <pt x="364" y="369" on="1"/>
        <pt x="389" y="369" on="0"/>
        <pt x="397" y="384" on="1"/>
        <pt x="403" y="395" on="0"/>
        <pt x="412" y="430" on="1"/>
        <pt x="414" y="440" on="1"/>
        <pt x="457" y="435" on="1"/>
        <pt x="449" y="382" on="0"/>
        <pt x="449" y="291" on="0"/>
        <pt x="457" y="241" on="1"/>
        <pt x="414" y="237" on="1"/>
        <pt x="405" y="276" on="0"/>
        <pt x="390" y="307" on="0"/>
        <pt x="364" y="307" on="1"/>
        <pt x="249" y="307" on="1"/>
        <pt x="249" y="62" on="1"/>
        <pt x="449" y="62" on="1"/>
        <pt x="462" y="73" on="0"/>
        <pt x="497" y="154" on="0"/>
        <pt x="504" y="179" on="1"/>
        <pt x="550" y="171" on="1"/>
        <pt x="549" y="142" on="0"/>
        <pt x="535" y="21" on="0"/>
        <pt x="529" y="0" on="1"/>
        <pt x="180" y="0" on="1"/>
        <pt x="139" y="0" on="0"/>
        <pt x="53" y="-9" on="1"/>
        <pt x="45" y="30" on="1"/>
        <pt x="110" y="43" on="0"/>
        <pt x="118" y="60" on="1"/>
        <pt x="120" y="65" on="0"/>
        <pt x="120" y="79" on="1"/>
        <pt x="120" y="573" on="1"/>
        <pt x="120" y="596" on="0"/>
        <pt x="104" y="603" on="1"/>
        <pt x="85" y="612" on="0"/>
        <pt x="56" y="618" on="1"/>
        <pt x="45" y="621" on="1"/>
        <pt x="54" y="660" on="1"/>
        <pt x="150" y="650" on="0"/>
        <pt x="180" y="650" on="1"/>
        <pt x="426" y="650" on="1"/>
        <pt x="474" y="650" on="0"/>
      </contour>
      <contour>
        <pt x="356" y="697" on="1"/>
        <pt x="336" y="692" on="0"/>
        <pt x="269" y="692" on="0"/>
        <pt x="250" y="697" on="1"/>
        <pt x="238" y="705" on="0"/>
        <pt x="161" y="810" on="0"/>
        <pt x="152" y="825" on="1"/>
        <pt x="195" y="856" on="1"/>
        <pt x="303" y="767" on="1"/>
        <pt x="411" y="856" on="1"/>
        <pt x="455" y="825" on="1"/>
        <pt x="448" y="812" on="0"/>
        <pt x="368" y="706" on="0"/>
      </contour>
    </TTGlyph>
    <TTGlyph name="Ecircumflex" xMin="35" yMin="-9" xMax="540" yMax="852">
      <contour>
        <pt x="508" y="656" on="1"/>
        <pt x="510" y="569" on="1"/>
        <pt x="510" y="534" on="0"/>
        <pt x="507" y="499" on="1"/>
        <pt x="461" y="491" on="1"/>
        <pt x="447" y="568" on="0"/>
        <pt x="429" y="589" on="1"/>
        <pt x="239" y="589" on="1"/>
        <pt x="239" y="369" on="1"/>
        <pt x="354" y="369" on="1"/>
        <pt x="379" y="369" on="0"/>
        <pt x="387" y="384" on="1"/>
        <pt x="393" y="395" on="0"/>
        <pt x="402" y="430" on="1"/>
        <pt x="404" y="440" on="1"/>
        <pt x="447" y="435" on="1"/>
        <pt x="439" y="382" on="0"/>
        <pt x="439" y="291" on="0"/>
        <pt x="447" y="241" on="1"/>
        <pt x="404" y="237" on="1"/>
        <pt x="395" y="276" on="0"/>
        <pt x="380" y="307" on="0"/>
        <pt x="354" y="307" on="1"/>
        <pt x="239" y="307" on="1"/>
        <pt x="239" y="62" on="1"/>
        <pt x="439" y="62" on="1"/>
        <pt x="452" y="73" on="0"/>
        <pt x="487" y="154" on="0"/>
        <pt x="494" y="179" on="1"/>
        <pt x="540" y="171" on="1"/>
        <pt x="539" y="142" on="0"/>
        <pt x="525" y="21" on="0"/>
        <pt x="519" y="0" on="1"/>
        <pt x="170" y="0" on="1"/>
        <pt x="129" y="0" on="0"/>
        <pt x="43" y="-9" on="1"/>
        <pt x="35" y="30" on="1"/>
        <pt x="100" y="43" on="0"/>
        <pt x="108" y="60" on="1"/>
        <pt x="110" y="65" on="0"/>
        <pt x="110" y="79" on="1"/>
        <pt x="110" y="573" on="1"/>
        <pt x="110" y="596" on="0"/>
        <pt x="94" y="603" on="1"/>
        <pt x="75" y="612" on="0"/>
        <pt x="46" y="618" on="1"/>
        <pt x="35" y="621" on="1"/>
        <pt x="44" y="660" on="1"/>
        <pt x="140" y="650" on="0"/>
        <pt x="170" y="650" on="1"/>
        <pt x="416" y="650" on="1"/>
        <pt x="464" y="650" on="0"/>
      </contour>
      <contour>
        <pt x="241" y="847" on="1"/>
        <pt x="261" y="852" on="0"/>
        <pt x="328" y="852" on="0"/>
        <pt x="347" y="847" on="1"/>
        <pt x="359" y="839" on="0"/>
        <pt x="436" y="734" on="0"/>
        <pt x="445" y="719" on="1"/>
        <pt x="402" y="688" on="1"/>
        <pt x="294" y="777" on="1"/>
        <pt x="186" y="688" on="1"/>
        <pt x="142" y="719" on="1"/>
        <pt x="149" y="732" on="0"/>
        <pt x="229" y="838" on="0"/>
      </contour>
    </TTGlyph>
    <TTGlyph name="Edieresis" xMin="35" yMin="-9" xMax="540" yMax="821">
      <contour>
        <pt x="508" y="656" on="1"/>
        <pt x="510" y="569" on="1"/>
        <pt x="510" y="534" on="0"/>
        <pt x="507" y="499" on="1"/>
        <pt x="461" y="491" on="1"/>
        <pt x="447" y="568" on="0"/>
        <pt x="429" y="589" on="1"/>
        <pt x="239" y="589" on="1"/>
        <pt x="239" y="369" on="1"/>
        <pt x="354" y="369" on="1"/>
        <pt x="379" y="369" on="0"/>
        <pt x="387" y="384" on="1"/>
        <pt x="393" y="395" on="0"/>
        <pt x="402" y="430" on="1"/>
        <pt x="404" y="440" on="1"/>
        <pt x="447" y="435" on="1"/>
        <pt x="439" y="382" on="0"/>
        <pt x="439" y="291" on="0"/>
        <pt x="447" y="241" on="1"/>
        <pt x="404" y="237" on="1"/>
        <pt x="395" y="276" on="0"/>
        <pt x="380" y="307" on="0"/>
        <pt x="354" y="307" on="1"/>
        <pt x="239" y="307" on="1"/>
        <pt x="239" y="62" on="1"/>
        <pt x="439" y="62" on="1"/>
        <pt x="452" y="73" on="0"/>
        <pt x="487" y="154" on="0"/>
        <pt x="494" y="179" on="1"/>
        <pt x="540" y="171" on="1"/>
        <pt x="539" y="142" on="0"/>
        <pt x="525" y="21" on="0"/>
        <pt x="519" y="0" on="1"/>
        <pt x="170" y="0" on="1"/>
        <pt x="129" y="0" on="0"/>
        <pt x="43" y="-9" on="1"/>
        <pt x="35" y="30" on="1"/>
        <pt x="100" y="43" on="0"/>
        <pt x="108" y="60" on="1"/>
        <pt x="110" y="65" on="0"/>
        <pt x="110" y="79" on="1"/>
        <pt x="110" y="573" on="1"/>
        <pt x="110" y="596" on="0"/>
        <pt x="94" y="603" on="1"/>
        <pt x="75" y="612" on="0"/>
        <pt x="46" y="618" on="1"/>
        <pt x="35" y="621" on="1"/>
        <pt x="44" y="660" on="1"/>
        <pt x="140" y="650" on="0"/>
        <pt x="170" y="650" on="1"/>
        <pt x="416" y="650" on="1"/>
        <pt x="464" y="650" on="0"/>
      </contour>
      <contour>
        <pt x="107" y="724" on="0"/>
        <pt x="107" y="784" on="0"/>
        <pt x="148" y="821" on="0"/>
        <pt x="216" y="821" on="0"/>
        <pt x="258" y="784" on="0"/>
        <pt x="258" y="724" on="0"/>
        <pt x="216" y="687" on="0"/>
        <pt x="149" y="687" on="0"/>
      </contour>
      <contour>
        <pt x="330" y="724" on="0"/>
        <pt x="330" y="784" on="0"/>
        <pt x="371" y="821" on="0"/>
        <pt x="439" y="821" on="0"/>
        <pt x="481" y="784" on="0"/>
        <pt x="481" y="724" on="0"/>
        <pt x="439" y="687" on="0"/>
        <pt x="372" y="687" on="0"/>
      </contour>
    </TTGlyph>
    <TTGlyph name="Edot" xMin="45" yMin="-9" xMax="550" yMax="838">
      <contour>
        <pt x="518" y="656" on="1"/>
        <pt x="520" y="569" on="1"/>
        <pt x="520" y="534" on="0"/>
        <pt x="517" y="499" on="1"/>
        <pt x="471" y="491" on="1"/>
        <pt x="457" y="568" on="0"/>
        <pt x="439" y="589" on="1"/>
        <pt x="249" y="589" on="1"/>
        <pt x="249" y="369" on="1"/>
        <pt x="364" y="369" on="1"/>
        <pt x="389" y="369" on="0"/>
        <pt x="397" y="384" on="1"/>
        <pt x="403" y="395" on="0"/>
        <pt x="412" y="430" on="1"/>
        <pt x="414" y="440" on="1"/>
        <pt x="457" y="435" on="1"/>
        <pt x="449" y="382" on="0"/>
        <pt x="449" y="291" on="0"/>
        <pt x="457" y="241" on="1"/>
        <pt x="414" y="237" on="1"/>
        <pt x="405" y="276" on="0"/>
        <pt x="390" y="307" on="0"/>
        <pt x="364" y="307" on="1"/>
        <pt x="249" y="307" on="1"/>
        <pt x="249" y="62" on="1"/>
        <pt x="449" y="62" on="1"/>
        <pt x="462" y="73" on="0"/>
        <pt x="497" y="154" on="0"/>
        <pt x="504" y="179" on="1"/>
        <pt x="550" y="171" on="1"/>
        <pt x="549" y="142" on="0"/>
        <pt x="535" y="21" on="0"/>
        <pt x="529" y="0" on="1"/>
        <pt x="180" y="0" on="1"/>
        <pt x="139" y="0" on="0"/>
        <pt x="53" y="-9" on="1"/>
        <pt x="45" y="30" on="1"/>
        <pt x="110" y="43" on="0"/>
        <pt x="118" y="60" on="1"/>
        <pt x="120" y="65" on="0"/>
        <pt x="120" y="79" on="1"/>
        <pt x="120" y="573" on="1"/>
        <pt x="120" y="596" on="0"/>
        <pt x="104" y="603" on="1"/>
        <pt x="85" y="612" on="0"/>
        <pt x="56" y="618" on="1"/>
        <pt x="45" y="621" on="1"/>
        <pt x="54" y="660" on="1"/>
        <pt x="150" y="650" on="0"/>
        <pt x="180" y="650" on="1"/>
        <pt x="426" y="650" on="1"/>
        <pt x="474" y="650" on="0"/>
      </contour>
      <contour>
        <pt x="221" y="733" on="0"/>
        <pt x="221" y="797" on="0"/>
        <pt x="267" y="838" on="0"/>
        <pt x="341" y="838" on="0"/>
        <pt x="388" y="797" on="0"/>
        <pt x="388" y="733" on="0"/>
        <pt x="341" y="692" on="0"/>
        <pt x="267" y="692" on="0"/>
      </contour>
    </TTGlyph>
    <TTGlyph name="Egrave" xMin="35" yMin="-9" xMax="540" yMax="847">
      <contour>
        <pt x="508" y="656" on="1"/>
        <pt x="510" y="569" on="1"/>
        <pt x="510" y="534" on="0"/>
        <pt x="507" y="499" on="1"/>
        <pt x="461" y="491" on="1"/>
        <pt x="447" y="568" on="0"/>
        <pt x="429" y="589" on="1"/>
        <pt x="239" y="589" on="1"/>
        <pt x="239" y="369" on="1"/>
        <pt x="354" y="369" on="1"/>
        <pt x="379" y="369" on="0"/>
        <pt x="387" y="384" on="1"/>
        <pt x="393" y="395" on="0"/>
        <pt x="402" y="430" on="1"/>
        <pt x="404" y="440" on="1"/>
        <pt x="447" y="435" on="1"/>
        <pt x="439" y="382" on="0"/>
        <pt x="439" y="291" on="0"/>
        <pt x="447" y="241" on="1"/>
        <pt x="404" y="237" on="1"/>
        <pt x="395" y="276" on="0"/>
        <pt x="380" y="307" on="0"/>
        <pt x="354" y="307" on="1"/>
        <pt x="239" y="307" on="1"/>
        <pt x="239" y="62" on="1"/>
        <pt x="439" y="62" on="1"/>
        <pt x="452" y="73" on="0"/>
        <pt x="487" y="154" on="0"/>
        <pt x="494" y="179" on="1"/>
        <pt x="540" y="171" on="1"/>
        <pt x="539" y="142" on="0"/>
        <pt x="525" y="21" on="0"/>
        <pt x="519" y="0" on="1"/>
        <pt x="170" y="0" on="1"/>
        <pt x="129" y="0" on="0"/>
        <pt x="43" y="-9" on="1"/>
        <pt x="35" y="30" on="1"/>
        <pt x="100" y="43" on="0"/>
        <pt x="108" y="60" on="1"/>
        <pt x="110" y="65" on="0"/>
        <pt x="110" y="79" on="1"/>
        <pt x="110" y="573" on="1"/>
        <pt x="110" y="596" on="0"/>
        <pt x="94" y="603" on="1"/>
        <pt x="75" y="612" on="0"/>
        <pt x="46" y="618" on="1"/>
        <pt x="35" y="621" on="1"/>
        <pt x="44" y="660" on="1"/>
        <pt x="140" y="650" on="0"/>
        <pt x="170" y="650" on="1"/>
        <pt x="416" y="650" on="1"/>
        <pt x="464" y="650" on="0"/>
      </contour>
      <contour>
        <pt x="140" y="799" on="1"/>
        <pt x="145" y="828" on="1"/>
        <pt x="201" y="844" on="0"/>
        <pt x="249" y="847" on="1"/>
        <pt x="260" y="841" on="0"/>
        <pt x="354" y="736" on="0"/>
        <pt x="368" y="718" on="1"/>
        <pt x="330" y="680" on="1"/>
      </contour>
    </TTGlyph>
    <TTGlyph name="Emacron" xMin="45" yMin="-9" xMax="550" yMax="781">
      <contour>
        <pt x="518" y="656" on="1"/>
        <pt x="520" y="569" on="1"/>
        <pt x="520" y="534" on="0"/>
        <pt x="517" y="499" on="1"/>
        <pt x="471" y="491" on="1"/>
        <pt x="457" y="568" on="0"/>
        <pt x="439" y="589" on="1"/>
        <pt x="249" y="589" on="1"/>
        <pt x="249" y="369" on="1"/>
        <pt x="364" y="369" on="1"/>
        <pt x="389" y="369" on="0"/>
        <pt x="397" y="384" on="1"/>
        <pt x="403" y="395" on="0"/>
        <pt x="412" y="430" on="1"/>
        <pt x="414" y="440" on="1"/>
        <pt x="457" y="435" on="1"/>
        <pt x="449" y="382" on="0"/>
        <pt x="449" y="291" on="0"/>
        <pt x="457" y="241" on="1"/>
        <pt x="414" y="237" on="1"/>
        <pt x="405" y="276" on="0"/>
        <pt x="390" y="307" on="0"/>
        <pt x="364" y="307" on="1"/>
        <pt x="249" y="307" on="1"/>
        <pt x="249" y="62" on="1"/>
        <pt x="449" y="62" on="1"/>
        <pt x="462" y="73" on="0"/>
        <pt x="497" y="154" on="0"/>
        <pt x="504" y="179" on="1"/>
        <pt x="550" y="171" on="1"/>
        <pt x="549" y="142" on="0"/>
        <pt x="535" y="21" on="0"/>
        <pt x="529" y="0" on="1"/>
        <pt x="180" y="0" on="1"/>
        <pt x="139" y="0" on="0"/>
        <pt x="53" y="-9" on="1"/>
        <pt x="45" y="30" on="1"/>
        <pt x="110" y="43" on="0"/>
        <pt x="118" y="60" on="1"/>
        <pt x="120" y="65" on="0"/>
        <pt x="120" y="79" on="1"/>
        <pt x="120" y="573" on="1"/>
        <pt x="120" y="596" on="0"/>
        <pt x="104" y="603" on="1"/>
        <pt x="85" y="612" on="0"/>
        <pt x="56" y="618" on="1"/>
        <pt x="45" y="621" on="1"/>
        <pt x="54" y="660" on="1"/>
        <pt x="150" y="650" on="0"/>
        <pt x="180" y="650" on="1"/>
        <pt x="426" y="650" on="1"/>
        <pt x="474" y="650" on="0"/>
      </contour>
      <contour>
        <pt x="166" y="705" on="1"/>
        <pt x="180" y="781" on="1"/>
        <pt x="443" y="781" on="1"/>
        <pt x="429" y="705" on="1"/>
      </contour>
    </TTGlyph>
    <TTGlyph name="Eng" xMin="42" yMin="-260" xMax="735" yMax="660">
      <contour>
        <pt x="551" y="0" on="1"/>
        <pt x="551" y="28" on="0"/>
        <pt x="446" y="178" on="1"/>
        <pt x="246" y="464" on="1"/>
        <pt x="229" y="488" on="0"/>
        <pt x="215" y="518" on="1"/>
        <pt x="210" y="529" on="1"/>
        <pt x="205" y="525" on="1"/>
        <pt x="205" y="87" on="1"/>
        <pt x="205" y="72" on="0"/>
        <pt x="213" y="56" on="0"/>
        <pt x="227" y="52" on="1"/>
        <pt x="240" y="46" on="0"/>
        <pt x="291" y="36" on="1"/>
        <pt x="307" y="33" on="1"/>
        <pt x="299" y="-9" on="1"/>
        <pt x="230" y="0" on="0"/>
        <pt x="122" y="0" on="0"/>
        <pt x="50" y="-9" on="1"/>
        <pt x="42" y="30" on="1"/>
        <pt x="83" y="37" on="0"/>
        <pt x="104" y="48" on="1"/>
        <pt x="120" y="55" on="0"/>
        <pt x="120" y="79" on="1"/>
        <pt x="120" y="573" on="1"/>
        <pt x="120" y="595" on="0"/>
        <pt x="104" y="603" on="1"/>
        <pt x="45" y="621" on="1"/>
        <pt x="52" y="660" on="1"/>
        <pt x="107" y="650" on="0"/>
        <pt x="212" y="650" on="0"/>
        <pt x="268" y="660" on="1"/>
        <pt x="291" y="620" on="0"/>
        <pt x="330" y="563" on="1"/>
        <pt x="538" y="263" on="1"/>
        <pt x="553" y="240" on="0"/>
        <pt x="566" y="204" on="1"/>
        <pt x="570" y="192" on="1"/>
        <pt x="575" y="196" on="1"/>
        <pt x="575" y="570" on="1"/>
        <pt x="575" y="592" on="0"/>
        <pt x="558" y="600" on="1"/>
        <pt x="547" y="606" on="0"/>
        <pt x="504" y="616" on="1"/>
        <pt x="491" y="619" on="1"/>
        <pt x="498" y="660" on="1"/>
        <pt x="575" y="650" on="0"/>
        <pt x="660" y="650" on="0"/>
        <pt x="728" y="660" on="1"/>
        <pt x="735" y="621" on="1"/>
        <pt x="697" y="613" on="0"/>
        <pt x="660" y="594" on="0"/>
        <pt x="660" y="573" on="1"/>
        <pt x="660" y="50" on="1"/>
        <pt x="660" y="6" on="0"/>
        <pt x="656" y="-39" on="0"/>
        <pt x="638" y="-104" on="0"/>
        <pt x="593" y="-159" on="0"/>
        <pt x="555" y="-189" on="1"/>
        <pt x="464" y="-260" on="1"/>
        <pt x="434" y="-230" on="1"/>
        <pt x="551" y="-108" on="0"/>
      </contour>
    </TTGlyph>
    <TTGlyph name="Eogonek" xMin="45" yMin="-245" xMax="550" yMax="660">
      <contour>
        <pt x="518" y="656" on="1"/>
        <pt x="520" y="569" on="1"/>
        <pt x="520" y="534" on="0"/>
        <pt x="517" y="499" on="1"/>
        <pt x="471" y="491" on="1"/>
        <pt x="457" y="568" on="0"/>
        <pt x="439" y="589" on="1"/>
        <pt x="249" y="589" on="1"/>
        <pt x="249" y="369" on="1"/>
        <pt x="364" y="369" on="1"/>
        <pt x="389" y="369" on="0"/>
        <pt x="397" y="384" on="1"/>
        <pt x="403" y="395" on="0"/>
        <pt x="412" y="430" on="1"/>
        <pt x="414" y="440" on="1"/>
        <pt x="457" y="435" on="1"/>
        <pt x="449" y="382" on="0"/>
        <pt x="449" y="291" on="0"/>
        <pt x="457" y="241" on="1"/>
        <pt x="414" y="237" on="1"/>
        <pt x="405" y="276" on="0"/>
        <pt x="390" y="307" on="0"/>
        <pt x="364" y="307" on="1"/>
        <pt x="249" y="307" on="1"/>
        <pt x="249" y="62" on="1"/>
        <pt x="449" y="62" on="1"/>
        <pt x="462" y="73" on="0"/>
        <pt x="497" y="154" on="0"/>
        <pt x="504" y="179" on="1"/>
        <pt x="550" y="171" on="1"/>
        <pt x="549" y="142" on="0"/>
        <pt x="535" y="21" on="0"/>
        <pt x="529" y="0" on="1"/>
        <pt x="471" y="0" on="1"/>
        <pt x="393" y="-80" on="0"/>
        <pt x="393" y="-143" on="1"/>
        <pt x="393" y="-162" on="0"/>
        <pt x="413" y="-190" on="0"/>
        <pt x="461" y="-190" on="0"/>
        <pt x="492" y="-171" on="1"/>
        <pt x="512" y="-204" on="1"/>
        <pt x="454" y="-245" on="0"/>
        <pt x="357" y="-245" on="0"/>
        <pt x="303" y="-195" on="0"/>
        <pt x="303" y="-151" on="1"/>
        <pt x="303" y="-129" on="0"/>
        <pt x="319" y="-93" on="0"/>
        <pt x="342" y="-72" on="1"/>
        <pt x="370" y="-44" on="0"/>
        <pt x="430" y="0" on="1"/>
        <pt x="180" y="0" on="1"/>
        <pt x="139" y="0" on="0"/>
        <pt x="53" y="-9" on="1"/>
        <pt x="45" y="30" on="1"/>
        <pt x="110" y="43" on="0"/>
        <pt x="118" y="60" on="1"/>
        <pt x="120" y="65" on="0"/>
        <pt x="120" y="79" on="1"/>
        <pt x="120" y="573" on="1"/>
        <pt x="120" y="596" on="0"/>
        <pt x="104" y="603" on="1"/>
        <pt x="85" y="612" on="0"/>
        <pt x="56" y="618" on="1"/>
        <pt x="45" y="621" on="1"/>
        <pt x="54" y="660" on="1"/>
        <pt x="150" y="650" on="0"/>
        <pt x="180" y="650" on="1"/>
        <pt x="426" y="650" on="1"/>
        <pt x="474" y="650" on="0"/>
      </contour>
    </TTGlyph>
    <TTGlyph name="Eth" xMin="46" yMin="-9" xMax="733" yMax="660">
      <contour>
        <pt x="104" y="653" on="1"/>
        <pt x="344" y="660" on="1"/>
        <pt x="522" y="660" on="0"/>
        <pt x="624" y="590" on="1"/>
        <pt x="733" y="517" on="0"/>
        <pt x="733" y="189" on="0"/>
        <pt x="541" y="-8" on="0"/>
        <pt x="372" y="-8" on="1"/>
        <pt x="326" y="-8" on="0"/>
        <pt x="200" y="0" on="0"/>
        <pt x="150" y="0" on="0"/>
        <pt x="62" y="-9" on="1"/>
        <pt x="54" y="30" on="1"/>
        <pt x="91" y="38" on="0"/>
        <pt x="125" y="57" on="0"/>
        <pt x="125" y="79" on="1"/>
        <pt x="125" y="313" on="1"/>
        <pt x="46" y="313" on="1"/>
        <pt x="56" y="365" on="1"/>
        <pt x="125" y="365" on="1"/>
        <pt x="125" y="569" on="1"/>
        <pt x="125" y="581" on="0"/>
        <pt x="120" y="590" on="0"/>
        <pt x="110" y="596" on="1"/>
        <pt x="93" y="607" on="0"/>
        <pt x="63" y="614" on="1"/>
        <pt x="53" y="617" on="1"/>
        <pt x="61" y="654" on="1"/>
        <pt x="78" y="653" on="0"/>
      </contour>
      <contour>
        <pt x="254" y="98" on="1"/>
        <pt x="254" y="46" on="0"/>
        <pt x="475" y="46" on="0"/>
        <pt x="592" y="198" on="0"/>
        <pt x="592" y="469" on="0"/>
        <pt x="462" y="605" on="0"/>
        <pt x="325" y="605" on="1"/>
        <pt x="279" y="605" on="0"/>
        <pt x="254" y="596" on="1"/>
        <pt x="254" y="365" on="1"/>
        <pt x="407" y="365" on="1"/>
        <pt x="397" y="313" on="1"/>
        <pt x="254" y="313" on="1"/>
      </contour>
    </TTGlyph>
    <TTGlyph name="Euro" xMin="35" yMin="-16" xMax="622" yMax="610">
      <contour>
        <pt x="430" y="610" on="1"/>
        <pt x="481" y="610" on="0"/>
        <pt x="514" y="604" on="1"/>
        <pt x="553" y="597" on="0"/>
        <pt x="622" y="581" on="1"/>
        <pt x="614" y="480" on="0"/>
        <pt x="598" y="419" on="1"/>
        <pt x="548" y="410" on="1"/>
        <pt x="537" y="504" on="0"/>
        <pt x="517" y="533" on="1"/>
        <pt x="480" y="557" on="0"/>
        <pt x="349" y="557" on="0"/>
        <pt x="260" y="467" on="0"/>
        <pt x="245" y="386" on="1"/>
        <pt x="413" y="386" on="1"/>
        <pt x="403" y="334" on="1"/>
        <pt x="239" y="334" on="1"/>
        <pt x="238" y="323" on="0"/>
        <pt x="238" y="301" on="1"/>
        <pt x="238" y="281" on="1"/>
        <pt x="396" y="281" on="1"/>
        <pt x="386" y="229" on="1"/>
        <pt x="245" y="229" on="1"/>
        <pt x="262" y="145" on="0"/>
        <pt x="360" y="37" on="0"/>
        <pt x="492" y="37" on="0"/>
        <pt x="550" y="101" on="0"/>
        <pt x="568" y="179" on="1"/>
        <pt x="618" y="174" on="1"/>
        <pt x="617" y="113" on="0"/>
        <pt x="599" y="14" on="1"/>
        <pt x="509" y="-16" on="0"/>
        <pt x="422" y="-16" on="1"/>
        <pt x="292" y="-16" on="0"/>
        <pt x="117" y="116" on="0"/>
        <pt x="102" y="229" on="1"/>
        <pt x="35" y="229" on="1"/>
        <pt x="45" y="281" on="1"/>
        <pt x="99" y="281" on="1"/>
        <pt x="99" y="300" on="0"/>
        <pt x="103" y="334" on="1"/>
        <pt x="52" y="334" on="1"/>
        <pt x="62" y="386" on="1"/>
        <pt x="114" y="386" on="1"/>
        <pt x="145" y="489" on="0"/>
        <pt x="311" y="610" on="0"/>
      </contour>
    </TTGlyph>
    <TTGlyph name="F" xMin="48" yMin="-9" xMax="511" yMax="660">
      <contour>
        <pt x="355" y="302" on="1"/>
        <pt x="249" y="302" on="1"/>
        <pt x="249" y="87" on="1"/>
        <pt x="249" y="72" on="0"/>
        <pt x="257" y="57" on="0"/>
        <pt x="271" y="52" on="1"/>
        <pt x="351" y="33" on="1"/>
        <pt x="344" y="-9" on="1"/>
        <pt x="268" y="0" on="0"/>
        <pt x="127" y="0" on="0"/>
        <pt x="55" y="-9" on="1"/>
        <pt x="48" y="30" on="1"/>
        <pt x="86" y="38" on="0"/>
        <pt x="120" y="57" on="0"/>
        <pt x="120" y="79" on="1"/>
        <pt x="120" y="573" on="1"/>
        <pt x="120" y="598" on="0"/>
        <pt x="80" y="614" on="0"/>
        <pt x="48" y="621" on="1"/>
        <pt x="57" y="660" on="1"/>
        <pt x="139" y="650" on="0"/>
        <pt x="180" y="650" on="1"/>
        <pt x="421" y="650" on="1"/>
        <pt x="468" y="650" on="0"/>
        <pt x="508" y="656" on="1"/>
        <pt x="510" y="633" on="0"/>
        <pt x="510" y="553" on="0"/>
        <pt x="508" y="496" on="1"/>
        <pt x="462" y="488" on="1"/>
        <pt x="443" y="572" on="0"/>
        <pt x="428" y="588" on="1"/>
        <pt x="249" y="588" on="1"/>
        <pt x="249" y="364" on="1"/>
        <pt x="355" y="364" on="1"/>
        <pt x="382" y="364" on="0"/>
        <pt x="388" y="379" on="1"/>
        <pt x="400" y="436" on="1"/>
        <pt x="438" y="431" on="1"/>
        <pt x="430" y="378" on="0"/>
        <pt x="430" y="285" on="0"/>
        <pt x="438" y="235" on="1"/>
        <pt x="400" y="230" on="1"/>
        <pt x="394" y="272" on="0"/>
        <pt x="382" y="302" on="0"/>
      </contour>
    </TTGlyph>
    <TTGlyph name="G" xMin="40" yMin="-16" xMax="684" yMax="666">
      <contour>
        <pt x="401" y="666" on="1"/>
        <pt x="488" y="666" on="0"/>
        <pt x="632" y="634" on="1"/>
        <pt x="624" y="542" on="0"/>
        <pt x="606" y="468" on="1"/>
        <pt x="552" y="460" on="1"/>
        <pt x="541" y="552" on="0"/>
        <pt x="519" y="584" on="1"/>
        <pt x="478" y="610" on="0"/>
        <pt x="289" y="610" on="0"/>
        <pt x="181" y="458" on="0"/>
        <pt x="181" y="213" on="0"/>
        <pt x="304" y="40" on="0"/>
        <pt x="403" y="40" on="1"/>
        <pt x="460" y="40" on="0"/>
        <pt x="497" y="66" on="1"/>
        <pt x="497" y="192" on="1"/>
        <pt x="497" y="219" on="0"/>
        <pt x="475" y="227" on="1"/>
        <pt x="402" y="246" on="1"/>
        <pt x="411" y="288" on="1"/>
        <pt x="505" y="279" on="0"/>
        <pt x="632" y="279" on="0"/>
        <pt x="677" y="288" on="1"/>
        <pt x="684" y="249" on="1"/>
        <pt x="656" y="240" on="0"/>
        <pt x="626" y="221" on="0"/>
        <pt x="626" y="200" on="1"/>
        <pt x="626" y="19" on="1"/>
        <pt x="528" y="-16" on="0"/>
        <pt x="393" y="-16" on="1"/>
        <pt x="237" y="-16" on="0"/>
        <pt x="40" y="155" on="0"/>
        <pt x="40" y="299" on="1"/>
        <pt x="40" y="461" on="0"/>
        <pt x="237" y="666" on="0"/>
      </contour>
    </TTGlyph>
    <TTGlyph name="Gbreve" xMin="40" yMin="-16" xMax="684" yMax="845">
      <contour>
        <pt x="401" y="666" on="1"/>
        <pt x="488" y="666" on="0"/>
        <pt x="632" y="634" on="1"/>
        <pt x="624" y="542" on="0"/>
        <pt x="606" y="468" on="1"/>
        <pt x="552" y="460" on="1"/>
        <pt x="541" y="552" on="0"/>
        <pt x="519" y="584" on="1"/>
        <pt x="478" y="610" on="0"/>
        <pt x="289" y="610" on="0"/>
        <pt x="181" y="458" on="0"/>
        <pt x="181" y="213" on="0"/>
        <pt x="304" y="40" on="0"/>
        <pt x="403" y="40" on="1"/>
        <pt x="460" y="40" on="0"/>
        <pt x="497" y="66" on="1"/>
        <pt x="497" y="192" on="1"/>
        <pt x="497" y="219" on="0"/>
        <pt x="475" y="227" on="1"/>
        <pt x="402" y="246" on="1"/>
        <pt x="411" y="288" on="1"/>
        <pt x="505" y="279" on="0"/>
        <pt x="632" y="279" on="0"/>
        <pt x="677" y="288" on="1"/>
        <pt x="684" y="249" on="1"/>
        <pt x="656" y="240" on="0"/>
        <pt x="626" y="221" on="0"/>
        <pt x="626" y="200" on="1"/>
        <pt x="626" y="19" on="1"/>
        <pt x="528" y="-16" on="0"/>
        <pt x="393" y="-16" on="1"/>
        <pt x="237" y="-16" on="0"/>
        <pt x="40" y="155" on="0"/>
        <pt x="40" y="299" on="1"/>
        <pt x="40" y="461" on="0"/>
        <pt x="237" y="666" on="0"/>
      </contour>
      <contour>
        <pt x="539" y="773" on="0"/>
        <pt x="465" y="692" on="0"/>
        <pt x="344" y="692" on="0"/>
        <pt x="275" y="771" on="0"/>
        <pt x="275" y="835" on="1"/>
        <pt x="309" y="845" on="1"/>
        <pt x="324" y="779" on="0"/>
        <pt x="490" y="779" on="0"/>
        <pt x="505" y="845" on="1"/>
        <pt x="539" y="835" on="1"/>
      </contour>
    </TTGlyph>
    <TTGlyph name="Gcircumflex" xMin="40" yMin="-16" xMax="684" yMax="852">
      <contour>
        <pt x="401" y="666" on="1"/>
        <pt x="488" y="666" on="0"/>
        <pt x="632" y="634" on="1"/>
        <pt x="624" y="542" on="0"/>
        <pt x="606" y="468" on="1"/>
        <pt x="552" y="460" on="1"/>
        <pt x="541" y="552" on="0"/>
        <pt x="519" y="584" on="1"/>
        <pt x="478" y="610" on="0"/>
        <pt x="289" y="610" on="0"/>
        <pt x="181" y="458" on="0"/>
        <pt x="181" y="213" on="0"/>
        <pt x="304" y="40" on="0"/>
        <pt x="403" y="40" on="1"/>
        <pt x="460" y="40" on="0"/>
        <pt x="497" y="66" on="1"/>
        <pt x="497" y="192" on="1"/>
        <pt x="497" y="219" on="0"/>
        <pt x="475" y="227" on="1"/>
        <pt x="402" y="246" on="1"/>
        <pt x="411" y="288" on="1"/>
        <pt x="505" y="279" on="0"/>
        <pt x="632" y="279" on="0"/>
        <pt x="677" y="288" on="1"/>
        <pt x="684" y="249" on="1"/>
        <pt x="656" y="240" on="0"/>
        <pt x="626" y="221" on="0"/>
        <pt x="626" y="200" on="1"/>
        <pt x="626" y="19" on="1"/>
        <pt x="528" y="-16" on="0"/>
        <pt x="393" y="-16" on="1"/>
        <pt x="237" y="-16" on="0"/>
        <pt x="40" y="155" on="0"/>
        <pt x="40" y="299" on="1"/>
        <pt x="40" y="461" on="0"/>
        <pt x="237" y="666" on="0"/>
      </contour>
      <contour>
        <pt x="348" y="847" on="1"/>
        <pt x="368" y="852" on="0"/>
        <pt x="435" y="852" on="0"/>
        <pt x="454" y="847" on="1"/>
        <pt x="466" y="839" on="0"/>
        <pt x="543" y="734" on="0"/>
        <pt x="552" y="719" on="1"/>
        <pt x="509" y="688" on="1"/>
        <pt x="401" y="777" on="1"/>
        <pt x="293" y="688" on="1"/>
        <pt x="249" y="719" on="1"/>
        <pt x="256" y="732" on="0"/>
        <pt x="336" y="838" on="0"/>
      </contour>
    </TTGlyph>
    <TTGlyph name="Gcommaaccent" xMin="40" yMin="-270" xMax="684" yMax="666">
      <contour>
        <pt x="401" y="666" on="1"/>
        <pt x="488" y="666" on="0"/>
        <pt x="632" y="634" on="1"/>
        <pt x="624" y="542" on="0"/>
        <pt x="606" y="468" on="1"/>
        <pt x="552" y="460" on="1"/>
        <pt x="541" y="552" on="0"/>
        <pt x="519" y="584" on="1"/>
        <pt x="478" y="610" on="0"/>
        <pt x="289" y="610" on="0"/>
        <pt x="181" y="458" on="0"/>
        <pt x="181" y="213" on="0"/>
        <pt x="304" y="40" on="0"/>
        <pt x="403" y="40" on="1"/>
        <pt x="460" y="40" on="0"/>
        <pt x="497" y="66" on="1"/>
        <pt x="497" y="192" on="1"/>
        <pt x="497" y="219" on="0"/>
        <pt x="475" y="227" on="1"/>
        <pt x="402" y="246" on="1"/>
        <pt x="411" y="288" on="1"/>
        <pt x="505" y="279" on="0"/>
        <pt x="632" y="279" on="0"/>
        <pt x="677" y="288" on="1"/>
        <pt x="684" y="249" on="1"/>
        <pt x="656" y="240" on="0"/>
        <pt x="626" y="221" on="0"/>
        <pt x="626" y="200" on="1"/>
        <pt x="626" y="19" on="1"/>
        <pt x="528" y="-16" on="0"/>
        <pt x="393" y="-16" on="1"/>
        <pt x="237" y="-16" on="0"/>
        <pt x="40" y="155" on="0"/>
        <pt x="40" y="299" on="1"/>
        <pt x="40" y="461" on="0"/>
        <pt x="237" y="666" on="0"/>
      </contour>
      <contour>
        <pt x="414" y="-38" on="0"/>
        <pt x="477" y="-81" on="0"/>
        <pt x="477" y="-144" on="0"/>
        <pt x="394" y="-241" on="0"/>
        <pt x="353" y="-270" on="1"/>
        <pt x="324" y="-246" on="1"/>
        <pt x="342" y="-227" on="0"/>
        <pt x="376" y="-171" on="0"/>
        <pt x="376" y="-132" on="0"/>
        <pt x="325" y="-127" on="1"/>
        <pt x="316" y="-108" on="1"/>
        <pt x="327" y="-91" on="0"/>
        <pt x="366" y="-46" on="0"/>
        <pt x="380" y="-36" on="1"/>
      </contour>
    </TTGlyph>
    <TTGlyph name="Gdot" xMin="40" yMin="-16" xMax="684" yMax="838">
      <contour>
        <pt x="401" y="666" on="1"/>
        <pt x="488" y="666" on="0"/>
        <pt x="632" y="634" on="1"/>
        <pt x="624" y="542" on="0"/>
        <pt x="606" y="468" on="1"/>
        <pt x="552" y="460" on="1"/>
        <pt x="541" y="552" on="0"/>
        <pt x="519" y="584" on="1"/>
        <pt x="478" y="610" on="0"/>
        <pt x="289" y="610" on="0"/>
        <pt x="181" y="458" on="0"/>
        <pt x="181" y="213" on="0"/>
        <pt x="304" y="40" on="0"/>
        <pt x="403" y="40" on="1"/>
        <pt x="460" y="40" on="0"/>
        <pt x="497" y="66" on="1"/>
        <pt x="497" y="192" on="1"/>
        <pt x="497" y="219" on="0"/>
        <pt x="475" y="227" on="1"/>
        <pt x="402" y="246" on="1"/>
        <pt x="411" y="288" on="1"/>
        <pt x="505" y="279" on="0"/>
        <pt x="632" y="279" on="0"/>
        <pt x="677" y="288" on="1"/>
        <pt x="684" y="249" on="1"/>
        <pt x="656" y="240" on="0"/>
        <pt x="626" y="221" on="0"/>
        <pt x="626" y="200" on="1"/>
        <pt x="626" y="19" on="1"/>
        <pt x="528" y="-16" on="0"/>
        <pt x="393" y="-16" on="1"/>
        <pt x="237" y="-16" on="0"/>
        <pt x="40" y="155" on="0"/>
        <pt x="40" y="299" on="1"/>
        <pt x="40" y="461" on="0"/>
        <pt x="237" y="666" on="0"/>
      </contour>
      <contour>
        <pt x="318" y="733" on="0"/>
        <pt x="318" y="797" on="0"/>
        <pt x="364" y="838" on="0"/>
        <pt x="438" y="838" on="0"/>
        <pt x="485" y="797" on="0"/>
        <pt x="485" y="733" on="0"/>
        <pt x="438" y="692" on="0"/>
        <pt x="364" y="692" on="0"/>
      </contour>
    </TTGlyph>
    <TTGlyph name="H" xMin="48" yMin="-9" xMax="767" yMax="659">
      <contour>
        <pt x="566" y="373" on="1"/>
        <pt x="566" y="570" on="1"/>
        <pt x="566" y="584" on="0"/>
        <pt x="561" y="596" on="0"/>
        <pt x="552" y="600" on="1"/>
        <pt x="533" y="609" on="0"/>
        <pt x="498" y="614" on="1"/>
        <pt x="485" y="615" on="1"/>
        <pt x="494" y="659" on="1"/>
        <pt x="568" y="650" on="0"/>
        <pt x="692" y="650" on="0"/>
        <pt x="759" y="659" on="1"/>
        <pt x="767" y="620" on="1"/>
        <pt x="729" y="612" on="0"/>
        <pt x="695" y="593" on="0"/>
        <pt x="695" y="572" on="1"/>
        <pt x="695" y="78" on="1"/>
        <pt x="695" y="57" on="0"/>
        <pt x="707" y="50" on="1"/>
        <pt x="726" y="40" on="0"/>
        <pt x="757" y="32" on="1"/>
        <pt x="767" y="30" on="1"/>
        <pt x="759" y="-9" on="1"/>
        <pt x="692" y="0" on="0"/>
        <pt x="568" y="0" on="0"/>
        <pt x="493" y="-9" on="1"/>
        <pt x="485" y="35" on="1"/>
        <pt x="557" y="44" on="0"/>
        <pt x="564" y="60" on="1"/>
        <pt x="566" y="66" on="0"/>
        <pt x="566" y="80" on="1"/>
        <pt x="566" y="305" on="1"/>
        <pt x="249" y="305" on="1"/>
        <pt x="249" y="80" on="1"/>
        <pt x="249" y="66" on="0"/>
        <pt x="254" y="54" on="0"/>
        <pt x="264" y="50" on="1"/>
        <pt x="281" y="41" on="0"/>
        <pt x="318" y="36" on="1"/>
        <pt x="330" y="35" on="1"/>
        <pt x="322" y="-9" on="1"/>
        <pt x="247" y="0" on="0"/>
        <pt x="124" y="0" on="0"/>
        <pt x="56" y="-9" on="1"/>
        <pt x="48" y="30" on="1"/>
        <pt x="86" y="38" on="0"/>
        <pt x="120" y="57" on="0"/>
        <pt x="120" y="78" on="1"/>
        <pt x="120" y="572" on="1"/>
        <pt x="120" y="593" on="0"/>
        <pt x="108" y="600" on="1"/>
        <pt x="89" y="610" on="0"/>
        <pt x="58" y="618" on="1"/>
        <pt x="48" y="620" on="1"/>
        <pt x="57" y="659" on="1"/>
        <pt x="123" y="650" on="0"/>
        <pt x="248" y="650" on="0"/>
        <pt x="321" y="659" on="1"/>
        <pt x="330" y="615" on="1"/>
        <pt x="283" y="609" on="0"/>
        <pt x="249" y="594" on="0"/>
        <pt x="249" y="572" on="1"/>
        <pt x="249" y="373" on="1"/>
      </contour>
    </TTGlyph>
    <TTGlyph name="Hbar" xMin="36" yMin="-9" xMax="779" yMax="659">
      <contour>
        <pt x="120" y="530" on="1"/>
        <pt x="120" y="572" on="1"/>
        <pt x="120" y="593" on="0"/>
        <pt x="108" y="600" on="1"/>
        <pt x="89" y="610" on="0"/>
        <pt x="58" y="618" on="1"/>
        <pt x="48" y="620" on="1"/>
        <pt x="57" y="659" on="1"/>
        <pt x="123" y="650" on="0"/>
        <pt x="248" y="650" on="0"/>
        <pt x="321" y="659" on="1"/>
        <pt x="330" y="615" on="1"/>
        <pt x="283" y="609" on="0"/>
        <pt x="249" y="594" on="0"/>
        <pt x="249" y="572" on="1"/>
        <pt x="249" y="530" on="1"/>
        <pt x="566" y="530" on="1"/>
        <pt x="566" y="570" on="1"/>
        <pt x="566" y="584" on="0"/>
        <pt x="561" y="596" on="0"/>
        <pt x="552" y="600" on="1"/>
        <pt x="533" y="609" on="0"/>
        <pt x="498" y="614" on="1"/>
        <pt x="485" y="615" on="1"/>
        <pt x="494" y="659" on="1"/>
        <pt x="568" y="650" on="0"/>
        <pt x="692" y="650" on="0"/>
        <pt x="759" y="659" on="1"/>
        <pt x="767" y="620" on="1"/>
        <pt x="729" y="612" on="0"/>
        <pt x="695" y="593" on="0"/>
        <pt x="695" y="572" on="1"/>
        <pt x="695" y="530" on="1"/>
        <pt x="779" y="530" on="1"/>
        <pt x="769" y="478" on="1"/>
        <pt x="695" y="478" on="1"/>
        <pt x="695" y="78" on="1"/>
        <pt x="695" y="57" on="0"/>
        <pt x="707" y="50" on="1"/>
        <pt x="726" y="40" on="0"/>
        <pt x="757" y="32" on="1"/>
        <pt x="767" y="30" on="1"/>
        <pt x="759" y="-9" on="1"/>
        <pt x="692" y="0" on="0"/>
        <pt x="568" y="0" on="0"/>
        <pt x="493" y="-9" on="1"/>
        <pt x="485" y="35" on="1"/>
        <pt x="557" y="44" on="0"/>
        <pt x="564" y="60" on="1"/>
        <pt x="566" y="66" on="0"/>
        <pt x="566" y="80" on="1"/>
        <pt x="566" y="305" on="1"/>
        <pt x="249" y="305" on="1"/>
        <pt x="249" y="80" on="1"/>
        <pt x="249" y="66" on="0"/>
        <pt x="254" y="54" on="0"/>
        <pt x="264" y="50" on="1"/>
        <pt x="281" y="41" on="0"/>
        <pt x="318" y="36" on="1"/>
        <pt x="330" y="35" on="1"/>
        <pt x="322" y="-9" on="1"/>
        <pt x="247" y="0" on="0"/>
        <pt x="124" y="0" on="0"/>
        <pt x="56" y="-9" on="1"/>
        <pt x="48" y="30" on="1"/>
        <pt x="86" y="38" on="0"/>
        <pt x="120" y="57" on="0"/>
        <pt x="120" y="78" on="1"/>
        <pt x="120" y="478" on="1"/>
        <pt x="36" y="478" on="1"/>
        <pt x="46" y="530" on="1"/>
      </contour>
      <contour>
        <pt x="566" y="373" on="1"/>
        <pt x="566" y="478" on="1"/>
        <pt x="249" y="478" on="1"/>
        <pt x="249" y="373" on="1"/>
      </contour>
    </TTGlyph>
    <TTGlyph name="Hcircumflex" xMin="48" yMin="-9" xMax="767" yMax="852">
      <contour>
        <pt x="566" y="373" on="1"/>
        <pt x="566" y="570" on="1"/>
        <pt x="566" y="584" on="0"/>
        <pt x="561" y="596" on="0"/>
        <pt x="552" y="600" on="1"/>
        <pt x="533" y="609" on="0"/>
        <pt x="498" y="614" on="1"/>
        <pt x="485" y="615" on="1"/>
        <pt x="494" y="659" on="1"/>
        <pt x="568" y="650" on="0"/>
        <pt x="692" y="650" on="0"/>
        <pt x="759" y="659" on="1"/>
        <pt x="767" y="620" on="1"/>
        <pt x="729" y="612" on="0"/>
        <pt x="695" y="593" on="0"/>
        <pt x="695" y="572" on="1"/>
        <pt x="695" y="78" on="1"/>
        <pt x="695" y="57" on="0"/>
        <pt x="707" y="50" on="1"/>
        <pt x="726" y="40" on="0"/>
        <pt x="757" y="32" on="1"/>
        <pt x="767" y="30" on="1"/>
        <pt x="759" y="-9" on="1"/>
        <pt x="692" y="0" on="0"/>
        <pt x="568" y="0" on="0"/>
        <pt x="493" y="-9" on="1"/>
        <pt x="485" y="35" on="1"/>
        <pt x="557" y="44" on="0"/>
        <pt x="564" y="60" on="1"/>
        <pt x="566" y="66" on="0"/>
        <pt x="566" y="80" on="1"/>
        <pt x="566" y="305" on="1"/>
        <pt x="249" y="305" on="1"/>
        <pt x="249" y="80" on="1"/>
        <pt x="249" y="66" on="0"/>
        <pt x="254" y="54" on="0"/>
        <pt x="264" y="50" on="1"/>
        <pt x="281" y="41" on="0"/>
        <pt x="318" y="36" on="1"/>
        <pt x="330" y="35" on="1"/>
        <pt x="322" y="-9" on="1"/>
        <pt x="247" y="0" on="0"/>
        <pt x="124" y="0" on="0"/>
        <pt x="56" y="-9" on="1"/>
        <pt x="48" y="30" on="1"/>
        <pt x="86" y="38" on="0"/>
        <pt x="120" y="57" on="0"/>
        <pt x="120" y="78" on="1"/>
        <pt x="120" y="572" on="1"/>
        <pt x="120" y="593" on="0"/>
        <pt x="108" y="600" on="1"/>
        <pt x="89" y="610" on="0"/>
        <pt x="58" y="618" on="1"/>
        <pt x="48" y="620" on="1"/>
        <pt x="57" y="659" on="1"/>
        <pt x="123" y="650" on="0"/>
        <pt x="248" y="650" on="0"/>
        <pt x="321" y="659" on="1"/>
        <pt x="330" y="615" on="1"/>
        <pt x="283" y="609" on="0"/>
        <pt x="249" y="594" on="0"/>
        <pt x="249" y="572" on="1"/>
        <pt x="249" y="373" on="1"/>
      </contour>
      <contour>
        <pt x="354" y="847" on="1"/>
        <pt x="374" y="852" on="0"/>
        <pt x="441" y="852" on="0"/>
        <pt x="460" y="847" on="1"/>
        <pt x="472" y="839" on="0"/>
        <pt x="549" y="734" on="0"/>
        <pt x="558" y="719" on="1"/>
        <pt x="515" y="688" on="1"/>
        <pt x="407" y="777" on="1"/>
        <pt x="299" y="688" on="1"/>
        <pt x="255" y="719" on="1"/>
        <pt x="262" y="732" on="0"/>
        <pt x="342" y="838" on="0"/>
      </contour>
    </TTGlyph>
    <TTGlyph name="I" xMin="48" yMin="-9" xMax="323" yMax="659">
      <contour>
        <pt x="249" y="572" on="1"/>
        <pt x="249" y="78" on="1"/>
        <pt x="249" y="65" on="0"/>
        <pt x="254" y="54" on="0"/>
        <pt x="264" y="49" on="1"/>
        <pt x="280" y="40" on="0"/>
        <pt x="312" y="32" on="1"/>
        <pt x="323" y="30" on="1"/>
        <pt x="316" y="-9" on="1"/>
        <pt x="247" y="0" on="0"/>
        <pt x="124" y="0" on="0"/>
        <pt x="55" y="-9" on="1"/>
        <pt x="48" y="30" on="1"/>
        <pt x="110" y="43" on="0"/>
        <pt x="118" y="60" on="1"/>
        <pt x="120" y="65" on="0"/>
        <pt x="120" y="78" on="1"/>
        <pt x="120" y="572" on="1"/>
        <pt x="120" y="585" on="0"/>
        <pt x="115" y="596" on="0"/>
        <pt x="106" y="601" on="1"/>
        <pt x="89" y="610" on="0"/>
        <pt x="58" y="618" on="1"/>
        <pt x="48" y="620" on="1"/>
        <pt x="55" y="659" on="1"/>
        <pt x="124" y="650" on="0"/>
        <pt x="247" y="650" on="0"/>
        <pt x="316" y="659" on="1"/>
        <pt x="323" y="620" on="1"/>
        <pt x="259" y="608" on="0"/>
        <pt x="252" y="590" on="1"/>
        <pt x="249" y="585" on="0"/>
      </contour>
    </TTGlyph>
    <TTGlyph name="IJ" xMin="48" yMin="-260" xMax="654" yMax="659">
      <contour>
        <pt x="249" y="572" on="1"/>
        <pt x="249" y="78" on="1"/>
        <pt x="249" y="65" on="0"/>
        <pt x="254" y="54" on="0"/>
        <pt x="264" y="49" on="1"/>
        <pt x="280" y="40" on="0"/>
        <pt x="312" y="32" on="1"/>
        <pt x="323" y="30" on="1"/>
        <pt x="316" y="-9" on="1"/>
        <pt x="247" y="0" on="0"/>
        <pt x="124" y="0" on="0"/>
        <pt x="55" y="-9" on="1"/>
        <pt x="48" y="30" on="1"/>
        <pt x="110" y="43" on="0"/>
        <pt x="118" y="60" on="1"/>
        <pt x="120" y="65" on="0"/>
        <pt x="120" y="78" on="1"/>
        <pt x="120" y="572" on="1"/>
        <pt x="120" y="585" on="0"/>
        <pt x="115" y="596" on="0"/>
        <pt x="106" y="601" on="1"/>
        <pt x="89" y="610" on="0"/>
        <pt x="58" y="618" on="1"/>
        <pt x="48" y="620" on="1"/>
        <pt x="55" y="659" on="1"/>
        <pt x="124" y="650" on="0"/>
        <pt x="247" y="650" on="0"/>
        <pt x="316" y="659" on="1"/>
        <pt x="323" y="620" on="1"/>
        <pt x="259" y="608" on="0"/>
        <pt x="252" y="590" on="1"/>
        <pt x="249" y="585" on="0"/>
      </contour>
      <contour>
        <pt x="451" y="0" on="1"/>
        <pt x="451" y="572" on="1"/>
        <pt x="451" y="585" on="0"/>
        <pt x="446" y="596" on="0"/>
        <pt x="436" y="601" on="1"/>
        <pt x="420" y="610" on="0"/>
        <pt x="389" y="618" on="1"/>
        <pt x="379" y="620" on="1"/>
        <pt x="386" y="659" on="1"/>
        <pt x="455" y="650" on="0"/>
        <pt x="578" y="650" on="0"/>
        <pt x="647" y="659" on="1"/>
        <pt x="654" y="620" on="1"/>
        <pt x="590" y="608" on="0"/>
        <pt x="582" y="590" on="1"/>
        <pt x="580" y="585" on="0"/>
        <pt x="580" y="572" on="1"/>
        <pt x="580" y="50" on="1"/>
        <pt x="580" y="7" on="0"/>
        <pt x="576" y="-38" on="0"/>
        <pt x="555" y="-103" on="0"/>
        <pt x="506" y="-158" on="0"/>
        <pt x="465" y="-189" on="1"/>
        <pt x="369" y="-260" on="1"/>
        <pt x="339" y="-230" on="1"/>
        <pt x="451" y="-109" on="0"/>
      </contour>
    </TTGlyph>
    <TTGlyph name="Iacute" xMin="33" yMin="-9" xMax="311" yMax="847">
      <contour>
        <pt x="234" y="572" on="1"/>
        <pt x="234" y="78" on="1"/>
        <pt x="234" y="65" on="0"/>
        <pt x="239" y="54" on="0"/>
        <pt x="248" y="49" on="1"/>
        <pt x="265" y="40" on="0"/>
        <pt x="298" y="32" on="1"/>
        <pt x="308" y="30" on="1"/>
        <pt x="301" y="-9" on="1"/>
        <pt x="232" y="0" on="0"/>
        <pt x="109" y="0" on="0"/>
        <pt x="40" y="-9" on="1"/>
        <pt x="33" y="30" on="1"/>
        <pt x="95" y="43" on="0"/>
        <pt x="102" y="60" on="1"/>
        <pt x="105" y="65" on="0"/>
        <pt x="105" y="78" on="1"/>
        <pt x="105" y="572" on="1"/>
        <pt x="105" y="585" on="0"/>
        <pt x="100" y="596" on="0"/>
        <pt x="90" y="601" on="1"/>
        <pt x="74" y="610" on="0"/>
        <pt x="43" y="618" on="1"/>
        <pt x="33" y="620" on="1"/>
        <pt x="40" y="659" on="1"/>
        <pt x="109" y="650" on="0"/>
        <pt x="232" y="650" on="0"/>
        <pt x="301" y="659" on="1"/>
        <pt x="308" y="620" on="1"/>
        <pt x="244" y="608" on="0"/>
        <pt x="236" y="590" on="1"/>
        <pt x="234" y="585" on="0"/>
      </contour>
      <contour>
        <pt x="306" y="828" on="1"/>
        <pt x="311" y="799" on="1"/>
        <pt x="121" y="680" on="1"/>
        <pt x="83" y="718" on="1"/>
        <pt x="97" y="736" on="0"/>
        <pt x="191" y="841" on="0"/>
        <pt x="202" y="847" on="1"/>
        <pt x="250" y="844" on="0"/>
      </contour>
    </TTGlyph>
    <TTGlyph name="Ibreve" xMin="48" yMin="-9" xMax="324" yMax="845">
      <contour>
        <pt x="249" y="572" on="1"/>
        <pt x="249" y="78" on="1"/>
        <pt x="249" y="65" on="0"/>
        <pt x="254" y="54" on="0"/>
        <pt x="264" y="49" on="1"/>
        <pt x="280" y="40" on="0"/>
        <pt x="312" y="32" on="1"/>
        <pt x="323" y="30" on="1"/>
        <pt x="316" y="-9" on="1"/>
        <pt x="247" y="0" on="0"/>
        <pt x="124" y="0" on="0"/>
        <pt x="55" y="-9" on="1"/>
        <pt x="48" y="30" on="1"/>
        <pt x="110" y="43" on="0"/>
        <pt x="118" y="60" on="1"/>
        <pt x="120" y="65" on="0"/>
        <pt x="120" y="78" on="1"/>
        <pt x="120" y="572" on="1"/>
        <pt x="120" y="585" on="0"/>
        <pt x="115" y="596" on="0"/>
        <pt x="106" y="601" on="1"/>
        <pt x="89" y="610" on="0"/>
        <pt x="58" y="618" on="1"/>
        <pt x="48" y="620" on="1"/>
        <pt x="55" y="659" on="1"/>
        <pt x="124" y="650" on="0"/>
        <pt x="247" y="650" on="0"/>
        <pt x="316" y="659" on="1"/>
        <pt x="323" y="620" on="1"/>
        <pt x="259" y="608" on="0"/>
        <pt x="252" y="590" on="1"/>
        <pt x="249" y="585" on="0"/>
      </contour>
      <contour>
        <pt x="324" y="773" on="0"/>
        <pt x="250" y="692" on="0"/>
        <pt x="129" y="692" on="0"/>
        <pt x="60" y="771" on="0"/>
        <pt x="60" y="835" on="1"/>
        <pt x="94" y="845" on="1"/>
        <pt x="109" y="779" on="0"/>
        <pt x="275" y="779" on="0"/>
        <pt x="290" y="845" on="1"/>
        <pt x="324" y="835" on="1"/>
      </contour>
    </TTGlyph>
    <TTGlyph name="Icircumflex" xMin="19" yMin="-9" xMax="322" yMax="852">
      <contour>
        <pt x="234" y="572" on="1"/>
        <pt x="234" y="78" on="1"/>
        <pt x="234" y="65" on="0"/>
        <pt x="239" y="54" on="0"/>
        <pt x="248" y="49" on="1"/>
        <pt x="265" y="40" on="0"/>
        <pt x="298" y="32" on="1"/>
        <pt x="308" y="30" on="1"/>
        <pt x="301" y="-9" on="1"/>
        <pt x="232" y="0" on="0"/>
        <pt x="109" y="0" on="0"/>
        <pt x="40" y="-9" on="1"/>
        <pt x="33" y="30" on="1"/>
        <pt x="95" y="43" on="0"/>
        <pt x="102" y="60" on="1"/>
        <pt x="105" y="65" on="0"/>
        <pt x="105" y="78" on="1"/>
        <pt x="105" y="572" on="1"/>
        <pt x="105" y="585" on="0"/>
        <pt x="100" y="596" on="0"/>
        <pt x="90" y="601" on="1"/>
        <pt x="74" y="610" on="0"/>
        <pt x="43" y="618" on="1"/>
        <pt x="33" y="620" on="1"/>
        <pt x="40" y="659" on="1"/>
        <pt x="109" y="650" on="0"/>
        <pt x="232" y="650" on="0"/>
        <pt x="301" y="659" on="1"/>
        <pt x="308" y="620" on="1"/>
        <pt x="244" y="608" on="0"/>
        <pt x="236" y="590" on="1"/>
        <pt x="234" y="585" on="0"/>
      </contour>
      <contour>
        <pt x="118" y="847" on="1"/>
        <pt x="138" y="852" on="0"/>
        <pt x="205" y="852" on="0"/>
        <pt x="224" y="847" on="1"/>
        <pt x="236" y="839" on="0"/>
        <pt x="313" y="734" on="0"/>
        <pt x="322" y="719" on="1"/>
        <pt x="279" y="688" on="1"/>
        <pt x="171" y="777" on="1"/>
        <pt x="63" y="688" on="1"/>
        <pt x="19" y="719" on="1"/>
        <pt x="26" y="732" on="0"/>
        <pt x="106" y="838" on="0"/>
      </contour>
    </TTGlyph>
    <TTGlyph name="Idieresis" xMin="-16" yMin="-9" xMax="358" yMax="821">
      <contour>
        <pt x="234" y="572" on="1"/>
        <pt x="234" y="78" on="1"/>
        <pt x="234" y="65" on="0"/>
        <pt x="239" y="54" on="0"/>
        <pt x="248" y="49" on="1"/>
        <pt x="265" y="40" on="0"/>
        <pt x="298" y="32" on="1"/>
        <pt x="308" y="30" on="1"/>
        <pt x="301" y="-9" on="1"/>
        <pt x="232" y="0" on="0"/>
        <pt x="109" y="0" on="0"/>
        <pt x="40" y="-9" on="1"/>
        <pt x="33" y="30" on="1"/>
        <pt x="95" y="43" on="0"/>
        <pt x="102" y="60" on="1"/>
        <pt x="105" y="65" on="0"/>
        <pt x="105" y="78" on="1"/>
        <pt x="105" y="572" on="1"/>
        <pt x="105" y="585" on="0"/>
        <pt x="100" y="596" on="0"/>
        <pt x="90" y="601" on="1"/>
        <pt x="74" y="610" on="0"/>
        <pt x="43" y="618" on="1"/>
        <pt x="33" y="620" on="1"/>
        <pt x="40" y="659" on="1"/>
        <pt x="109" y="650" on="0"/>
        <pt x="232" y="650" on="0"/>
        <pt x="301" y="659" on="1"/>
        <pt x="308" y="620" on="1"/>
        <pt x="244" y="608" on="0"/>
        <pt x="236" y="590" on="1"/>
        <pt x="234" y="585" on="0"/>
      </contour>
      <contour>
        <pt x="-16" y="724" on="0"/>
        <pt x="-16" y="784" on="0"/>
        <pt x="25" y="821" on="0"/>
        <pt x="93" y="821" on="0"/>
        <pt x="135" y="784" on="0"/>
        <pt x="135" y="724" on="0"/>
        <pt x="93" y="687" on="0"/>
        <pt x="26" y="687" on="0"/>
      </contour>
      <contour>
        <pt x="207" y="724" on="0"/>
        <pt x="207" y="784" on="0"/>
        <pt x="248" y="821" on="0"/>
        <pt x="316" y="821" on="0"/>
        <pt x="358" y="784" on="0"/>
        <pt x="358" y="724" on="0"/>
        <pt x="316" y="687" on="0"/>
        <pt x="249" y="687" on="0"/>
      </contour>
    </TTGlyph>
    <TTGlyph name="Idot" xMin="48" yMin="-9" xMax="323" yMax="838">
      <contour>
        <pt x="249" y="572" on="1"/>
        <pt x="249" y="78" on="1"/>
        <pt x="249" y="65" on="0"/>
        <pt x="254" y="54" on="0"/>
        <pt x="264" y="49" on="1"/>
        <pt x="280" y="40" on="0"/>
        <pt x="312" y="32" on="1"/>
        <pt x="323" y="30" on="1"/>
        <pt x="316" y="-9" on="1"/>
        <pt x="247" y="0" on="0"/>
        <pt x="124" y="0" on="0"/>
        <pt x="55" y="-9" on="1"/>
        <pt x="48" y="30" on="1"/>
        <pt x="110" y="43" on="0"/>
        <pt x="118" y="60" on="1"/>
        <pt x="120" y="65" on="0"/>
        <pt x="120" y="78" on="1"/>
        <pt x="120" y="572" on="1"/>
        <pt x="120" y="585" on="0"/>
        <pt x="115" y="596" on="0"/>
        <pt x="106" y="601" on="1"/>
        <pt x="89" y="610" on="0"/>
        <pt x="58" y="618" on="1"/>
        <pt x="48" y="620" on="1"/>
        <pt x="55" y="659" on="1"/>
        <pt x="124" y="650" on="0"/>
        <pt x="247" y="650" on="0"/>
        <pt x="316" y="659" on="1"/>
        <pt x="323" y="620" on="1"/>
        <pt x="259" y="608" on="0"/>
        <pt x="252" y="590" on="1"/>
        <pt x="249" y="585" on="0"/>
      </contour>
      <contour>
        <pt x="103" y="733" on="0"/>
        <pt x="103" y="797" on="0"/>
        <pt x="149" y="838" on="0"/>
        <pt x="223" y="838" on="0"/>
        <pt x="270" y="797" on="0"/>
        <pt x="270" y="733" on="0"/>
        <pt x="223" y="692" on="0"/>
        <pt x="149" y="692" on="0"/>
      </contour>
    </TTGlyph>
    <TTGlyph name="Igrave" xMin="17" yMin="-9" xMax="308" yMax="847">
      <contour>
        <pt x="234" y="572" on="1"/>
        <pt x="234" y="78" on="1"/>
        <pt x="234" y="65" on="0"/>
        <pt x="239" y="54" on="0"/>
        <pt x="248" y="49" on="1"/>
        <pt x="265" y="40" on="0"/>
        <pt x="298" y="32" on="1"/>
        <pt x="308" y="30" on="1"/>
        <pt x="301" y="-9" on="1"/>
        <pt x="232" y="0" on="0"/>
        <pt x="109" y="0" on="0"/>
        <pt x="40" y="-9" on="1"/>
        <pt x="33" y="30" on="1"/>
        <pt x="95" y="43" on="0"/>
        <pt x="102" y="60" on="1"/>
        <pt x="105" y="65" on="0"/>
        <pt x="105" y="78" on="1"/>
        <pt x="105" y="572" on="1"/>
        <pt x="105" y="585" on="0"/>
        <pt x="100" y="596" on="0"/>
        <pt x="90" y="601" on="1"/>
        <pt x="74" y="610" on="0"/>
        <pt x="43" y="618" on="1"/>
        <pt x="33" y="620" on="1"/>
        <pt x="40" y="659" on="1"/>
        <pt x="109" y="650" on="0"/>
        <pt x="232" y="650" on="0"/>
        <pt x="301" y="659" on="1"/>
        <pt x="308" y="620" on="1"/>
        <pt x="244" y="608" on="0"/>
        <pt x="236" y="590" on="1"/>
        <pt x="234" y="585" on="0"/>
      </contour>
      <contour>
        <pt x="17" y="799" on="1"/>
        <pt x="22" y="828" on="1"/>
        <pt x="78" y="844" on="0"/>
        <pt x="126" y="847" on="1"/>
        <pt x="137" y="841" on="0"/>
        <pt x="231" y="736" on="0"/>
        <pt x="245" y="718" on="1"/>
        <pt x="207" y="680" on="1"/>
      </contour>
    </TTGlyph>
    <TTGlyph name="Imacron" xMin="48" yMin="-9" xMax="323" yMax="781">
      <contour>
        <pt x="63" y="705" on="1"/>
        <pt x="77" y="781" on="1"/>
        <pt x="310" y="781" on="1"/>
        <pt x="296" y="705" on="1"/>
      </contour>
      <contour>
        <pt x="249" y="572" on="1"/>
        <pt x="249" y="78" on="1"/>
        <pt x="249" y="65" on="0"/>
        <pt x="254" y="54" on="0"/>
        <pt x="264" y="49" on="1"/>
        <pt x="280" y="40" on="0"/>
        <pt x="312" y="32" on="1"/>
        <pt x="323" y="30" on="1"/>
        <pt x="316" y="-9" on="1"/>
        <pt x="247" y="0" on="0"/>
        <pt x="124" y="0" on="0"/>
        <pt x="55" y="-9" on="1"/>
        <pt x="48" y="30" on="1"/>
        <pt x="110" y="43" on="0"/>
        <pt x="118" y="60" on="1"/>
        <pt x="120" y="65" on="0"/>
        <pt x="120" y="78" on="1"/>
        <pt x="120" y="572" on="1"/>
        <pt x="120" y="585" on="0"/>
        <pt x="115" y="596" on="0"/>
        <pt x="106" y="601" on="1"/>
        <pt x="89" y="610" on="0"/>
        <pt x="58" y="618" on="1"/>
        <pt x="48" y="620" on="1"/>
        <pt x="55" y="659" on="1"/>
        <pt x="124" y="650" on="0"/>
        <pt x="247" y="650" on="0"/>
        <pt x="316" y="659" on="1"/>
        <pt x="323" y="620" on="1"/>
        <pt x="259" y="608" on="0"/>
        <pt x="252" y="590" on="1"/>
        <pt x="249" y="585" on="0"/>
      </contour>
    </TTGlyph>
    <TTGlyph name="Iogonek" xMin="48" yMin="-245" xMax="323" yMax="659">
      <contour>
        <pt x="170" y="-143" on="1"/>
        <pt x="170" y="-162" on="0"/>
        <pt x="190" y="-190" on="0"/>
        <pt x="238" y="-190" on="0"/>
        <pt x="269" y="-171" on="1"/>
        <pt x="289" y="-204" on="1"/>
        <pt x="231" y="-245" on="0"/>
        <pt x="134" y="-245" on="0"/>
        <pt x="80" y="-195" on="0"/>
        <pt x="80" y="-107" on="0"/>
        <pt x="118" y="-72" on="1"/>
        <pt x="154" y="-38" on="0"/>
        <pt x="206" y="0" on="1"/>
        <pt x="185" y="0" on="1"/>
        <pt x="124" y="0" on="0"/>
        <pt x="55" y="-9" on="1"/>
        <pt x="48" y="30" on="1"/>
        <pt x="110" y="43" on="0"/>
        <pt x="118" y="60" on="1"/>
        <pt x="120" y="65" on="0"/>
        <pt x="120" y="78" on="1"/>
        <pt x="120" y="572" on="1"/>
        <pt x="120" y="585" on="0"/>
        <pt x="115" y="596" on="0"/>
        <pt x="106" y="601" on="1"/>
        <pt x="89" y="610" on="0"/>
        <pt x="58" y="618" on="1"/>
        <pt x="48" y="620" on="1"/>
        <pt x="55" y="659" on="1"/>
        <pt x="124" y="650" on="0"/>
        <pt x="247" y="650" on="0"/>
        <pt x="316" y="659" on="1"/>
        <pt x="323" y="620" on="1"/>
        <pt x="259" y="608" on="0"/>
        <pt x="252" y="590" on="1"/>
        <pt x="249" y="585" on="0"/>
        <pt x="249" y="572" on="1"/>
        <pt x="249" y="78" on="1"/>
        <pt x="249" y="65" on="0"/>
        <pt x="254" y="54" on="0"/>
        <pt x="264" y="49" on="1"/>
        <pt x="280" y="40" on="0"/>
        <pt x="312" y="32" on="1"/>
        <pt x="323" y="30" on="1"/>
        <pt x="316" y="-9" on="1"/>
        <pt x="271" y="-3" on="0"/>
        <pt x="246" y="-2" on="1"/>
        <pt x="170" y="-80" on="0"/>
      </contour>
    </TTGlyph>
    <TTGlyph name="Itilde" xMin="22" yMin="-9" xMax="349" yMax="825">
      <contour>
        <pt x="249" y="572" on="1"/>
        <pt x="249" y="78" on="1"/>
        <pt x="249" y="65" on="0"/>
        <pt x="254" y="54" on="0"/>
        <pt x="264" y="49" on="1"/>
        <pt x="280" y="40" on="0"/>
        <pt x="312" y="32" on="1"/>
        <pt x="323" y="30" on="1"/>
        <pt x="316" y="-9" on="1"/>
        <pt x="247" y="0" on="0"/>
        <pt x="124" y="0" on="0"/>
        <pt x="55" y="-9" on="1"/>
        <pt x="48" y="30" on="1"/>
        <pt x="110" y="43" on="0"/>
        <pt x="118" y="60" on="1"/>
        <pt x="120" y="65" on="0"/>
        <pt x="120" y="78" on="1"/>
        <pt x="120" y="572" on="1"/>
        <pt x="120" y="585" on="0"/>
        <pt x="115" y="596" on="0"/>
        <pt x="106" y="601" on="1"/>
        <pt x="89" y="610" on="0"/>
        <pt x="58" y="618" on="1"/>
        <pt x="48" y="620" on="1"/>
        <pt x="55" y="659" on="1"/>
        <pt x="124" y="650" on="0"/>
        <pt x="247" y="650" on="0"/>
        <pt x="316" y="659" on="1"/>
        <pt x="323" y="620" on="1"/>
        <pt x="259" y="608" on="0"/>
        <pt x="252" y="590" on="1"/>
        <pt x="249" y="585" on="0"/>
      </contour>
      <contour>
        <pt x="231" y="687" on="0"/>
        <pt x="141" y="729" on="0"/>
        <pt x="90" y="729" on="0"/>
        <pt x="53" y="683" on="1"/>
        <pt x="22" y="702" on="1"/>
        <pt x="34" y="724" on="0"/>
        <pt x="93" y="808" on="0"/>
        <pt x="107" y="821" on="1"/>
        <pt x="130" y="825" on="1"/>
        <pt x="142" y="823" on="0"/>
        <pt x="232" y="777" on="0"/>
        <pt x="282" y="777" on="0"/>
        <pt x="317" y="817" on="1"/>
        <pt x="349" y="795" on="1"/>
        <pt x="337" y="774" on="0"/>
        <pt x="279" y="700" on="0"/>
        <pt x="266" y="689" on="1"/>
        <pt x="243" y="685" on="1"/>
      </contour>
    </TTGlyph>
    <TTGlyph name="J" xMin="-30" yMin="-260" xMax="285" yMax="659">
      <contour>
        <pt x="82" y="0" on="1"/>
        <pt x="82" y="572" on="1"/>
        <pt x="82" y="585" on="0"/>
        <pt x="77" y="596" on="0"/>
        <pt x="68" y="601" on="1"/>
        <pt x="51" y="610" on="0"/>
        <pt x="20" y="618" on="1"/>
        <pt x="10" y="620" on="1"/>
        <pt x="17" y="659" on="1"/>
        <pt x="86" y="650" on="0"/>
        <pt x="209" y="650" on="0"/>
        <pt x="278" y="659" on="1"/>
        <pt x="285" y="620" on="1"/>
        <pt x="221" y="608" on="0"/>
        <pt x="214" y="590" on="1"/>
        <pt x="211" y="585" on="0"/>
        <pt x="211" y="572" on="1"/>
        <pt x="211" y="50" on="1"/>
        <pt x="211" y="7" on="0"/>
        <pt x="207" y="-38" on="0"/>
        <pt x="186" y="-103" on="0"/>
        <pt x="137" y="-158" on="0"/>
        <pt x="96" y="-189" on="1"/>
        <pt x="0" y="-260" on="1"/>
        <pt x="-30" y="-230" on="1"/>
        <pt x="82" y="-109" on="0"/>
      </contour>
    </TTGlyph>
    <TTGlyph name="Jcircumflex" xMin="-30" yMin="-260" xMax="297" yMax="852">
      <contour>
        <pt x="82" y="0" on="1"/>
        <pt x="82" y="572" on="1"/>
        <pt x="82" y="585" on="0"/>
        <pt x="77" y="596" on="0"/>
        <pt x="68" y="601" on="1"/>
        <pt x="51" y="610" on="0"/>
        <pt x="20" y="618" on="1"/>
        <pt x="10" y="620" on="1"/>
        <pt x="17" y="659" on="1"/>
        <pt x="86" y="650" on="0"/>
        <pt x="209" y="650" on="0"/>
        <pt x="278" y="659" on="1"/>
        <pt x="285" y="620" on="1"/>
        <pt x="221" y="608" on="0"/>
        <pt x="214" y="590" on="1"/>
        <pt x="211" y="585" on="0"/>
        <pt x="211" y="572" on="1"/>
        <pt x="211" y="50" on="1"/>
        <pt x="211" y="7" on="0"/>
        <pt x="207" y="-38" on="0"/>
        <pt x="186" y="-103" on="0"/>
        <pt x="137" y="-158" on="0"/>
        <pt x="96" y="-189" on="1"/>
        <pt x="0" y="-260" on="1"/>
        <pt x="-30" y="-230" on="1"/>
        <pt x="82" y="-109" on="0"/>
      </contour>
      <contour>
        <pt x="93" y="847" on="1"/>
        <pt x="113" y="852" on="0"/>
        <pt x="180" y="852" on="0"/>
        <pt x="199" y="847" on="1"/>
        <pt x="211" y="839" on="0"/>
        <pt x="288" y="734" on="0"/>
        <pt x="297" y="719" on="1"/>
        <pt x="254" y="688" on="1"/>
        <pt x="146" y="777" on="1"/>
        <pt x="38" y="688" on="1"/>
        <pt x="-6" y="719" on="1"/>
        <pt x="1" y="732" on="0"/>
        <pt x="81" y="838" on="0"/>
      </contour>
    </TTGlyph>
    <TTGlyph name="K" xMin="48" yMin="-9" xMax="732" yMax="659">
      <contour>
        <pt x="494" y="602" on="1"/>
        <pt x="494" y="616" on="0"/>
        <pt x="438" y="625" on="1"/>
        <pt x="445" y="658" on="1"/>
        <pt x="494" y="650" on="0"/>
        <pt x="598" y="650" on="0"/>
        <pt x="649" y="658" on="1"/>
        <pt x="656" y="625" on="1"/>
        <pt x="622" y="620" on="0"/>
        <pt x="582" y="599" on="0"/>
        <pt x="561" y="576" on="1"/>
        <pt x="367" y="371" on="1"/>
        <pt x="618" y="96" on="1"/>
        <pt x="652" y="59" on="0"/>
        <pt x="696" y="34" on="0"/>
        <pt x="732" y="25" on="1"/>
        <pt x="725" y="-8" on="1"/>
        <pt x="658" y="0" on="0"/>
        <pt x="495" y="0" on="0"/>
        <pt x="440" y="-8" on="1"/>
        <pt x="431" y="25" on="1"/>
        <pt x="435" y="26" on="0"/>
        <pt x="451" y="29" on="0"/>
        <pt x="459" y="31" on="0"/>
        <pt x="472" y="34" on="0"/>
        <pt x="479" y="37" on="0"/>
        <pt x="482" y="39" on="1"/>
        <pt x="489" y="43" on="0"/>
        <pt x="489" y="60" on="0"/>
        <pt x="471" y="80" on="1"/>
        <pt x="263" y="317" on="1"/>
        <pt x="263" y="350" on="1"/>
        <pt x="479" y="576" on="1"/>
        <pt x="494" y="592" on="0"/>
      </contour>
      <contour>
        <pt x="249" y="572" on="1"/>
        <pt x="249" y="78" on="1"/>
        <pt x="249" y="65" on="0"/>
        <pt x="254" y="54" on="0"/>
        <pt x="264" y="49" on="1"/>
        <pt x="280" y="40" on="0"/>
        <pt x="320" y="32" on="1"/>
        <pt x="333" y="30" on="1"/>
        <pt x="326" y="-9" on="1"/>
        <pt x="251" y="0" on="0"/>
        <pt x="124" y="0" on="0"/>
        <pt x="55" y="-9" on="1"/>
        <pt x="48" y="30" on="1"/>
        <pt x="110" y="43" on="0"/>
        <pt x="118" y="60" on="1"/>
        <pt x="120" y="65" on="0"/>
        <pt x="120" y="78" on="1"/>
        <pt x="120" y="572" on="1"/>
        <pt x="120" y="585" on="0"/>
        <pt x="115" y="596" on="0"/>
        <pt x="106" y="601" on="1"/>
        <pt x="89" y="610" on="0"/>
        <pt x="58" y="618" on="1"/>
        <pt x="48" y="620" on="1"/>
        <pt x="55" y="659" on="1"/>
        <pt x="124" y="650" on="0"/>
        <pt x="247" y="650" on="0"/>
        <pt x="316" y="659" on="1"/>
        <pt x="323" y="620" on="1"/>
        <pt x="259" y="608" on="0"/>
        <pt x="252" y="590" on="1"/>
        <pt x="249" y="585" on="0"/>
      </contour>
    </TTGlyph>
    <TTGlyph name="Kcommaaccent" xMin="48" yMin="-270" xMax="732" yMax="659">
      <contour>
        <pt x="494" y="602" on="1"/>
        <pt x="494" y="616" on="0"/>
        <pt x="438" y="625" on="1"/>
        <pt x="445" y="658" on="1"/>
        <pt x="494" y="650" on="0"/>
        <pt x="598" y="650" on="0"/>
        <pt x="649" y="658" on="1"/>
        <pt x="656" y="625" on="1"/>
        <pt x="622" y="620" on="0"/>
        <pt x="582" y="599" on="0"/>
        <pt x="561" y="576" on="1"/>
        <pt x="367" y="371" on="1"/>
        <pt x="618" y="96" on="1"/>
        <pt x="652" y="59" on="0"/>
        <pt x="696" y="34" on="0"/>
        <pt x="732" y="25" on="1"/>
        <pt x="725" y="-8" on="1"/>
        <pt x="658" y="0" on="0"/>
        <pt x="495" y="0" on="0"/>
        <pt x="440" y="-8" on="1"/>
        <pt x="431" y="25" on="1"/>
        <pt x="435" y="26" on="0"/>
        <pt x="451" y="29" on="0"/>
        <pt x="459" y="31" on="0"/>
        <pt x="472" y="34" on="0"/>
        <pt x="479" y="37" on="0"/>
        <pt x="482" y="39" on="1"/>
        <pt x="489" y="43" on="0"/>
        <pt x="489" y="60" on="0"/>
        <pt x="471" y="80" on="1"/>
        <pt x="263" y="317" on="1"/>
        <pt x="263" y="350" on="1"/>
        <pt x="479" y="576" on="1"/>
        <pt x="494" y="592" on="0"/>
      </contour>
      <contour>
        <pt x="249" y="572" on="1"/>
        <pt x="249" y="78" on="1"/>
        <pt x="249" y="65" on="0"/>
        <pt x="254" y="54" on="0"/>
        <pt x="264" y="49" on="1"/>
        <pt x="280" y="40" on="0"/>
        <pt x="320" y="32" on="1"/>
        <pt x="333" y="30" on="1"/>
        <pt x="326" y="-9" on="1"/>
        <pt x="251" y="0" on="0"/>
        <pt x="124" y="0" on="0"/>
        <pt x="55" y="-9" on="1"/>
        <pt x="48" y="30" on="1"/>
        <pt x="110" y="43" on="0"/>
        <pt x="118" y="60" on="1"/>
        <pt x="120" y="65" on="0"/>
        <pt x="120" y="78" on="1"/>
        <pt x="120" y="572" on="1"/>
        <pt x="120" y="585" on="0"/>
        <pt x="115" y="596" on="0"/>
        <pt x="106" y="601" on="1"/>
        <pt x="89" y="610" on="0"/>
        <pt x="58" y="618" on="1"/>
        <pt x="48" y="620" on="1"/>
        <pt x="55" y="659" on="1"/>
        <pt x="124" y="650" on="0"/>
        <pt x="247" y="650" on="0"/>
        <pt x="316" y="659" on="1"/>
        <pt x="323" y="620" on="1"/>
        <pt x="259" y="608" on="0"/>
        <pt x="252" y="590" on="1"/>
        <pt x="249" y="585" on="0"/>
      </contour>
      <contour>
        <pt x="398" y="-38" on="0"/>
        <pt x="461" y="-81" on="0"/>
        <pt x="461" y="-144" on="0"/>
        <pt x="378" y="-241" on="0"/>
        <pt x="337" y="-270" on="1"/>
        <pt x="308" y="-246" on="1"/>
        <pt x="326" y="-227" on="0"/>
        <pt x="360" y="-171" on="0"/>
        <pt x="360" y="-132" on="0"/>
        <pt x="309" y="-127" on="1"/>
        <pt x="300" y="-108" on="1"/>
        <pt x="311" y="-91" on="0"/>
        <pt x="350" y="-46" on="0"/>
        <pt x="364" y="-36" on="1"/>
      </contour>
    </TTGlyph>
    <TTGlyph name="L" xMin="48" yMin="-9" xMax="534" yMax="659">
      <contour>
        <pt x="249" y="563" on="1"/>
        <pt x="249" y="63" on="1"/>
        <pt x="425" y="63" on="1"/>
        <pt x="438" y="74" on="0"/>
        <pt x="479" y="155" on="0"/>
        <pt x="486" y="178" on="1"/>
        <pt x="534" y="169" on="1"/>
        <pt x="533" y="144" on="0"/>
        <pt x="517" y="21" on="0"/>
        <pt x="511" y="0" on="1"/>
        <pt x="177" y="0" on="1"/>
        <pt x="155" y="0" on="0"/>
        <pt x="56" y="-9" on="1"/>
        <pt x="48" y="29" on="1"/>
        <pt x="86" y="37" on="0"/>
        <pt x="120" y="56" on="0"/>
        <pt x="120" y="79" on="1"/>
        <pt x="120" y="571" on="1"/>
        <pt x="120" y="593" on="0"/>
        <pt x="108" y="600" on="1"/>
        <pt x="89" y="610" on="0"/>
        <pt x="58" y="618" on="1"/>
        <pt x="48" y="620" on="1"/>
        <pt x="57" y="659" on="1"/>
        <pt x="126" y="650" on="0"/>
        <pt x="271" y="650" on="0"/>
        <pt x="343" y="659" on="1"/>
        <pt x="351" y="617" on="1"/>
        <pt x="289" y="605" on="0"/>
        <pt x="249" y="590" on="0"/>
      </contour>
    </TTGlyph>
    <TTGlyph name="Lacute" xMin="48" yMin="-9" xMax="534" yMax="847">
      <contour>
        <pt x="249" y="563" on="1"/>
        <pt x="249" y="63" on="1"/>
        <pt x="425" y="63" on="1"/>
        <pt x="438" y="74" on="0"/>
        <pt x="479" y="155" on="0"/>
        <pt x="486" y="178" on="1"/>
        <pt x="534" y="169" on="1"/>
        <pt x="533" y="144" on="0"/>
        <pt x="517" y="21" on="0"/>
        <pt x="511" y="0" on="1"/>
        <pt x="177" y="0" on="1"/>
        <pt x="155" y="0" on="0"/>
        <pt x="56" y="-9" on="1"/>
        <pt x="48" y="29" on="1"/>
        <pt x="86" y="37" on="0"/>
        <pt x="120" y="56" on="0"/>
        <pt x="120" y="79" on="1"/>
        <pt x="120" y="571" on="1"/>
        <pt x="120" y="593" on="0"/>
        <pt x="108" y="600" on="1"/>
        <pt x="89" y="610" on="0"/>
        <pt x="58" y="618" on="1"/>
        <pt x="48" y="620" on="1"/>
        <pt x="57" y="659" on="1"/>
        <pt x="126" y="650" on="0"/>
        <pt x="271" y="650" on="0"/>
        <pt x="343" y="659" on="1"/>
        <pt x="351" y="617" on="1"/>
        <pt x="289" y="605" on="0"/>
        <pt x="249" y="590" on="0"/>
      </contour>
      <contour>
        <pt x="330" y="828" on="1"/>
        <pt x="335" y="799" on="1"/>
        <pt x="145" y="680" on="1"/>
        <pt x="107" y="718" on="1"/>
        <pt x="121" y="736" on="0"/>
        <pt x="215" y="841" on="0"/>
        <pt x="226" y="847" on="1"/>
        <pt x="274" y="844" on="0"/>
      </contour>
    </TTGlyph>
    <TTGlyph name="Lcaron" xMin="48" yMin="-9" xMax="538" yMax="720">
      <contour>
        <pt x="249" y="563" on="1"/>
        <pt x="249" y="63" on="1"/>
        <pt x="425" y="63" on="1"/>
        <pt x="438" y="74" on="0"/>
        <pt x="479" y="155" on="0"/>
        <pt x="486" y="178" on="1"/>
        <pt x="534" y="169" on="1"/>
        <pt x="533" y="144" on="0"/>
        <pt x="517" y="21" on="0"/>
        <pt x="511" y="0" on="1"/>
        <pt x="177" y="0" on="1"/>
        <pt x="155" y="0" on="0"/>
        <pt x="56" y="-9" on="1"/>
        <pt x="48" y="29" on="1"/>
        <pt x="86" y="37" on="0"/>
        <pt x="120" y="56" on="0"/>
        <pt x="120" y="79" on="1"/>
        <pt x="120" y="571" on="1"/>
        <pt x="120" y="593" on="0"/>
        <pt x="108" y="600" on="1"/>
        <pt x="89" y="610" on="0"/>
        <pt x="58" y="618" on="1"/>
        <pt x="48" y="620" on="1"/>
        <pt x="57" y="659" on="1"/>
        <pt x="126" y="650" on="0"/>
        <pt x="271" y="650" on="0"/>
        <pt x="343" y="659" on="1"/>
        <pt x="351" y="617" on="1"/>
        <pt x="289" y="605" on="0"/>
        <pt x="249" y="590" on="0"/>
      </contour>
      <contour>
        <pt x="475" y="718" on="0"/>
        <pt x="538" y="675" on="0"/>
        <pt x="538" y="612" on="0"/>
        <pt x="455" y="515" on="0"/>
        <pt x="414" y="486" on="1"/>
        <pt x="385" y="510" on="1"/>
        <pt x="403" y="529" on="0"/>
        <pt x="437" y="585" on="0"/>
        <pt x="437" y="624" on="0"/>
        <pt x="386" y="629" on="1"/>
        <pt x="377" y="648" on="1"/>
        <pt x="388" y="665" on="0"/>
        <pt x="427" y="710" on="0"/>
        <pt x="441" y="720" on="1"/>
      </contour>
    </TTGlyph>
    <TTGlyph name="Lcommaaccent" xMin="48" yMin="-270" xMax="534" yMax="659">
      <contour>
        <pt x="249" y="563" on="1"/>
        <pt x="249" y="63" on="1"/>
        <pt x="425" y="63" on="1"/>
        <pt x="438" y="74" on="0"/>
        <pt x="479" y="155" on="0"/>
        <pt x="486" y="178" on="1"/>
        <pt x="534" y="169" on="1"/>
        <pt x="533" y="144" on="0"/>
        <pt x="517" y="21" on="0"/>
        <pt x="511" y="0" on="1"/>
        <pt x="177" y="0" on="1"/>
        <pt x="155" y="0" on="0"/>
        <pt x="56" y="-9" on="1"/>
        <pt x="48" y="29" on="1"/>
        <pt x="86" y="37" on="0"/>
        <pt x="120" y="56" on="0"/>
        <pt x="120" y="79" on="1"/>
        <pt x="120" y="571" on="1"/>
        <pt x="120" y="593" on="0"/>
        <pt x="108" y="600" on="1"/>
        <pt x="89" y="610" on="0"/>
        <pt x="58" y="618" on="1"/>
        <pt x="48" y="620" on="1"/>
        <pt x="57" y="659" on="1"/>
        <pt x="126" y="650" on="0"/>
        <pt x="271" y="650" on="0"/>
        <pt x="343" y="659" on="1"/>
        <pt x="351" y="617" on="1"/>
        <pt x="289" y="605" on="0"/>
        <pt x="249" y="590" on="0"/>
      </contour>
      <contour>
        <pt x="331" y="-38" on="0"/>
        <pt x="394" y="-81" on="0"/>
        <pt x="394" y="-144" on="0"/>
        <pt x="311" y="-241" on="0"/>
        <pt x="270" y="-270" on="1"/>
        <pt x="241" y="-246" on="1"/>
        <pt x="259" y="-227" on="0"/>
        <pt x="293" y="-171" on="0"/>
        <pt x="293" y="-132" on="0"/>
        <pt x="242" y="-127" on="1"/>
        <pt x="233" y="-108" on="1"/>
        <pt x="244" y="-91" on="0"/>
        <pt x="283" y="-46" on="0"/>
        <pt x="297" y="-36" on="1"/>
      </contour>
    </TTGlyph>
    <TTGlyph name="Ldot" xMin="48" yMin="-9" xMax="534" yMax="659">
      <contour>
        <pt x="249" y="563" on="1"/>
        <pt x="249" y="63" on="1"/>
        <pt x="425" y="63" on="1"/>
        <pt x="438" y="74" on="0"/>
        <pt x="479" y="155" on="0"/>
        <pt x="486" y="178" on="1"/>
        <pt x="534" y="169" on="1"/>
        <pt x="533" y="144" on="0"/>
        <pt x="517" y="21" on="0"/>
        <pt x="511" y="0" on="1"/>
        <pt x="177" y="0" on="1"/>
        <pt x="155" y="0" on="0"/>
        <pt x="56" y="-9" on="1"/>
        <pt x="48" y="29" on="1"/>
        <pt x="86" y="37" on="0"/>
        <pt x="120" y="56" on="0"/>
        <pt x="120" y="79" on="1"/>
        <pt x="120" y="571" on="1"/>
        <pt x="120" y="593" on="0"/>
        <pt x="108" y="600" on="1"/>
        <pt x="89" y="610" on="0"/>
        <pt x="58" y="618" on="1"/>
        <pt x="48" y="620" on="1"/>
        <pt x="57" y="659" on="1"/>
        <pt x="126" y="650" on="0"/>
        <pt x="271" y="650" on="0"/>
        <pt x="343" y="659" on="1"/>
        <pt x="351" y="617" on="1"/>
        <pt x="289" y="605" on="0"/>
        <pt x="249" y="590" on="0"/>
      </contour>
      <contour>
        <pt x="340" y="319" on="0"/>
        <pt x="340" y="383" on="0"/>
        <pt x="386" y="424" on="0"/>
        <pt x="460" y="424" on="0"/>
        <pt x="507" y="383" on="0"/>
        <pt x="507" y="319" on="0"/>
        <pt x="460" y="278" on="0"/>
        <pt x="386" y="278" on="0"/>
      </contour>
    </TTGlyph>
    <TTGlyph name="Lslash" xMin="23" yMin="-9" xMax="534" yMax="659">
      <contour>
        <pt x="249" y="563" on="1"/>
        <pt x="249" y="408" on="1"/>
        <pt x="383" y="480" on="1"/>
        <pt x="397" y="427" on="1"/>
        <pt x="249" y="347" on="1"/>
        <pt x="249" y="63" on="1"/>
        <pt x="425" y="63" on="1"/>
        <pt x="438" y="74" on="0"/>
        <pt x="479" y="155" on="0"/>
        <pt x="486" y="178" on="1"/>
        <pt x="534" y="169" on="1"/>
        <pt x="533" y="144" on="0"/>
        <pt x="517" y="21" on="0"/>
        <pt x="511" y="0" on="1"/>
        <pt x="177" y="0" on="1"/>
        <pt x="155" y="0" on="0"/>
        <pt x="56" y="-9" on="1"/>
        <pt x="48" y="29" on="1"/>
        <pt x="86" y="37" on="0"/>
        <pt x="120" y="56" on="0"/>
        <pt x="120" y="79" on="1"/>
        <pt x="120" y="278" on="1"/>
        <pt x="37" y="234" on="1"/>
        <pt x="23" y="287" on="1"/>
        <pt x="120" y="339" on="1"/>
        <pt x="120" y="571" on="1"/>
        <pt x="120" y="593" on="0"/>
        <pt x="108" y="600" on="1"/>
        <pt x="89" y="610" on="0"/>
        <pt x="58" y="618" on="1"/>
        <pt x="48" y="620" on="1"/>
        <pt x="57" y="659" on="1"/>
        <pt x="126" y="650" on="0"/>
        <pt x="271" y="650" on="0"/>
        <pt x="343" y="659" on="1"/>
        <pt x="351" y="617" on="1"/>
        <pt x="289" y="605" on="0"/>
        <pt x="249" y="590" on="0"/>
      </contour>
    </TTGlyph>
    <TTGlyph name="M" xMin="27" yMin="-18" xMax="910" yMax="660">
      <contour>
        <pt x="657" y="660" on="1"/>
        <pt x="709" y="650" on="0"/>
        <pt x="816" y="650" on="0"/>
        <pt x="874" y="660" on="1"/>
        <pt x="881" y="621" on="1"/>
        <pt x="844" y="612" on="0"/>
        <pt x="808" y="594" on="0"/>
        <pt x="810" y="569" on="1"/>
        <pt x="840" y="82" on="1"/>
        <pt x="841" y="58" on="0"/>
        <pt x="858" y="48" on="1"/>
        <pt x="874" y="40" on="0"/>
        <pt x="910" y="30" on="1"/>
        <pt x="903" y="-9" on="1"/>
        <pt x="840" y="0" on="0"/>
        <pt x="716" y="0" on="0"/>
        <pt x="637" y="-9" on="1"/>
        <pt x="630" y="32" on="1"/>
        <pt x="702" y="47" on="0"/>
        <pt x="712" y="64" on="1"/>
        <pt x="716" y="69" on="0"/>
        <pt x="715" y="82" on="1"/>
        <pt x="691" y="511" on="1"/>
        <pt x="685" y="516" on="1"/>
        <pt x="674" y="466" on="0"/>
        <pt x="664" y="442" on="1"/>
        <pt x="545" y="142" on="1"/>
        <pt x="528" y="100" on="0"/>
        <pt x="508" y="28" on="1"/>
        <pt x="502" y="6" on="1"/>
        <pt x="407" y="-18" on="1"/>
        <pt x="379" y="77" on="0"/>
        <pt x="358" y="129" on="1"/>
        <pt x="238" y="437" on="1"/>
        <pt x="219" y="503" on="1"/>
        <pt x="212" y="498" on="1"/>
        <pt x="183" y="82" on="1"/>
        <pt x="182" y="69" on="0"/>
        <pt x="189" y="58" on="0"/>
        <pt x="198" y="53" on="1"/>
        <pt x="215" y="44" on="0"/>
        <pt x="255" y="35" on="1"/>
        <pt x="268" y="32" on="1"/>
        <pt x="260" y="-9" on="1"/>
        <pt x="195" y="0" on="0"/>
        <pt x="98" y="0" on="0"/>
        <pt x="35" y="-9" on="1"/>
        <pt x="27" y="30" on="1"/>
        <pt x="64" y="38" on="0"/>
        <pt x="99" y="56" on="0"/>
        <pt x="100" y="79" on="1"/>
        <pt x="137" y="572" on="1"/>
        <pt x="138" y="594" on="0"/>
        <pt x="121" y="603" on="1"/>
        <pt x="105" y="611" on="0"/>
        <pt x="72" y="618" on="1"/>
        <pt x="61" y="621" on="1"/>
        <pt x="68" y="660" on="1"/>
        <pt x="123" y="650" on="0"/>
        <pt x="244" y="650" on="0"/>
        <pt x="300" y="660" on="1"/>
        <pt x="312" y="614" on="0"/>
        <pt x="320" y="591" on="1"/>
        <pt x="464" y="202" on="1"/>
        <pt x="477" y="155" on="1"/>
        <pt x="484" y="153" on="1"/>
        <pt x="486" y="186" on="0"/>
        <pt x="493" y="201" on="1"/>
        <pt x="636" y="585" on="1"/>
      </contour>
    </TTGlyph>
    <TTGlyph name="Macute" xMin="27" yMin="-18" xMax="910" yMax="847">
      <contour>
        <pt x="657" y="660" on="1"/>
        <pt x="709" y="650" on="0"/>
        <pt x="816" y="650" on="0"/>
        <pt x="874" y="660" on="1"/>
        <pt x="881" y="621" on="1"/>
        <pt x="844" y="612" on="0"/>
        <pt x="808" y="594" on="0"/>
        <pt x="810" y="569" on="1"/>
        <pt x="840" y="82" on="1"/>
        <pt x="841" y="58" on="0"/>
        <pt x="858" y="48" on="1"/>
        <pt x="874" y="40" on="0"/>
        <pt x="910" y="30" on="1"/>
        <pt x="903" y="-9" on="1"/>
        <pt x="840" y="0" on="0"/>
        <pt x="716" y="0" on="0"/>
        <pt x="637" y="-9" on="1"/>
        <pt x="630" y="32" on="1"/>
        <pt x="702" y="47" on="0"/>
        <pt x="712" y="64" on="1"/>
        <pt x="716" y="69" on="0"/>
        <pt x="715" y="82" on="1"/>
        <pt x="691" y="511" on="1"/>
        <pt x="685" y="516" on="1"/>
        <pt x="674" y="466" on="0"/>
        <pt x="664" y="442" on="1"/>
        <pt x="545" y="142" on="1"/>
        <pt x="528" y="100" on="0"/>
        <pt x="508" y="28" on="1"/>
        <pt x="502" y="6" on="1"/>
        <pt x="407" y="-18" on="1"/>
        <pt x="379" y="77" on="0"/>
        <pt x="358" y="129" on="1"/>
        <pt x="238" y="437" on="1"/>
        <pt x="219" y="503" on="1"/>
        <pt x="212" y="498" on="1"/>
        <pt x="183" y="82" on="1"/>
        <pt x="182" y="69" on="0"/>
        <pt x="189" y="58" on="0"/>
        <pt x="198" y="53" on="1"/>
        <pt x="215" y="44" on="0"/>
        <pt x="255" y="35" on="1"/>
        <pt x="268" y="32" on="1"/>
        <pt x="260" y="-9" on="1"/>
        <pt x="195" y="0" on="0"/>
        <pt x="98" y="0" on="0"/>
        <pt x="35" y="-9" on="1"/>
        <pt x="27" y="30" on="1"/>
        <pt x="64" y="38" on="0"/>
        <pt x="99" y="56" on="0"/>
        <pt x="100" y="79" on="1"/>
        <pt x="137" y="572" on="1"/>
        <pt x="138" y="594" on="0"/>
        <pt x="121" y="603" on="1"/>
        <pt x="105" y="611" on="0"/>
        <pt x="72" y="618" on="1"/>
        <pt x="61" y="621" on="1"/>
        <pt x="68" y="660" on="1"/>
        <pt x="123" y="650" on="0"/>
        <pt x="244" y="650" on="0"/>
        <pt x="300" y="660" on="1"/>
        <pt x="312" y="614" on="0"/>
        <pt x="320" y="591" on="1"/>
        <pt x="464" y="202" on="1"/>
        <pt x="477" y="155" on="1"/>
        <pt x="484" y="153" on="1"/>
        <pt x="486" y="186" on="0"/>
        <pt x="493" y="201" on="1"/>
        <pt x="636" y="585" on="1"/>
      </contour>
      <contour>
        <pt x="613" y="828" on="1"/>
        <pt x="618" y="799" on="1"/>
        <pt x="428" y="680" on="1"/>
        <pt x="390" y="718" on="1"/>
        <pt x="404" y="736" on="0"/>
        <pt x="498" y="841" on="0"/>
        <pt x="509" y="847" on="1"/>
        <pt x="557" y="844" on="0"/>
      </contour>
    </TTGlyph>
    <TTGlyph name="N" xMin="42" yMin="-14" xMax="735" yMax="660">
      <contour>
        <pt x="205" y="87" on="1"/>
        <pt x="205" y="72" on="0"/>
        <pt x="213" y="56" on="0"/>
        <pt x="227" y="52" on="1"/>
        <pt x="240" y="46" on="0"/>
        <pt x="291" y="36" on="1"/>
        <pt x="307" y="33" on="1"/>
        <pt x="299" y="-9" on="1"/>
        <pt x="230" y="0" on="0"/>
        <pt x="122" y="0" on="0"/>
        <pt x="50" y="-9" on="1"/>
        <pt x="42" y="30" on="1"/>
        <pt x="83" y="37" on="0"/>
        <pt x="104" y="48" on="1"/>
        <pt x="120" y="55" on="0"/>
        <pt x="120" y="79" on="1"/>
        <pt x="120" y="573" on="1"/>
        <pt x="120" y="595" on="0"/>
        <pt x="104" y="603" on="1"/>
        <pt x="45" y="621" on="1"/>
        <pt x="52" y="660" on="1"/>
        <pt x="107" y="650" on="0"/>
        <pt x="212" y="650" on="0"/>
        <pt x="268" y="660" on="1"/>
        <pt x="291" y="620" on="0"/>
        <pt x="330" y="563" on="1"/>
        <pt x="538" y="263" on="1"/>
        <pt x="553" y="240" on="0"/>
        <pt x="566" y="204" on="1"/>
        <pt x="570" y="192" on="1"/>
        <pt x="575" y="196" on="1"/>
        <pt x="575" y="570" on="1"/>
        <pt x="575" y="592" on="0"/>
        <pt x="558" y="600" on="1"/>
        <pt x="547" y="606" on="0"/>
        <pt x="504" y="616" on="1"/>
        <pt x="491" y="619" on="1"/>
        <pt x="498" y="660" on="1"/>
        <pt x="575" y="650" on="0"/>
        <pt x="660" y="650" on="0"/>
        <pt x="728" y="660" on="1"/>
        <pt x="735" y="621" on="1"/>
        <pt x="697" y="613" on="0"/>
        <pt x="660" y="594" on="0"/>
        <pt x="660" y="573" on="1"/>
        <pt x="660" y="193" on="1"/>
        <pt x="660" y="115" on="0"/>
        <pt x="666" y="34" on="1"/>
        <pt x="668" y="7" on="1"/>
        <pt x="560" y="-14" on="1"/>
        <pt x="523" y="68" on="0"/>
        <pt x="446" y="178" on="1"/>
        <pt x="246" y="464" on="1"/>
        <pt x="229" y="488" on="0"/>
        <pt x="215" y="518" on="1"/>
        <pt x="210" y="529" on="1"/>
        <pt x="205" y="525" on="1"/>
      </contour>
    </TTGlyph>
    <TTGlyph name="Nacute" xMin="43" yMin="-14" xMax="736" yMax="847">
      <contour>
        <pt x="206" y="87" on="1"/>
        <pt x="206" y="72" on="0"/>
        <pt x="214" y="56" on="0"/>
        <pt x="228" y="52" on="1"/>
        <pt x="241" y="46" on="0"/>
        <pt x="292" y="36" on="1"/>
        <pt x="308" y="33" on="1"/>
        <pt x="300" y="-9" on="1"/>
        <pt x="231" y="0" on="0"/>
        <pt x="123" y="0" on="0"/>
        <pt x="51" y="-9" on="1"/>
        <pt x="43" y="30" on="1"/>
        <pt x="84" y="37" on="0"/>
        <pt x="105" y="48" on="1"/>
        <pt x="121" y="55" on="0"/>
        <pt x="121" y="79" on="1"/>
        <pt x="121" y="573" on="1"/>
        <pt x="121" y="595" on="0"/>
        <pt x="105" y="603" on="1"/>
        <pt x="46" y="621" on="1"/>
        <pt x="53" y="660" on="1"/>
        <pt x="108" y="650" on="0"/>
        <pt x="213" y="650" on="0"/>
        <pt x="269" y="660" on="1"/>
        <pt x="292" y="620" on="0"/>
        <pt x="331" y="563" on="1"/>
        <pt x="539" y="263" on="1"/>
        <pt x="554" y="240" on="0"/>
        <pt x="567" y="204" on="1"/>
        <pt x="571" y="192" on="1"/>
        <pt x="576" y="196" on="1"/>
        <pt x="576" y="570" on="1"/>
        <pt x="576" y="592" on="0"/>
        <pt x="559" y="600" on="1"/>
        <pt x="548" y="606" on="0"/>
        <pt x="504" y="616" on="1"/>
        <pt x="492" y="619" on="1"/>
        <pt x="499" y="660" on="1"/>
        <pt x="576" y="650" on="0"/>
        <pt x="661" y="650" on="0"/>
        <pt x="729" y="660" on="1"/>
        <pt x="736" y="621" on="1"/>
        <pt x="698" y="613" on="0"/>
        <pt x="661" y="594" on="0"/>
        <pt x="661" y="573" on="1"/>
        <pt x="661" y="193" on="1"/>
        <pt x="661" y="115" on="0"/>
        <pt x="667" y="34" on="1"/>
        <pt x="669" y="7" on="1"/>
        <pt x="561" y="-14" on="1"/>
        <pt x="524" y="68" on="0"/>
        <pt x="447" y="178" on="1"/>
        <pt x="247" y="464" on="1"/>
        <pt x="230" y="488" on="0"/>
        <pt x="216" y="518" on="1"/>
        <pt x="211" y="529" on="1"/>
        <pt x="206" y="525" on="1"/>
      </contour>
      <contour>
        <pt x="527" y="828" on="1"/>
        <pt x="532" y="799" on="1"/>
        <pt x="342" y="680" on="1"/>
        <pt x="304" y="718" on="1"/>
        <pt x="318" y="736" on="0"/>
        <pt x="412" y="841" on="0"/>
        <pt x="423" y="847" on="1"/>
        <pt x="471" y="844" on="0"/>
      </contour>
    </TTGlyph>
    <TTGlyph name="Ncaron" xMin="42" yMin="-14" xMax="735" yMax="856">
      <contour>
        <pt x="205" y="87" on="1"/>
        <pt x="205" y="72" on="0"/>
        <pt x="213" y="56" on="0"/>
        <pt x="227" y="52" on="1"/>
        <pt x="240" y="46" on="0"/>
        <pt x="291" y="36" on="1"/>
        <pt x="307" y="33" on="1"/>
        <pt x="299" y="-9" on="1"/>
        <pt x="230" y="0" on="0"/>
        <pt x="122" y="0" on="0"/>
        <pt x="50" y="-9" on="1"/>
        <pt x="42" y="30" on="1"/>
        <pt x="83" y="37" on="0"/>
        <pt x="104" y="48" on="1"/>
        <pt x="120" y="55" on="0"/>
        <pt x="120" y="79" on="1"/>
        <pt x="120" y="573" on="1"/>
        <pt x="120" y="595" on="0"/>
        <pt x="104" y="603" on="1"/>
        <pt x="45" y="621" on="1"/>
        <pt x="52" y="660" on="1"/>
        <pt x="107" y="650" on="0"/>
        <pt x="212" y="650" on="0"/>
        <pt x="268" y="660" on="1"/>
        <pt x="291" y="620" on="0"/>
        <pt x="330" y="563" on="1"/>
        <pt x="538" y="263" on="1"/>
        <pt x="553" y="240" on="0"/>
        <pt x="566" y="204" on="1"/>
        <pt x="570" y="192" on="1"/>
        <pt x="575" y="196" on="1"/>
        <pt x="575" y="570" on="1"/>
        <pt x="575" y="592" on="0"/>
        <pt x="558" y="600" on="1"/>
        <pt x="547" y="606" on="0"/>
        <pt x="504" y="616" on="1"/>
        <pt x="491" y="619" on="1"/>
        <pt x="498" y="660" on="1"/>
        <pt x="575" y="650" on="0"/>
        <pt x="660" y="650" on="0"/>
        <pt x="728" y="660" on="1"/>
        <pt x="735" y="621" on="1"/>
        <pt x="697" y="613" on="0"/>
        <pt x="660" y="594" on="0"/>
        <pt x="660" y="573" on="1"/>
        <pt x="660" y="193" on="1"/>
        <pt x="660" y="115" on="0"/>
        <pt x="666" y="34" on="1"/>
        <pt x="668" y="7" on="1"/>
        <pt x="560" y="-14" on="1"/>
        <pt x="523" y="68" on="0"/>
        <pt x="446" y="178" on="1"/>
        <pt x="246" y="464" on="1"/>
        <pt x="229" y="488" on="0"/>
        <pt x="215" y="518" on="1"/>
        <pt x="210" y="529" on="1"/>
        <pt x="205" y="525" on="1"/>
      </contour>
      <contour>
        <pt x="443" y="697" on="1"/>
        <pt x="423" y="692" on="0"/>
        <pt x="356" y="692" on="0"/>
        <pt x="337" y="697" on="1"/>
        <pt x="325" y="705" on="0"/>
        <pt x="248" y="810" on="0"/>
        <pt x="239" y="825" on="1"/>
        <pt x="282" y="856" on="1"/>
        <pt x="390" y="767" on="1"/>
        <pt x="498" y="856" on="1"/>
        <pt x="542" y="825" on="1"/>
        <pt x="535" y="812" on="0"/>
        <pt x="455" y="706" on="0"/>
      </contour>
    </TTGlyph>
    <TTGlyph name="Ncommaaccent" xMin="42" yMin="-270" xMax="735" yMax="660">
      <contour>
        <pt x="205" y="87" on="1"/>
        <pt x="205" y="72" on="0"/>
        <pt x="213" y="56" on="0"/>
        <pt x="227" y="52" on="1"/>
        <pt x="240" y="46" on="0"/>
        <pt x="291" y="36" on="1"/>
        <pt x="307" y="33" on="1"/>
        <pt x="299" y="-9" on="1"/>
        <pt x="230" y="0" on="0"/>
        <pt x="122" y="0" on="0"/>
        <pt x="50" y="-9" on="1"/>
        <pt x="42" y="30" on="1"/>
        <pt x="83" y="37" on="0"/>
        <pt x="104" y="48" on="1"/>
        <pt x="120" y="55" on="0"/>
        <pt x="120" y="79" on="1"/>
        <pt x="120" y="573" on="1"/>
        <pt x="120" y="595" on="0"/>
        <pt x="104" y="603" on="1"/>
        <pt x="45" y="621" on="1"/>
        <pt x="52" y="660" on="1"/>
        <pt x="107" y="650" on="0"/>
        <pt x="212" y="650" on="0"/>
        <pt x="268" y="660" on="1"/>
        <pt x="291" y="620" on="0"/>
        <pt x="330" y="563" on="1"/>
        <pt x="538" y="263" on="1"/>
        <pt x="553" y="240" on="0"/>
        <pt x="566" y="204" on="1"/>
        <pt x="570" y="192" on="1"/>
        <pt x="575" y="196" on="1"/>
        <pt x="575" y="570" on="1"/>
        <pt x="575" y="592" on="0"/>
        <pt x="558" y="600" on="1"/>
        <pt x="547" y="606" on="0"/>
        <pt x="504" y="616" on="1"/>
        <pt x="491" y="619" on="1"/>
        <pt x="498" y="660" on="1"/>
        <pt x="575" y="650" on="0"/>
        <pt x="660" y="650" on="0"/>
        <pt x="728" y="660" on="1"/>
        <pt x="735" y="621" on="1"/>
        <pt x="697" y="613" on="0"/>
        <pt x="660" y="594" on="0"/>
        <pt x="660" y="573" on="1"/>
        <pt x="660" y="193" on="1"/>
        <pt x="660" y="115" on="0"/>
        <pt x="666" y="34" on="1"/>
        <pt x="668" y="7" on="1"/>
        <pt x="560" y="-14" on="1"/>
        <pt x="523" y="68" on="0"/>
        <pt x="446" y="178" on="1"/>
        <pt x="246" y="464" on="1"/>
        <pt x="229" y="488" on="0"/>
        <pt x="215" y="518" on="1"/>
        <pt x="210" y="529" on="1"/>
        <pt x="205" y="525" on="1"/>
      </contour>
      <contour>
        <pt x="411" y="-38" on="0"/>
        <pt x="474" y="-81" on="0"/>
        <pt x="474" y="-144" on="0"/>
        <pt x="391" y="-241" on="0"/>
        <pt x="350" y="-270" on="1"/>
        <pt x="321" y="-246" on="1"/>
        <pt x="339" y="-227" on="0"/>
        <pt x="373" y="-171" on="0"/>
        <pt x="373" y="-132" on="0"/>
        <pt x="322" y="-127" on="1"/>
        <pt x="313" y="-108" on="1"/>
        <pt x="324" y="-91" on="0"/>
        <pt x="363" y="-46" on="0"/>
        <pt x="377" y="-36" on="1"/>
      </contour>
    </TTGlyph>
    <TTGlyph name="Ntilde" xMin="43" yMin="-14" xMax="736" yMax="826">
      <contour>
        <pt x="206" y="87" on="1"/>
        <pt x="206" y="72" on="0"/>
        <pt x="214" y="56" on="0"/>
        <pt x="228" y="52" on="1"/>
        <pt x="241" y="46" on="0"/>
        <pt x="292" y="36" on="1"/>
        <pt x="308" y="33" on="1"/>
        <pt x="300" y="-9" on="1"/>
        <pt x="231" y="0" on="0"/>
        <pt x="123" y="0" on="0"/>
        <pt x="51" y="-9" on="1"/>
        <pt x="43" y="30" on="1"/>
        <pt x="84" y="37" on="0"/>
        <pt x="105" y="48" on="1"/>
        <pt x="121" y="55" on="0"/>
        <pt x="121" y="79" on="1"/>
        <pt x="121" y="573" on="1"/>
        <pt x="121" y="595" on="0"/>
        <pt x="105" y="603" on="1"/>
        <pt x="46" y="621" on="1"/>
        <pt x="53" y="660" on="1"/>
        <pt x="108" y="650" on="0"/>
        <pt x="213" y="650" on="0"/>
        <pt x="269" y="660" on="1"/>
        <pt x="292" y="620" on="0"/>
        <pt x="331" y="563" on="1"/>
        <pt x="539" y="263" on="1"/>
        <pt x="554" y="240" on="0"/>
        <pt x="567" y="204" on="1"/>
        <pt x="571" y="192" on="1"/>
        <pt x="576" y="196" on="1"/>
        <pt x="576" y="570" on="1"/>
        <pt x="576" y="592" on="0"/>
        <pt x="559" y="600" on="1"/>
        <pt x="548" y="606" on="0"/>
        <pt x="504" y="616" on="1"/>
        <pt x="492" y="619" on="1"/>
        <pt x="499" y="660" on="1"/>
        <pt x="576" y="650" on="0"/>
        <pt x="661" y="650" on="0"/>
        <pt x="729" y="660" on="1"/>
        <pt x="736" y="621" on="1"/>
        <pt x="698" y="613" on="0"/>
        <pt x="661" y="594" on="0"/>
        <pt x="661" y="573" on="1"/>
        <pt x="661" y="193" on="1"/>
        <pt x="661" y="115" on="0"/>
        <pt x="667" y="34" on="1"/>
        <pt x="669" y="7" on="1"/>
        <pt x="561" y="-14" on="1"/>
        <pt x="524" y="68" on="0"/>
        <pt x="447" y="178" on="1"/>
        <pt x="247" y="464" on="1"/>
        <pt x="230" y="488" on="0"/>
        <pt x="216" y="518" on="1"/>
        <pt x="211" y="529" on="1"/>
        <pt x="206" y="525" on="1"/>
      </contour>
      <contour>
        <pt x="437" y="688" on="0"/>
        <pt x="347" y="730" on="0"/>
        <pt x="296" y="730" on="0"/>
        <pt x="259" y="684" on="1"/>
        <pt x="228" y="703" on="1"/>
        <pt x="240" y="725" on="0"/>
        <pt x="299" y="809" on="0"/>
        <pt x="313" y="822" on="1"/>
        <pt x="336" y="826" on="1"/>
        <pt x="348" y="824" on="0"/>
        <pt x="438" y="778" on="0"/>
        <pt x="488" y="778" on="0"/>
        <pt x="523" y="818" on="1"/>
        <pt x="555" y="796" on="1"/>
        <pt x="543" y="775" on="0"/>
        <pt x="485" y="701" on="0"/>
        <pt x="472" y="690" on="1"/>
        <pt x="449" y="686" on="1"/>
      </contour>
    </TTGlyph>
    <TTGlyph name="O" xMin="40" yMin="-16" xMax="731" yMax="666">
      <contour>
        <pt x="228" y="-16" on="0"/>
        <pt x="40" y="158" on="0"/>
        <pt x="40" y="464" on="0"/>
        <pt x="227" y="666" on="0"/>
        <pt x="543" y="666" on="0"/>
        <pt x="731" y="492" on="0"/>
        <pt x="731" y="186" on="0"/>
        <pt x="544" y="-16" on="0"/>
      </contour>
      <contour>
        <pt x="278" y="608" on="0"/>
        <pt x="181" y="461" on="0"/>
        <pt x="181" y="216" on="0"/>
        <pt x="291" y="42" on="0"/>
        <pt x="493" y="42" on="0"/>
        <pt x="590" y="189" on="0"/>
        <pt x="590" y="434" on="0"/>
        <pt x="480" y="608" on="0"/>
      </contour>
    </TTGlyph>
    <TTGlyph name="OE" xMin="40" yMin="-16" xMax="902" yMax="666">
      <contour>
        <pt x="533" y="650" on="1"/>
        <pt x="784" y="650" on="1"/>
        <pt x="834" y="650" on="0"/>
        <pt x="871" y="656" on="1"/>
        <pt x="871" y="499" on="1"/>
        <pt x="819" y="490" on="1"/>
        <pt x="805" y="567" on="0"/>
        <pt x="787" y="588" on="1"/>
        <pt x="617" y="588" on="1"/>
        <pt x="617" y="368" on="1"/>
        <pt x="717" y="368" on="1"/>
        <pt x="742" y="368" on="0"/>
        <pt x="750" y="383" on="1"/>
        <pt x="756" y="394" on="0"/>
        <pt x="764" y="428" on="1"/>
        <pt x="767" y="439" on="1"/>
        <pt x="810" y="433" on="1"/>
        <pt x="802" y="380" on="0"/>
        <pt x="802" y="290" on="0"/>
        <pt x="810" y="234" on="1"/>
        <pt x="767" y="228" on="1"/>
        <pt x="758" y="272" on="0"/>
        <pt x="743" y="305" on="0"/>
        <pt x="717" y="305" on="1"/>
        <pt x="617" y="305" on="1"/>
        <pt x="617" y="63" on="1"/>
        <pt x="797" y="63" on="1"/>
        <pt x="810" y="74" on="0"/>
        <pt x="845" y="153" on="0"/>
        <pt x="852" y="178" on="1"/>
        <pt x="902" y="170" on="1"/>
        <pt x="901" y="140" on="0"/>
        <pt x="888" y="20" on="0"/>
        <pt x="882" y="0" on="1"/>
        <pt x="533" y="0" on="1"/>
        <pt x="499" y="0" on="0"/>
        <pt x="436" y="-7" on="1"/>
        <pt x="435" y="-8" on="1"/>
        <pt x="405" y="-16" on="0"/>
        <pt x="373" y="-16" on="1"/>
        <pt x="220" y="-16" on="0"/>
        <pt x="40" y="155" on="0"/>
        <pt x="40" y="462" on="0"/>
        <pt x="219" y="666" on="0"/>
        <pt x="368" y="666" on="1"/>
        <pt x="407" y="666" on="0"/>
        <pt x="435" y="659" on="1"/>
        <pt x="505" y="650" on="0"/>
      </contour>
      <contour>
        <pt x="268" y="90" on="1"/>
        <pt x="315" y="47" on="0"/>
        <pt x="445" y="47" on="0"/>
        <pt x="488" y="69" on="1"/>
        <pt x="488" y="565" on="1"/>
        <pt x="434" y="608" on="0"/>
        <pt x="359" y="608" on="1"/>
        <pt x="270" y="608" on="0"/>
        <pt x="181" y="461" on="0"/>
        <pt x="181" y="345" on="1"/>
        <pt x="181" y="170" on="0"/>
      </contour>
    </TTGlyph>
    <TTGlyph name="Oacute" xMin="32" yMin="-16" xMax="723" yMax="847">
      <contour>
        <pt x="220" y="-16" on="0"/>
        <pt x="32" y="158" on="0"/>
        <pt x="32" y="464" on="0"/>
        <pt x="219" y="666" on="0"/>
        <pt x="535" y="666" on="0"/>
        <pt x="723" y="492" on="0"/>
        <pt x="723" y="186" on="0"/>
        <pt x="536" y="-16" on="0"/>
      </contour>
      <contour>
        <pt x="270" y="608" on="0"/>
        <pt x="173" y="461" on="0"/>
        <pt x="173" y="216" on="0"/>
        <pt x="283" y="42" on="0"/>
        <pt x="485" y="42" on="0"/>
        <pt x="582" y="189" on="0"/>
        <pt x="582" y="434" on="0"/>
        <pt x="472" y="608" on="0"/>
      </contour>
      <contour>
        <pt x="510" y="828" on="1"/>
        <pt x="515" y="799" on="1"/>
        <pt x="325" y="680" on="1"/>
        <pt x="287" y="718" on="1"/>
        <pt x="301" y="736" on="0"/>
        <pt x="395" y="841" on="0"/>
        <pt x="406" y="847" on="1"/>
        <pt x="454" y="844" on="0"/>
      </contour>
    </TTGlyph>
    <TTGlyph name="Obreve" xMin="40" yMin="-16" xMax="731" yMax="845">
      <contour>
        <pt x="228" y="-16" on="0"/>
        <pt x="40" y="158" on="0"/>
        <pt x="40" y="464" on="0"/>
        <pt x="227" y="666" on="0"/>
        <pt x="543" y="666" on="0"/>
        <pt x="731" y="492" on="0"/>
        <pt x="731" y="186" on="0"/>
        <pt x="544" y="-16" on="0"/>
      </contour>
      <contour>
        <pt x="278" y="608" on="0"/>
        <pt x="181" y="461" on="0"/>
        <pt x="181" y="216" on="0"/>
        <pt x="291" y="42" on="0"/>
        <pt x="493" y="42" on="0"/>
        <pt x="590" y="189" on="0"/>
        <pt x="590" y="434" on="0"/>
        <pt x="480" y="608" on="0"/>
      </contour>
      <contour>
        <pt x="521" y="773" on="0"/>
        <pt x="447" y="692" on="0"/>
        <pt x="326" y="692" on="0"/>
        <pt x="257" y="771" on="0"/>
        <pt x="257" y="835" on="1"/>
        <pt x="291" y="845" on="1"/>
        <pt x="306" y="779" on="0"/>
        <pt x="472" y="779" on="0"/>
        <pt x="487" y="845" on="1"/>
        <pt x="521" y="835" on="1"/>
      </contour>
    </TTGlyph>
    <TTGlyph name="Ocircumflex" xMin="32" yMin="-16" xMax="723" yMax="852">
      <contour>
        <pt x="220" y="-16" on="0"/>
        <pt x="32" y="158" on="0"/>
        <pt x="32" y="464" on="0"/>
        <pt x="219" y="666" on="0"/>
        <pt x="535" y="666" on="0"/>
        <pt x="723" y="492" on="0"/>
        <pt x="723" y="186" on="0"/>
        <pt x="536" y="-16" on="0"/>
      </contour>
      <contour>
        <pt x="270" y="608" on="0"/>
        <pt x="173" y="461" on="0"/>
        <pt x="173" y="216" on="0"/>
        <pt x="283" y="42" on="0"/>
        <pt x="485" y="42" on="0"/>
        <pt x="582" y="189" on="0"/>
        <pt x="582" y="434" on="0"/>
        <pt x="472" y="608" on="0"/>
      </contour>
      <contour>
        <pt x="322" y="847" on="1"/>
        <pt x="342" y="852" on="0"/>
        <pt x="409" y="852" on="0"/>
        <pt x="428" y="847" on="1"/>
        <pt x="440" y="839" on="0"/>
        <pt x="517" y="734" on="0"/>
        <pt x="526" y="719" on="1"/>
        <pt x="483" y="688" on="1"/>
        <pt x="375" y="777" on="1"/>
        <pt x="267" y="688" on="1"/>
        <pt x="223" y="719" on="1"/>
        <pt x="230" y="732" on="0"/>
        <pt x="310" y="838" on="0"/>
      </contour>
    </TTGlyph>
    <TTGlyph name="Odieresis" xMin="32" yMin="-16" xMax="723" yMax="821">
      <contour>
        <pt x="220" y="-16" on="0"/>
        <pt x="32" y="158" on="0"/>
        <pt x="32" y="464" on="0"/>
        <pt x="219" y="666" on="0"/>
        <pt x="535" y="666" on="0"/>
        <pt x="723" y="492" on="0"/>
        <pt x="723" y="186" on="0"/>
        <pt x="536" y="-16" on="0"/>
      </contour>
      <contour>
        <pt x="270" y="608" on="0"/>
        <pt x="173" y="461" on="0"/>
        <pt x="173" y="216" on="0"/>
        <pt x="283" y="42" on="0"/>
        <pt x="485" y="42" on="0"/>
        <pt x="582" y="189" on="0"/>
        <pt x="582" y="434" on="0"/>
        <pt x="472" y="608" on="0"/>
      </contour>
      <contour>
        <pt x="188" y="724" on="0"/>
        <pt x="188" y="784" on="0"/>
        <pt x="229" y="821" on="0"/>
        <pt x="297" y="821" on="0"/>
        <pt x="339" y="784" on="0"/>
        <pt x="339" y="724" on="0"/>
        <pt x="297" y="687" on="0"/>
        <pt x="230" y="687" on="0"/>
      </contour>
      <contour>
        <pt x="411" y="724" on="0"/>
        <pt x="411" y="784" on="0"/>
        <pt x="452" y="821" on="0"/>
        <pt x="520" y="821" on="0"/>
        <pt x="562" y="784" on="0"/>
        <pt x="562" y="724" on="0"/>
        <pt x="520" y="687" on="0"/>
        <pt x="453" y="687" on="0"/>
      </contour>
    </TTGlyph>
    <TTGlyph name="Ograve" xMin="32" yMin="-16" xMax="723" yMax="847">
      <contour>
        <pt x="220" y="-16" on="0"/>
        <pt x="32" y="158" on="0"/>
        <pt x="32" y="464" on="0"/>
        <pt x="219" y="666" on="0"/>
        <pt x="535" y="666" on="0"/>
        <pt x="723" y="492" on="0"/>
        <pt x="723" y="186" on="0"/>
        <pt x="536" y="-16" on="0"/>
      </contour>
      <contour>
        <pt x="270" y="608" on="0"/>
        <pt x="173" y="461" on="0"/>
        <pt x="173" y="216" on="0"/>
        <pt x="283" y="42" on="0"/>
        <pt x="485" y="42" on="0"/>
        <pt x="582" y="189" on="0"/>
        <pt x="582" y="434" on="0"/>
        <pt x="472" y="608" on="0"/>
      </contour>
      <contour>
        <pt x="221" y="799" on="1"/>
        <pt x="226" y="828" on="1"/>
        <pt x="282" y="844" on="0"/>
        <pt x="330" y="847" on="1"/>
        <pt x="341" y="841" on="0"/>
        <pt x="435" y="736" on="0"/>
        <pt x="449" y="718" on="1"/>
        <pt x="411" y="680" on="1"/>
      </contour>
    </TTGlyph>
    <TTGlyph name="Ohorn" xMin="40" yMin="-16" xMax="745" yMax="779">
      <contour>
        <pt x="228" y="-16" on="0"/>
        <pt x="40" y="158" on="0"/>
        <pt x="40" y="464" on="0"/>
        <pt x="227" y="666" on="0"/>
        <pt x="383" y="666" on="1"/>
        <pt x="502" y="666" on="0"/>
        <pt x="589" y="615" on="1"/>
        <pt x="642" y="635" on="0"/>
        <pt x="642" y="670" on="1"/>
        <pt x="642" y="683" on="0"/>
        <pt x="616" y="704" on="0"/>
        <pt x="599" y="708" on="1"/>
        <pt x="599" y="728" on="1"/>
        <pt x="613" y="740" on="0"/>
        <pt x="676" y="775" on="0"/>
        <pt x="694" y="779" on="1"/>
        <pt x="716" y="769" on="0"/>
        <pt x="745" y="724" on="0"/>
        <pt x="745" y="704" on="1"/>
        <pt x="745" y="625" on="0"/>
        <pt x="630" y="585" on="1"/>
        <pt x="731" y="497" on="0"/>
        <pt x="731" y="186" on="0"/>
        <pt x="544" y="-16" on="0"/>
      </contour>
      <contour>
        <pt x="278" y="608" on="0"/>
        <pt x="181" y="461" on="0"/>
        <pt x="181" y="216" on="0"/>
        <pt x="291" y="42" on="0"/>
        <pt x="493" y="42" on="0"/>
        <pt x="590" y="189" on="0"/>
        <pt x="590" y="434" on="0"/>
        <pt x="480" y="608" on="0"/>
      </contour>
    </TTGlyph>
    <TTGlyph name="Ohungarumlaut" xMin="40" yMin="-16" xMax="731" yMax="890">
      <contour>
        <pt x="228" y="-16" on="0"/>
        <pt x="40" y="158" on="0"/>
        <pt x="40" y="464" on="0"/>
        <pt x="227" y="666" on="0"/>
        <pt x="543" y="666" on="0"/>
        <pt x="731" y="492" on="0"/>
        <pt x="731" y="186" on="0"/>
        <pt x="544" y="-16" on="0"/>
      </contour>
      <contour>
        <pt x="278" y="608" on="0"/>
        <pt x="181" y="461" on="0"/>
        <pt x="181" y="216" on="0"/>
        <pt x="291" y="42" on="0"/>
        <pt x="493" y="42" on="0"/>
        <pt x="590" y="189" on="0"/>
        <pt x="590" y="434" on="0"/>
        <pt x="480" y="608" on="0"/>
      </contour>
      <contour>
        <pt x="569" y="890" on="1"/>
        <pt x="586" y="866" on="1"/>
        <pt x="461" y="680" on="1"/>
        <pt x="410" y="699" on="1"/>
        <pt x="415" y="719" on="0"/>
        <pt x="459" y="855" on="0"/>
        <pt x="467" y="865" on="1"/>
        <pt x="480" y="870" on="0"/>
        <pt x="556" y="888" on="0"/>
      </contour>
      <contour>
        <pt x="400" y="890" on="1"/>
        <pt x="417" y="866" on="1"/>
        <pt x="292" y="680" on="1"/>
        <pt x="241" y="699" on="1"/>
        <pt x="246" y="719" on="0"/>
        <pt x="290" y="855" on="0"/>
        <pt x="298" y="865" on="1"/>
        <pt x="311" y="870" on="0"/>
        <pt x="387" y="888" on="0"/>
      </contour>
    </TTGlyph>
    <TTGlyph name="Omacron" xMin="40" yMin="-16" xMax="731" yMax="781">
      <contour>
        <pt x="228" y="-16" on="0"/>
        <pt x="40" y="158" on="0"/>
        <pt x="40" y="464" on="0"/>
        <pt x="227" y="666" on="0"/>
        <pt x="543" y="666" on="0"/>
        <pt x="731" y="492" on="0"/>
        <pt x="731" y="186" on="0"/>
        <pt x="544" y="-16" on="0"/>
      </contour>
      <contour>
        <pt x="278" y="608" on="0"/>
        <pt x="181" y="461" on="0"/>
        <pt x="181" y="216" on="0"/>
        <pt x="291" y="42" on="0"/>
        <pt x="493" y="42" on="0"/>
        <pt x="590" y="189" on="0"/>
        <pt x="590" y="434" on="0"/>
        <pt x="480" y="608" on="0"/>
      </contour>
      <contour>
        <pt x="245" y="705" on="1"/>
        <pt x="259" y="781" on="1"/>
        <pt x="522" y="781" on="1"/>
        <pt x="508" y="705" on="1"/>
      </contour>
    </TTGlyph>
    <TTGlyph name="Oslash" xMin="42" yMin="-34" xMax="733" yMax="699">
      <contour>
        <pt x="148" y="60" on="1"/>
        <pt x="42" y="147" on="0"/>
        <pt x="42" y="464" on="0"/>
        <pt x="229" y="666" on="0"/>
        <pt x="385" y="666" on="1"/>
        <pt x="473" y="666" on="0"/>
        <pt x="549" y="636" on="1"/>
        <pt x="593" y="699" on="1"/>
        <pt x="631" y="658" on="1"/>
        <pt x="598" y="610" on="1"/>
        <pt x="733" y="524" on="0"/>
        <pt x="733" y="341" on="1"/>
        <pt x="733" y="186" on="0"/>
        <pt x="546" y="-16" on="0"/>
        <pt x="390" y="-16" on="1"/>
        <pt x="277" y="-16" on="0"/>
        <pt x="193" y="29" on="1"/>
        <pt x="149" y="-34" on="1"/>
        <pt x="111" y="7" on="1"/>
      </contour>
      <contour>
        <pt x="499" y="42" on="0"/>
        <pt x="592" y="187" on="0"/>
        <pt x="592" y="442" on="0"/>
        <pt x="537" y="523" on="1"/>
        <pt x="250" y="111" on="1"/>
        <pt x="306" y="42" on="0"/>
      </contour>
      <contour>
        <pt x="280" y="608" on="0"/>
        <pt x="183" y="461" on="0"/>
        <pt x="183" y="237" on="0"/>
        <pt x="219" y="162" on="1"/>
        <pt x="500" y="565" on="1"/>
        <pt x="449" y="608" on="0"/>
        <pt x="376" y="608" on="1"/>
      </contour>
    </TTGlyph>
    <TTGlyph name="Oslashacute" xMin="42" yMin="-34" xMax="733" yMax="847">
      <contour>
        <pt x="148" y="60" on="1"/>
        <pt x="42" y="147" on="0"/>
        <pt x="42" y="464" on="0"/>
        <pt x="229" y="666" on="0"/>
        <pt x="385" y="666" on="1"/>
        <pt x="473" y="666" on="0"/>
        <pt x="549" y="636" on="1"/>
        <pt x="593" y="699" on="1"/>
        <pt x="631" y="658" on="1"/>
        <pt x="598" y="610" on="1"/>
        <pt x="733" y="524" on="0"/>
        <pt x="733" y="341" on="1"/>
        <pt x="733" y="186" on="0"/>
        <pt x="546" y="-16" on="0"/>
        <pt x="390" y="-16" on="1"/>
        <pt x="277" y="-16" on="0"/>
        <pt x="193" y="29" on="1"/>
        <pt x="149" y="-34" on="1"/>
        <pt x="111" y="7" on="1"/>
      </contour>
      <contour>
        <pt x="499" y="42" on="0"/>
        <pt x="592" y="187" on="0"/>
        <pt x="592" y="442" on="0"/>
        <pt x="537" y="523" on="1"/>
        <pt x="250" y="111" on="1"/>
        <pt x="306" y="42" on="0"/>
      </contour>
      <contour>
        <pt x="280" y="608" on="0"/>
        <pt x="183" y="461" on="0"/>
        <pt x="183" y="237" on="0"/>
        <pt x="219" y="162" on="1"/>
        <pt x="500" y="565" on="1"/>
        <pt x="449" y="608" on="0"/>
        <pt x="376" y="608" on="1"/>
      </contour>
      <contour>
        <pt x="520" y="828" on="1"/>
        <pt x="525" y="799" on="1"/>
        <pt x="335" y="680" on="1"/>
        <pt x="297" y="718" on="1"/>
        <pt x="311" y="736" on="0"/>
        <pt x="405" y="841" on="0"/>
        <pt x="416" y="847" on="1"/>
        <pt x="464" y="844" on="0"/>
      </contour>
    </TTGlyph>
    <TTGlyph name="Otilde" xMin="32" yMin="-16" xMax="723" yMax="830">
      <contour>
        <pt x="220" y="-16" on="0"/>
        <pt x="32" y="158" on="0"/>
        <pt x="32" y="464" on="0"/>
        <pt x="219" y="666" on="0"/>
        <pt x="535" y="666" on="0"/>
        <pt x="723" y="492" on="0"/>
        <pt x="723" y="186" on="0"/>
        <pt x="536" y="-16" on="0"/>
      </contour>
      <contour>
        <pt x="270" y="608" on="0"/>
        <pt x="173" y="461" on="0"/>
        <pt x="173" y="216" on="0"/>
        <pt x="283" y="42" on="0"/>
        <pt x="485" y="42" on="0"/>
        <pt x="582" y="189" on="0"/>
        <pt x="582" y="434" on="0"/>
        <pt x="472" y="608" on="0"/>
      </contour>
      <contour>
        <pt x="420" y="692" on="0"/>
        <pt x="330" y="734" on="0"/>
        <pt x="279" y="734" on="0"/>
        <pt x="242" y="688" on="1"/>
        <pt x="211" y="707" on="1"/>
        <pt x="223" y="729" on="0"/>
        <pt x="282" y="813" on="0"/>
        <pt x="296" y="826" on="1"/>
        <pt x="319" y="830" on="1"/>
        <pt x="331" y="828" on="0"/>
        <pt x="421" y="782" on="0"/>
        <pt x="471" y="782" on="0"/>
        <pt x="506" y="822" on="1"/>
        <pt x="538" y="800" on="1"/>
        <pt x="526" y="779" on="0"/>
        <pt x="468" y="705" on="0"/>
        <pt x="455" y="694" on="1"/>
        <pt x="432" y="690" on="1"/>
      </contour>
    </TTGlyph>
    <TTGlyph name="P" xMin="47" yMin="-9" xMax="546" yMax="658">
      <contour>
        <pt x="263" y="319" on="1"/>
        <pt x="296" y="315" on="1"/>
        <pt x="407" y="315" on="0"/>
        <pt x="407" y="609" on="0"/>
        <pt x="286" y="609" on="1"/>
        <pt x="270" y="609" on="0"/>
        <pt x="249" y="602" on="1"/>
        <pt x="249" y="87" on="1"/>
        <pt x="249" y="72" on="0"/>
        <pt x="257" y="57" on="0"/>
        <pt x="271" y="52" on="1"/>
        <pt x="352" y="33" on="1"/>
        <pt x="344" y="-9" on="1"/>
        <pt x="250" y="0" on="0"/>
        <pt x="146" y="0" on="0"/>
        <pt x="56" y="-9" on="1"/>
        <pt x="48" y="30" on="1"/>
        <pt x="86" y="38" on="0"/>
        <pt x="120" y="57" on="0"/>
        <pt x="120" y="79" on="1"/>
        <pt x="120" y="569" on="1"/>
        <pt x="120" y="590" on="0"/>
        <pt x="108" y="596" on="1"/>
        <pt x="90" y="606" on="0"/>
        <pt x="57" y="614" on="1"/>
        <pt x="47" y="617" on="1"/>
        <pt x="55" y="654" on="1"/>
        <pt x="58" y="651" on="0"/>
        <pt x="90" y="651" on="1"/>
        <pt x="287" y="658" on="1"/>
        <pt x="546" y="658" on="0"/>
        <pt x="546" y="474" on="1"/>
        <pt x="546" y="392" on="0"/>
        <pt x="414" y="273" on="0"/>
        <pt x="333" y="273" on="1"/>
        <pt x="320" y="273" on="0"/>
        <pt x="277" y="291" on="0"/>
        <pt x="267" y="298" on="1"/>
      </contour>
    </TTGlyph>
    <TTGlyph name="Q" xMin="40" yMin="-213" xMax="731" yMax="666">
      <contour>
        <pt x="218" y="-11" on="0"/>
        <pt x="40" y="162" on="0"/>
        <pt x="40" y="464" on="0"/>
        <pt x="227" y="666" on="0"/>
        <pt x="543" y="666" on="0"/>
        <pt x="731" y="492" on="0"/>
        <pt x="731" y="189" on="0"/>
        <pt x="551" y="-11" on="0"/>
        <pt x="401" y="-15" on="1"/>
        <pt x="424" y="-21" on="0"/>
        <pt x="569" y="-115" on="0"/>
        <pt x="645" y="-115" on="0"/>
        <pt x="686" y="-58" on="1"/>
        <pt x="714" y="-94" on="1"/>
        <pt x="664" y="-163" on="0"/>
        <pt x="600" y="-213" on="0"/>
        <pt x="535" y="-213" on="0"/>
        <pt x="455" y="-162" on="0"/>
        <pt x="386" y="-111" on="0"/>
        <pt x="348" y="-111" on="0"/>
        <pt x="301" y="-146" on="0"/>
        <pt x="287" y="-163" on="1"/>
        <pt x="252" y="-136" on="1"/>
        <pt x="270" y="-111" on="0"/>
        <pt x="351" y="-28" on="0"/>
        <pt x="371" y="-16" on="1"/>
      </contour>
      <contour>
        <pt x="278" y="608" on="0"/>
        <pt x="181" y="461" on="0"/>
        <pt x="181" y="216" on="0"/>
        <pt x="291" y="40" on="0"/>
        <pt x="493" y="40" on="0"/>
        <pt x="590" y="187" on="0"/>
        <pt x="590" y="434" on="0"/>
        <pt x="480" y="608" on="0"/>
      </contour>
    </TTGlyph>
    <TTGlyph name="R" xMin="48" yMin="-9" xMax="677" yMax="658">
      <contour>
        <pt x="249" y="341" on="1"/>
        <pt x="279" y="341" on="1"/>
        <pt x="407" y="341" on="0"/>
        <pt x="407" y="475" on="1"/>
        <pt x="407" y="544" on="0"/>
        <pt x="351" y="609" on="0"/>
        <pt x="289" y="609" on="1"/>
        <pt x="266" y="609" on="0"/>
        <pt x="249" y="602" on="1"/>
      </contour>
      <contour>
        <pt x="88" y="651" on="1"/>
        <pt x="289" y="658" on="1"/>
        <pt x="404" y="658" on="0"/>
        <pt x="546" y="579" on="0"/>
        <pt x="546" y="489" on="1"/>
        <pt x="546" y="423" on="0"/>
        <pt x="450" y="325" on="0"/>
        <pt x="383" y="320" on="1"/>
        <pt x="383" y="313" on="1"/>
        <pt x="413" y="306" on="0"/>
        <pt x="475" y="236" on="0"/>
        <pt x="497" y="196" on="1"/>
        <pt x="558" y="85" on="0"/>
        <pt x="636" y="31" on="0"/>
        <pt x="677" y="31" on="1"/>
        <pt x="671" y="-6" on="1"/>
        <pt x="494" y="-6" on="1"/>
        <pt x="470" y="-6" on="0"/>
        <pt x="434" y="50" on="1"/>
        <pt x="402" y="101" on="0"/>
        <pt x="348" y="204" on="0"/>
        <pt x="319" y="257" on="0"/>
        <pt x="291" y="284" on="0"/>
        <pt x="267" y="284" on="1"/>
        <pt x="249" y="284" on="1"/>
        <pt x="249" y="87" on="1"/>
        <pt x="249" y="72" on="0"/>
        <pt x="257" y="57" on="0"/>
        <pt x="271" y="52" on="1"/>
        <pt x="351" y="33" on="1"/>
        <pt x="344" y="-9" on="1"/>
        <pt x="250" y="0" on="0"/>
        <pt x="145" y="0" on="0"/>
        <pt x="55" y="-9" on="1"/>
        <pt x="48" y="30" on="1"/>
        <pt x="110" y="43" on="0"/>
        <pt x="118" y="60" on="1"/>
        <pt x="120" y="65" on="0"/>
        <pt x="120" y="79" on="1"/>
        <pt x="120" y="569" on="1"/>
        <pt x="120" y="591" on="0"/>
        <pt x="108" y="598" on="1"/>
        <pt x="86" y="609" on="0"/>
        <pt x="58" y="615" on="1"/>
        <pt x="48" y="617" on="1"/>
        <pt x="55" y="654" on="1"/>
        <pt x="58" y="651" on="0"/>
      </contour>
    </TTGlyph>
    <TTGlyph name="Racute" xMin="48" yMin="-9" xMax="677" yMax="847">
      <contour>
        <pt x="249" y="341" on="1"/>
        <pt x="279" y="341" on="1"/>
        <pt x="407" y="341" on="0"/>
        <pt x="407" y="475" on="1"/>
        <pt x="407" y="544" on="0"/>
        <pt x="351" y="609" on="0"/>
        <pt x="289" y="609" on="1"/>
        <pt x="266" y="609" on="0"/>
        <pt x="249" y="602" on="1"/>
      </contour>
      <contour>
        <pt x="88" y="651" on="1"/>
        <pt x="289" y="658" on="1"/>
        <pt x="404" y="658" on="0"/>
        <pt x="546" y="579" on="0"/>
        <pt x="546" y="489" on="1"/>
        <pt x="546" y="423" on="0"/>
        <pt x="450" y="325" on="0"/>
        <pt x="383" y="320" on="1"/>
        <pt x="383" y="313" on="1"/>
        <pt x="413" y="306" on="0"/>
        <pt x="475" y="236" on="0"/>
        <pt x="497" y="196" on="1"/>
        <pt x="558" y="85" on="0"/>
        <pt x="636" y="31" on="0"/>
        <pt x="677" y="31" on="1"/>
        <pt x="671" y="-6" on="1"/>
        <pt x="494" y="-6" on="1"/>
        <pt x="470" y="-6" on="0"/>
        <pt x="434" y="50" on="1"/>
        <pt x="402" y="101" on="0"/>
        <pt x="348" y="204" on="0"/>
        <pt x="319" y="257" on="0"/>
        <pt x="291" y="284" on="0"/>
        <pt x="267" y="284" on="1"/>
        <pt x="249" y="284" on="1"/>
        <pt x="249" y="87" on="1"/>
        <pt x="249" y="72" on="0"/>
        <pt x="257" y="57" on="0"/>
        <pt x="271" y="52" on="1"/>
        <pt x="351" y="33" on="1"/>
        <pt x="344" y="-9" on="1"/>
        <pt x="250" y="0" on="0"/>
        <pt x="145" y="0" on="0"/>
        <pt x="55" y="-9" on="1"/>
        <pt x="48" y="30" on="1"/>
        <pt x="110" y="43" on="0"/>
        <pt x="118" y="60" on="1"/>
        <pt x="120" y="65" on="0"/>
        <pt x="120" y="79" on="1"/>
        <pt x="120" y="569" on="1"/>
        <pt x="120" y="591" on="0"/>
        <pt x="108" y="598" on="1"/>
        <pt x="86" y="609" on="0"/>
        <pt x="58" y="615" on="1"/>
        <pt x="48" y="617" on="1"/>
        <pt x="55" y="654" on="1"/>
        <pt x="58" y="651" on="0"/>
      </contour>
      <contour>
        <pt x="416" y="828" on="1"/>
        <pt x="421" y="799" on="1"/>
        <pt x="231" y="680" on="1"/>
        <pt x="193" y="718" on="1"/>
        <pt x="207" y="736" on="0"/>
        <pt x="301" y="841" on="0"/>
        <pt x="312" y="847" on="1"/>
        <pt x="360" y="844" on="0"/>
      </contour>
    </TTGlyph>
    <TTGlyph name="Rcaron" xMin="48" yMin="-9" xMax="677" yMax="856">
      <contour>
        <pt x="249" y="341" on="1"/>
        <pt x="279" y="341" on="1"/>
        <pt x="407" y="341" on="0"/>
        <pt x="407" y="475" on="1"/>
        <pt x="407" y="544" on="0"/>
        <pt x="351" y="609" on="0"/>
        <pt x="289" y="609" on="1"/>
        <pt x="266" y="609" on="0"/>
        <pt x="249" y="602" on="1"/>
      </contour>
      <contour>
        <pt x="88" y="651" on="1"/>
        <pt x="289" y="658" on="1"/>
        <pt x="404" y="658" on="0"/>
        <pt x="546" y="579" on="0"/>
        <pt x="546" y="489" on="1"/>
        <pt x="546" y="423" on="0"/>
        <pt x="450" y="325" on="0"/>
        <pt x="383" y="320" on="1"/>
        <pt x="383" y="313" on="1"/>
        <pt x="413" y="306" on="0"/>
        <pt x="475" y="236" on="0"/>
        <pt x="497" y="196" on="1"/>
        <pt x="558" y="85" on="0"/>
        <pt x="636" y="31" on="0"/>
        <pt x="677" y="31" on="1"/>
        <pt x="671" y="-6" on="1"/>
        <pt x="494" y="-6" on="1"/>
        <pt x="470" y="-6" on="0"/>
        <pt x="434" y="50" on="1"/>
        <pt x="402" y="101" on="0"/>
        <pt x="348" y="204" on="0"/>
        <pt x="319" y="257" on="0"/>
        <pt x="291" y="284" on="0"/>
        <pt x="267" y="284" on="1"/>
        <pt x="249" y="284" on="1"/>
        <pt x="249" y="87" on="1"/>
        <pt x="249" y="72" on="0"/>
        <pt x="257" y="57" on="0"/>
        <pt x="271" y="52" on="1"/>
        <pt x="351" y="33" on="1"/>
        <pt x="344" y="-9" on="1"/>
        <pt x="250" y="0" on="0"/>
        <pt x="145" y="0" on="0"/>
        <pt x="55" y="-9" on="1"/>
        <pt x="48" y="30" on="1"/>
        <pt x="110" y="43" on="0"/>
        <pt x="118" y="60" on="1"/>
        <pt x="120" y="65" on="0"/>
        <pt x="120" y="79" on="1"/>
        <pt x="120" y="569" on="1"/>
        <pt x="120" y="591" on="0"/>
        <pt x="108" y="598" on="1"/>
        <pt x="86" y="609" on="0"/>
        <pt x="58" y="615" on="1"/>
        <pt x="48" y="617" on="1"/>
        <pt x="55" y="654" on="1"/>
        <pt x="58" y="651" on="0"/>
      </contour>
      <contour>
        <pt x="333" y="697" on="1"/>
        <pt x="313" y="692" on="0"/>
        <pt x="246" y="692" on="0"/>
        <pt x="227" y="697" on="1"/>
        <pt x="215" y="705" on="0"/>
        <pt x="138" y="810" on="0"/>
        <pt x="129" y="825" on="1"/>
        <pt x="172" y="856" on="1"/>
        <pt x="280" y="767" on="1"/>
        <pt x="388" y="856" on="1"/>
        <pt x="432" y="825" on="1"/>
        <pt x="425" y="812" on="0"/>
        <pt x="345" y="706" on="0"/>
      </contour>
    </TTGlyph>
    <TTGlyph name="Rcommaaccent" xMin="48" yMin="-270" xMax="677" yMax="658">
      <contour>
        <pt x="249" y="341" on="1"/>
        <pt x="279" y="341" on="1"/>
        <pt x="407" y="341" on="0"/>
        <pt x="407" y="475" on="1"/>
        <pt x="407" y="544" on="0"/>
        <pt x="351" y="609" on="0"/>
        <pt x="289" y="609" on="1"/>
        <pt x="266" y="609" on="0"/>
        <pt x="249" y="602" on="1"/>
      </contour>
      <contour>
        <pt x="88" y="651" on="1"/>
        <pt x="289" y="658" on="1"/>
        <pt x="404" y="658" on="0"/>
        <pt x="546" y="579" on="0"/>
        <pt x="546" y="489" on="1"/>
        <pt x="546" y="423" on="0"/>
        <pt x="450" y="325" on="0"/>
        <pt x="383" y="320" on="1"/>
        <pt x="383" y="313" on="1"/>
        <pt x="413" y="306" on="0"/>
        <pt x="475" y="236" on="0"/>
        <pt x="497" y="196" on="1"/>
        <pt x="558" y="85" on="0"/>
        <pt x="636" y="31" on="0"/>
        <pt x="677" y="31" on="1"/>
        <pt x="671" y="-6" on="1"/>
        <pt x="494" y="-6" on="1"/>
        <pt x="470" y="-6" on="0"/>
        <pt x="434" y="50" on="1"/>
        <pt x="402" y="101" on="0"/>
        <pt x="348" y="204" on="0"/>
        <pt x="319" y="257" on="0"/>
        <pt x="291" y="284" on="0"/>
        <pt x="267" y="284" on="1"/>
        <pt x="249" y="284" on="1"/>
        <pt x="249" y="87" on="1"/>
        <pt x="249" y="72" on="0"/>
        <pt x="257" y="57" on="0"/>
        <pt x="271" y="52" on="1"/>
        <pt x="351" y="33" on="1"/>
        <pt x="344" y="-9" on="1"/>
        <pt x="250" y="0" on="0"/>
        <pt x="145" y="0" on="0"/>
        <pt x="55" y="-9" on="1"/>
        <pt x="48" y="30" on="1"/>
        <pt x="110" y="43" on="0"/>
        <pt x="118" y="60" on="1"/>
        <pt x="120" y="65" on="0"/>
        <pt x="120" y="79" on="1"/>
        <pt x="120" y="569" on="1"/>
        <pt x="120" y="591" on="0"/>
        <pt x="108" y="598" on="1"/>
        <pt x="86" y="609" on="0"/>
        <pt x="58" y="615" on="1"/>
        <pt x="48" y="617" on="1"/>
        <pt x="55" y="654" on="1"/>
        <pt x="58" y="651" on="0"/>
      </contour>
      <contour>
        <pt x="381" y="-38" on="0"/>
        <pt x="444" y="-81" on="0"/>
        <pt x="444" y="-144" on="0"/>
        <pt x="361" y="-241" on="0"/>
        <pt x="320" y="-270" on="1"/>
        <pt x="291" y="-246" on="1"/>
        <pt x="309" y="-227" on="0"/>
        <pt x="343" y="-171" on="0"/>
        <pt x="343" y="-132" on="0"/>
        <pt x="292" y="-127" on="1"/>
        <pt x="283" y="-108" on="1"/>
        <pt x="294" y="-91" on="0"/>
        <pt x="333" y="-46" on="0"/>
        <pt x="347" y="-36" on="1"/>
      </contour>
    </TTGlyph>
    <TTGlyph name="S" xMin="48" yMin="-16" xMax="484" yMax="666">
      <contour>
        <pt x="248" y="40" on="1"/>
        <pt x="293" y="40" on="0"/>
        <pt x="352" y="96" on="0"/>
        <pt x="352" y="145" on="1"/>
        <pt x="352" y="191" on="0"/>
        <pt x="312" y="225" on="1"/>
        <pt x="279" y="253" on="0"/>
        <pt x="194" y="302" on="0"/>
        <pt x="172" y="315" on="0"/>
        <pt x="120" y="351" on="0"/>
        <pt x="97" y="377" on="0"/>
        <pt x="82" y="396" on="1"/>
        <pt x="55" y="432" on="0"/>
        <pt x="55" y="487" on="1"/>
        <pt x="55" y="571" on="0"/>
        <pt x="180" y="666" on="0"/>
        <pt x="277" y="666" on="1"/>
        <pt x="312" y="666" on="0"/>
        <pt x="459" y="640" on="1"/>
        <pt x="458" y="616" on="0"/>
        <pt x="439" y="504" on="0"/>
        <pt x="433" y="482" on="1"/>
        <pt x="384" y="475" on="1"/>
        <pt x="377" y="556" on="0"/>
        <pt x="365" y="587" on="1"/>
        <pt x="331" y="612" on="0"/>
        <pt x="269" y="612" on="1"/>
        <pt x="230" y="612" on="0"/>
        <pt x="179" y="563" on="0"/>
        <pt x="179" y="520" on="1"/>
        <pt x="179" y="478" on="0"/>
        <pt x="222" y="446" on="1"/>
        <pt x="254" y="422" on="0"/>
        <pt x="352" y="367" on="0"/>
        <pt x="398" y="337" on="0"/>
        <pt x="428" y="312" on="1"/>
        <pt x="484" y="263" on="0"/>
        <pt x="484" y="187" on="1"/>
        <pt x="484" y="88" on="0"/>
        <pt x="343" y="-16" on="0"/>
        <pt x="137" y="-16" on="0"/>
        <pt x="50" y="21" on="1"/>
        <pt x="48" y="34" on="0"/>
        <pt x="48" y="169" on="0"/>
        <pt x="52" y="188" on="1"/>
        <pt x="104" y="199" on="1"/>
        <pt x="110" y="129" on="0"/>
        <pt x="180" y="40" on="0"/>
      </contour>
    </TTGlyph>
    <TTGlyph name="Sacute" xMin="48" yMin="-16" xMax="484" yMax="847">
      <contour>
        <pt x="248" y="40" on="1"/>
        <pt x="293" y="40" on="0"/>
        <pt x="352" y="96" on="0"/>
        <pt x="352" y="145" on="1"/>
        <pt x="352" y="191" on="0"/>
        <pt x="312" y="225" on="1"/>
        <pt x="279" y="253" on="0"/>
        <pt x="194" y="302" on="0"/>
        <pt x="172" y="315" on="0"/>
        <pt x="120" y="351" on="0"/>
        <pt x="97" y="377" on="0"/>
        <pt x="82" y="396" on="1"/>
        <pt x="55" y="432" on="0"/>
        <pt x="55" y="487" on="1"/>
        <pt x="55" y="571" on="0"/>
        <pt x="180" y="666" on="0"/>
        <pt x="277" y="666" on="1"/>
        <pt x="312" y="666" on="0"/>
        <pt x="459" y="640" on="1"/>
        <pt x="458" y="616" on="0"/>
        <pt x="439" y="504" on="0"/>
        <pt x="433" y="482" on="1"/>
        <pt x="384" y="475" on="1"/>
        <pt x="377" y="556" on="0"/>
        <pt x="365" y="587" on="1"/>
        <pt x="331" y="612" on="0"/>
        <pt x="269" y="612" on="1"/>
        <pt x="230" y="612" on="0"/>
        <pt x="179" y="563" on="0"/>
        <pt x="179" y="520" on="1"/>
        <pt x="179" y="478" on="0"/>
        <pt x="222" y="446" on="1"/>
        <pt x="254" y="422" on="0"/>
        <pt x="352" y="367" on="0"/>
        <pt x="398" y="337" on="0"/>
        <pt x="428" y="312" on="1"/>
        <pt x="484" y="263" on="0"/>
        <pt x="484" y="187" on="1"/>
        <pt x="484" y="88" on="0"/>
        <pt x="343" y="-16" on="0"/>
        <pt x="137" y="-16" on="0"/>
        <pt x="50" y="21" on="1"/>
        <pt x="48" y="34" on="0"/>
        <pt x="48" y="169" on="0"/>
        <pt x="52" y="188" on="1"/>
        <pt x="104" y="199" on="1"/>
        <pt x="110" y="129" on="0"/>
        <pt x="180" y="40" on="0"/>
      </contour>
      <contour>
        <pt x="412" y="828" on="1"/>
        <pt x="417" y="799" on="1"/>
        <pt x="227" y="680" on="1"/>
        <pt x="189" y="718" on="1"/>
        <pt x="203" y="736" on="0"/>
        <pt x="297" y="841" on="0"/>
        <pt x="308" y="847" on="1"/>
        <pt x="356" y="844" on="0"/>
      </contour>
    </TTGlyph>
    <TTGlyph name="Scaron" xMin="48" yMin="-16" xMax="484" yMax="856">
      <contour>
        <pt x="248" y="40" on="1"/>
        <pt x="293" y="40" on="0"/>
        <pt x="352" y="96" on="0"/>
        <pt x="352" y="145" on="1"/>
        <pt x="352" y="191" on="0"/>
        <pt x="312" y="225" on="1"/>
        <pt x="279" y="253" on="0"/>
        <pt x="194" y="302" on="0"/>
        <pt x="172" y="315" on="0"/>
        <pt x="120" y="351" on="0"/>
        <pt x="97" y="377" on="0"/>
        <pt x="82" y="396" on="1"/>
        <pt x="55" y="432" on="0"/>
        <pt x="55" y="487" on="1"/>
        <pt x="55" y="571" on="0"/>
        <pt x="180" y="666" on="0"/>
        <pt x="277" y="666" on="1"/>
        <pt x="312" y="666" on="0"/>
        <pt x="459" y="640" on="1"/>
        <pt x="458" y="616" on="0"/>
        <pt x="439" y="504" on="0"/>
        <pt x="433" y="482" on="1"/>
        <pt x="384" y="475" on="1"/>
        <pt x="377" y="556" on="0"/>
        <pt x="365" y="587" on="1"/>
        <pt x="331" y="612" on="0"/>
        <pt x="269" y="612" on="1"/>
        <pt x="230" y="612" on="0"/>
        <pt x="179" y="563" on="0"/>
        <pt x="179" y="520" on="1"/>
        <pt x="179" y="478" on="0"/>
        <pt x="222" y="446" on="1"/>
        <pt x="254" y="422" on="0"/>
        <pt x="352" y="367" on="0"/>
        <pt x="398" y="337" on="0"/>
        <pt x="428" y="312" on="1"/>
        <pt x="484" y="263" on="0"/>
        <pt x="484" y="187" on="1"/>
        <pt x="484" y="88" on="0"/>
        <pt x="343" y="-16" on="0"/>
        <pt x="137" y="-16" on="0"/>
        <pt x="50" y="21" on="1"/>
        <pt x="48" y="34" on="0"/>
        <pt x="48" y="169" on="0"/>
        <pt x="52" y="188" on="1"/>
        <pt x="104" y="199" on="1"/>
        <pt x="110" y="129" on="0"/>
        <pt x="180" y="40" on="0"/>
      </contour>
      <contour>
        <pt x="329" y="697" on="1"/>
        <pt x="309" y="692" on="0"/>
        <pt x="242" y="692" on="0"/>
        <pt x="223" y="697" on="1"/>
        <pt x="211" y="705" on="0"/>
        <pt x="134" y="810" on="0"/>
        <pt x="125" y="825" on="1"/>
        <pt x="168" y="856" on="1"/>
        <pt x="276" y="767" on="1"/>
        <pt x="384" y="856" on="1"/>
        <pt x="428" y="825" on="1"/>
        <pt x="421" y="812" on="0"/>
        <pt x="341" y="706" on="0"/>
      </contour>
    </TTGlyph>
    <TTGlyph name="Scedilla" xMin="48" yMin="-245" xMax="484" yMax="666">
      <contour>
        <pt x="50" y="21" on="1"/>
        <pt x="48" y="34" on="0"/>
        <pt x="48" y="169" on="0"/>
        <pt x="52" y="188" on="1"/>
        <pt x="104" y="199" on="1"/>
        <pt x="110" y="129" on="0"/>
        <pt x="180" y="40" on="0"/>
        <pt x="248" y="40" on="1"/>
        <pt x="293" y="40" on="0"/>
        <pt x="352" y="96" on="0"/>
        <pt x="352" y="145" on="1"/>
        <pt x="352" y="191" on="0"/>
        <pt x="312" y="225" on="1"/>
        <pt x="279" y="253" on="0"/>
        <pt x="194" y="302" on="0"/>
        <pt x="172" y="315" on="0"/>
        <pt x="120" y="351" on="0"/>
        <pt x="97" y="377" on="0"/>
        <pt x="82" y="396" on="1"/>
        <pt x="55" y="432" on="0"/>
        <pt x="55" y="487" on="1"/>
        <pt x="55" y="571" on="0"/>
        <pt x="180" y="666" on="0"/>
        <pt x="277" y="666" on="1"/>
        <pt x="312" y="666" on="0"/>
        <pt x="459" y="640" on="1"/>
        <pt x="458" y="616" on="0"/>
        <pt x="439" y="504" on="0"/>
        <pt x="433" y="482" on="1"/>
        <pt x="384" y="475" on="1"/>
        <pt x="377" y="556" on="0"/>
        <pt x="365" y="587" on="1"/>
        <pt x="331" y="612" on="0"/>
        <pt x="269" y="612" on="1"/>
        <pt x="230" y="612" on="0"/>
        <pt x="179" y="563" on="0"/>
        <pt x="179" y="520" on="1"/>
        <pt x="179" y="478" on="0"/>
        <pt x="222" y="446" on="1"/>
        <pt x="254" y="422" on="0"/>
        <pt x="352" y="367" on="0"/>
        <pt x="398" y="337" on="0"/>
        <pt x="428" y="312" on="1"/>
        <pt x="484" y="263" on="0"/>
        <pt x="484" y="187" on="1"/>
        <pt x="484" y="92" on="0"/>
        <pt x="355" y="-10" on="0"/>
        <pt x="249" y="-15" on="1"/>
        <pt x="232" y="-71" on="1"/>
        <pt x="264" y="-71" on="0"/>
        <pt x="309" y="-116" on="0"/>
        <pt x="309" y="-194" on="0"/>
        <pt x="248" y="-245" on="0"/>
        <pt x="152" y="-245" on="0"/>
        <pt x="96" y="-207" on="1"/>
        <pt x="115" y="-170" on="1"/>
        <pt x="161" y="-193" on="0"/>
        <pt x="193" y="-193" on="1"/>
        <pt x="231" y="-193" on="0"/>
        <pt x="231" y="-158" on="1"/>
        <pt x="231" y="-135" on="0"/>
        <pt x="197" y="-115" on="0"/>
        <pt x="171" y="-115" on="0"/>
        <pt x="160" y="-118" on="1"/>
        <pt x="142" y="-92" on="1"/>
        <pt x="186" y="-13" on="1"/>
        <pt x="104" y="-3" on="0"/>
      </contour>
    </TTGlyph>
    <TTGlyph name="Scircumflex" xMin="48" yMin="-16" xMax="484" yMax="852">
      <contour>
        <pt x="248" y="40" on="1"/>
        <pt x="293" y="40" on="0"/>
        <pt x="352" y="96" on="0"/>
        <pt x="352" y="145" on="1"/>
        <pt x="352" y="191" on="0"/>
        <pt x="312" y="225" on="1"/>
        <pt x="279" y="253" on="0"/>
        <pt x="194" y="302" on="0"/>
        <pt x="172" y="315" on="0"/>
        <pt x="120" y="351" on="0"/>
        <pt x="97" y="377" on="0"/>
        <pt x="82" y="396" on="1"/>
        <pt x="55" y="432" on="0"/>
        <pt x="55" y="487" on="1"/>
        <pt x="55" y="571" on="0"/>
        <pt x="180" y="666" on="0"/>
        <pt x="277" y="666" on="1"/>
        <pt x="312" y="666" on="0"/>
        <pt x="459" y="640" on="1"/>
        <pt x="458" y="616" on="0"/>
        <pt x="439" y="504" on="0"/>
        <pt x="433" y="482" on="1"/>
        <pt x="384" y="475" on="1"/>
        <pt x="377" y="556" on="0"/>
        <pt x="365" y="587" on="1"/>
        <pt x="331" y="612" on="0"/>
        <pt x="269" y="612" on="1"/>
        <pt x="230" y="612" on="0"/>
        <pt x="179" y="563" on="0"/>
        <pt x="179" y="520" on="1"/>
        <pt x="179" y="478" on="0"/>
        <pt x="222" y="446" on="1"/>
        <pt x="254" y="422" on="0"/>
        <pt x="352" y="367" on="0"/>
        <pt x="398" y="337" on="0"/>
        <pt x="428" y="312" on="1"/>
        <pt x="484" y="263" on="0"/>
        <pt x="484" y="187" on="1"/>
        <pt x="484" y="88" on="0"/>
        <pt x="343" y="-16" on="0"/>
        <pt x="137" y="-16" on="0"/>
        <pt x="50" y="21" on="1"/>
        <pt x="48" y="34" on="0"/>
        <pt x="48" y="169" on="0"/>
        <pt x="52" y="188" on="1"/>
        <pt x="104" y="199" on="1"/>
        <pt x="110" y="129" on="0"/>
        <pt x="180" y="40" on="0"/>
      </contour>
      <contour>
        <pt x="224" y="847" on="1"/>
        <pt x="244" y="852" on="0"/>
        <pt x="311" y="852" on="0"/>
        <pt x="330" y="847" on="1"/>
        <pt x="342" y="839" on="0"/>
        <pt x="419" y="734" on="0"/>
        <pt x="428" y="719" on="1"/>
        <pt x="385" y="688" on="1"/>
        <pt x="277" y="777" on="1"/>
        <pt x="169" y="688" on="1"/>
        <pt x="125" y="719" on="1"/>
        <pt x="132" y="732" on="0"/>
        <pt x="212" y="838" on="0"/>
      </contour>
    </TTGlyph>
    <TTGlyph name="Scommaaccent" xMin="48" yMin="-270" xMax="484" yMax="666">
      <contour>
        <pt x="248" y="40" on="1"/>
        <pt x="293" y="40" on="0"/>
        <pt x="352" y="96" on="0"/>
        <pt x="352" y="145" on="1"/>
        <pt x="352" y="191" on="0"/>
        <pt x="312" y="225" on="1"/>
        <pt x="279" y="253" on="0"/>
        <pt x="194" y="302" on="0"/>
        <pt x="172" y="315" on="0"/>
        <pt x="120" y="351" on="0"/>
        <pt x="97" y="377" on="0"/>
        <pt x="82" y="396" on="1"/>
        <pt x="55" y="432" on="0"/>
        <pt x="55" y="487" on="1"/>
        <pt x="55" y="571" on="0"/>
        <pt x="180" y="666" on="0"/>
        <pt x="277" y="666" on="1"/>
        <pt x="312" y="666" on="0"/>
        <pt x="459" y="640" on="1"/>
        <pt x="458" y="616" on="0"/>
        <pt x="439" y="504" on="0"/>
        <pt x="433" y="482" on="1"/>
        <pt x="384" y="475" on="1"/>
        <pt x="377" y="556" on="0"/>
        <pt x="365" y="587" on="1"/>
        <pt x="331" y="612" on="0"/>
        <pt x="269" y="612" on="1"/>
        <pt x="230" y="612" on="0"/>
        <pt x="179" y="563" on="0"/>
        <pt x="179" y="520" on="1"/>
        <pt x="179" y="478" on="0"/>
        <pt x="222" y="446" on="1"/>
        <pt x="254" y="422" on="0"/>
        <pt x="352" y="367" on="0"/>
        <pt x="398" y="337" on="0"/>
        <pt x="428" y="312" on="1"/>
        <pt x="484" y="263" on="0"/>
        <pt x="484" y="187" on="1"/>
        <pt x="484" y="88" on="0"/>
        <pt x="343" y="-16" on="0"/>
        <pt x="137" y="-16" on="0"/>
        <pt x="50" y="21" on="1"/>
        <pt x="48" y="34" on="0"/>
        <pt x="48" y="169" on="0"/>
        <pt x="52" y="188" on="1"/>
        <pt x="104" y="199" on="1"/>
        <pt x="110" y="129" on="0"/>
        <pt x="180" y="40" on="0"/>
      </contour>
      <contour>
        <pt x="248" y="-38" on="0"/>
        <pt x="311" y="-81" on="0"/>
        <pt x="311" y="-144" on="0"/>
        <pt x="228" y="-241" on="0"/>
        <pt x="187" y="-270" on="1"/>
        <pt x="158" y="-246" on="1"/>
        <pt x="176" y="-227" on="0"/>
        <pt x="210" y="-171" on="0"/>
        <pt x="210" y="-132" on="0"/>
        <pt x="159" y="-127" on="1"/>
        <pt x="150" y="-108" on="1"/>
        <pt x="161" y="-91" on="0"/>
        <pt x="200" y="-46" on="0"/>
        <pt x="214" y="-36" on="1"/>
      </contour>
    </TTGlyph>
    <TTGlyph name="T" xMin="6" yMin="-9" xMax="573" yMax="658">
      <contour>
        <pt x="441" y="-9" on="1"/>
        <pt x="364" y="0" on="0"/>
        <pt x="215" y="0" on="0"/>
        <pt x="138" y="-9" on="1"/>
        <pt x="129" y="31" on="1"/>
        <pt x="212" y="47" on="0"/>
        <pt x="222" y="64" on="1"/>
        <pt x="225" y="69" on="0"/>
        <pt x="225" y="82" on="1"/>
        <pt x="225" y="588" on="1"/>
        <pt x="93" y="588" on="1"/>
        <pt x="83" y="561" on="0"/>
        <pt x="72" y="470" on="1"/>
        <pt x="15" y="479" on="1"/>
        <pt x="6" y="550" on="0"/>
        <pt x="6" y="637" on="0"/>
        <pt x="7" y="658" on="1"/>
        <pt x="74" y="650" on="0"/>
        <pt x="113" y="650" on="1"/>
        <pt x="466" y="650" on="1"/>
        <pt x="505" y="650" on="0"/>
        <pt x="572" y="658" on="1"/>
        <pt x="573" y="646" on="0"/>
        <pt x="573" y="573" on="0"/>
        <pt x="563" y="479" on="1"/>
        <pt x="507" y="470" on="1"/>
        <pt x="501" y="550" on="0"/>
        <pt x="486" y="588" on="1"/>
        <pt x="354" y="588" on="1"/>
        <pt x="354" y="82" on="1"/>
        <pt x="354" y="62" on="0"/>
        <pt x="366" y="56" on="1"/>
        <pt x="385" y="45" on="0"/>
        <pt x="434" y="34" on="1"/>
        <pt x="450" y="31" on="1"/>
      </contour>
    </TTGlyph>
    <TTGlyph name="Tbar" xMin="6" yMin="-9" xMax="573" yMax="658">
      <contour>
        <pt x="441" y="-9" on="1"/>
        <pt x="364" y="0" on="0"/>
        <pt x="215" y="0" on="0"/>
        <pt x="138" y="-9" on="1"/>
        <pt x="129" y="31" on="1"/>
        <pt x="212" y="47" on="0"/>
        <pt x="222" y="64" on="1"/>
        <pt x="225" y="69" on="0"/>
        <pt x="225" y="82" on="1"/>
        <pt x="225" y="311" on="1"/>
        <pt x="74" y="311" on="1"/>
        <pt x="84" y="363" on="1"/>
        <pt x="225" y="363" on="1"/>
        <pt x="225" y="588" on="1"/>
        <pt x="93" y="588" on="1"/>
        <pt x="83" y="561" on="0"/>
        <pt x="72" y="470" on="1"/>
        <pt x="15" y="479" on="1"/>
        <pt x="6" y="550" on="0"/>
        <pt x="6" y="637" on="0"/>
        <pt x="7" y="658" on="1"/>
        <pt x="74" y="650" on="0"/>
        <pt x="113" y="650" on="1"/>
        <pt x="466" y="650" on="1"/>
        <pt x="505" y="650" on="0"/>
        <pt x="572" y="658" on="1"/>
        <pt x="573" y="646" on="0"/>
        <pt x="573" y="573" on="0"/>
        <pt x="563" y="479" on="1"/>
        <pt x="507" y="470" on="1"/>
        <pt x="501" y="550" on="0"/>
        <pt x="486" y="588" on="1"/>
        <pt x="354" y="588" on="1"/>
        <pt x="354" y="363" on="1"/>
        <pt x="504" y="363" on="1"/>
        <pt x="494" y="311" on="1"/>
        <pt x="354" y="311" on="1"/>
        <pt x="354" y="82" on="1"/>
        <pt x="354" y="62" on="0"/>
        <pt x="366" y="56" on="1"/>
        <pt x="385" y="45" on="0"/>
        <pt x="434" y="34" on="1"/>
        <pt x="450" y="31" on="1"/>
      </contour>
    </TTGlyph>
    <TTGlyph name="Tcaron" xMin="6" yMin="-9" xMax="573" yMax="856">
      <contour>
        <pt x="441" y="-9" on="1"/>
        <pt x="364" y="0" on="0"/>
        <pt x="215" y="0" on="0"/>
        <pt x="138" y="-9" on="1"/>
        <pt x="129" y="31" on="1"/>
        <pt x="212" y="47" on="0"/>
        <pt x="222" y="64" on="1"/>
        <pt x="225" y="69" on="0"/>
        <pt x="225" y="82" on="1"/>
        <pt x="225" y="588" on="1"/>
        <pt x="93" y="588" on="1"/>
        <pt x="83" y="561" on="0"/>
        <pt x="72" y="470" on="1"/>
        <pt x="15" y="479" on="1"/>
        <pt x="6" y="550" on="0"/>
        <pt x="6" y="637" on="0"/>
        <pt x="7" y="658" on="1"/>
        <pt x="74" y="650" on="0"/>
        <pt x="113" y="650" on="1"/>
        <pt x="466" y="650" on="1"/>
        <pt x="505" y="650" on="0"/>
        <pt x="572" y="658" on="1"/>
        <pt x="573" y="646" on="0"/>
        <pt x="573" y="573" on="0"/>
        <pt x="563" y="479" on="1"/>
        <pt x="507" y="470" on="1"/>
        <pt x="501" y="550" on="0"/>
        <pt x="486" y="588" on="1"/>
        <pt x="354" y="588" on="1"/>
        <pt x="354" y="82" on="1"/>
        <pt x="354" y="62" on="0"/>
        <pt x="366" y="56" on="1"/>
        <pt x="385" y="45" on="0"/>
        <pt x="434" y="34" on="1"/>
        <pt x="450" y="31" on="1"/>
      </contour>
      <contour>
        <pt x="341" y="697" on="1"/>
        <pt x="321" y="692" on="0"/>
        <pt x="254" y="692" on="0"/>
        <pt x="235" y="697" on="1"/>
        <pt x="223" y="705" on="0"/>
        <pt x="146" y="810" on="0"/>
        <pt x="137" y="825" on="1"/>
        <pt x="180" y="856" on="1"/>
        <pt x="288" y="767" on="1"/>
        <pt x="396" y="856" on="1"/>
        <pt x="440" y="825" on="1"/>
        <pt x="433" y="812" on="0"/>
        <pt x="353" y="706" on="0"/>
      </contour>
    </TTGlyph>
</ttFont>
